<?xml version="1.0" standalone="no"?>
<!DOCTYPE svg PUBLIC "-//W3C//DTD SVG 1.1//EN" "http://www.w3.org/Graphics/SVG/1.1/DTD/svg11.dtd" >
<svg xmlns="http://www.w3.org/2000/svg" xmlns:xlink="http://www.w3.org/1999/xlink" version="1.1">
<metadata>
Created by FontForge 20170910 at Mon Feb 11 02:28:25 2008
 By Jimmy Wärting
copyright (C) 2008 diezil tweeks. All rights reserved..
</metadata>
<defs>
<font id="SonySketchEF" horiz-adv-x="1229" >
  <font-face 
    font-family="Sony Sketch EF"
    font-weight="400"
    font-stretch="normal"
    units-per-em="2048"
    panose-1="2 11 6 3 2 1 4 2 2 3"
    ascent="1638"
    descent="-410"
    x-height="752"
    cap-height="1000"
    bbox="-344 -710 2478 1660"
    underline-thickness="131"
    underline-position="-380"
    unicode-range="U+000A-FEFC"
  />
    <missing-glyph />
    <glyph glyph-name="uniFB51" unicode="&#x671;" horiz-adv-x="539" arabic-form="final" 
d="M567 555v-206q-178 4 -264.5 91t-86.5 258q0 21 5 139q7 169 -23 331l121 144q14 -96 14 -207q0 -51 -5.5 -150t-5.5 -175q0 -225 181 -225h64zM267 1369h-155q-32 0 -43 -41q-10 -42 -26 -42q-23 0 -23 31q0 46 23 103.5t72 57.5h86q32 68 99.5 120t127.5 52
q69 0 69 -60q0 -106 -60.5 -163.5t-169.5 -57.5zM250 1472q28 -5 55 -5q143 0 143 51q0 55 -63 55q-67 0 -135 -101z" />
    <glyph glyph-name="uniFB57" unicode="&#x67e;" horiz-adv-x="1820" arabic-form="final" 
d="M1545 885l123 140q95 -155 95 -255q0 -88 -76 -222.5t-140 -153t-225 -32t-296 -13.5h-180q-306 0 -506 60.5t-200 266.5q0 93 47 202.5t74 109.5q11 0 11 -8q0 -16 -19 -63q-12 -31 -12 -89q0 -111 115.5 -191t397.5 -82h261q131 0 330.5 15t247 32t47.5 54
q0 60 -95 229zM820 -62l-142 142l142 142l142 -142zM1106 -62l-142 142l142 142l142 -142zM963 -327l-142 142l142 142l142 -142z" />
    <glyph glyph-name="uniFB58" unicode="&#x67e;" horiz-adv-x="688" arabic-form="initial" 
d="M-180 555h363q110 0 198.5 17t88.5 46q0 22 -106 244l123 152q98 -193 98 -301q0 -85 -67.5 -194.5t-183.5 -139.5t-291 -30q-62 0 -135 59t-88 147zM209 -75l-142 142l142 142l142 -142zM495 -75l-142 142l142 142l142 -142zM352 -340l-142 142l142 142l142 -142z" />
    <glyph glyph-name="uniFB59" unicode="&#x67e;" horiz-adv-x="688" arabic-form="medial" 
d="M-180 555h363q110 0 198.5 17t88.5 46q0 22 -106 244l123 152q98 -193 98 -301q0 -85 -67.5 -194.5t-183.5 -139.5t-291 -30q-62 0 -135 59t-88 147zM209 -75l-142 142l142 142l142 -142zM495 -75l-142 142l142 142l142 -142zM352 -340l-142 142l142 142l142 -142z" />
    <glyph glyph-name="uniFB7B" unicode="&#x686;" horiz-adv-x="1194" arabic-form="final" 
d="M422 421.5q-133 -117.5 -133 -294.5q0 -169 121.5 -234t389.5 -65q160 0 487 89q-198 -295 -579 -295q-255 0 -387 105t-132 294q0 182 96.5 320t324.5 306q-13 0 -61 4q-60 5 -85 5q-277 0 -350 -184q-4 36 -4 69q0 163 95.5 253.5t253.5 90.5q47 0 181 -22
q134 -21 223 -21q49 0 133 9q84 8 122 8l-37 -203l-128 -27q46 -74 153 -74h116v-206h-78q-102 0 -173.5 76t-89.5 189q-326 -75 -459 -192.5zM580 160l-142 142l142 142l142 -142zM866 160l-142 142l142 142l142 -142zM723 -105l-142 142l142 142l142 -142z" />
    <glyph glyph-name="uniFB7C" unicode="&#x686;" horiz-adv-x="1462" arabic-form="initial" 
d="M-180 555h306q138 0 294.5 40.5t442.5 143.5q-59 29 -182 109q-107 68 -174 68q-84 0 -209 -100q50 272 269 272q94 0 212 -84l217 -150q43 -29 152 -65.5t248 -41.5l-72 -195q-372 0 -519 -46l-286 -88q-224 -69 -471 -69q-88 0 -150.5 60.5t-77.5 145.5zM489 -64
l-142 142l142 142l142 -142zM775 -64l-142 142l142 142l142 -142zM632 -329l-142 142l142 142l142 -142z" />
    <glyph glyph-name="uniFB7D" unicode="&#x686;" horiz-adv-x="1462" arabic-form="medial" 
d="M-180 555h306q138 0 294.5 40.5t442.5 143.5q-59 29 -182 109q-107 68 -174 68q-84 0 -209 -100q50 272 269 272q94 0 212 -84l217 -150q43 -29 152 -65.5t248 -41.5l-72 -195q-372 0 -519 -46l-286 -88q-224 -69 -471 -69q-88 0 -150.5 60.5t-77.5 145.5zM489 -64
l-142 142l142 142l142 -142zM775 -64l-142 142l142 142l142 -142zM632 -329l-142 142l142 142l142 -142z" />
    <glyph glyph-name="uniFB8B" unicode="&#x698;" horiz-adv-x="805" arabic-form="final" 
d="M447 630l86 195q189 -223 189 -407q0 -316 -148 -506.5t-408 -190.5q-49 0 -126 43l-160 89q-27 15 -27 22q0 8 96 13q283 10 486.5 127.5t203.5 299.5q0 26 -22.5 79.5t-169.5 235.5zM290 983l-142 142l142 142l142 -142zM576 983l-142 142l142 142l142 -142zM433 1248
l-142 142l142 142l142 -142z" />
    <glyph glyph-name="uniFB90" unicode="&#x6a9;" horiz-adv-x="1015" arabic-form="initial" 
d="M-180 555h696q281 0 281 69q0 122 -404 316q-215 104 -215 114q0 47 24.5 113.5t50.5 96.5t97 75.5t285 139t443 171.5l-83 -158l-376 -160q-207 -88 -244 -108t-37 -32q0 -23 165 -115q182 -99 251 -159.5t97.5 -113.5t28.5 -163q0 -176 -86.5 -234t-248.5 -58h-522
q-54 0 -111.5 54t-91.5 152z" />
    <glyph glyph-name="uniFB91" unicode="&#x6a9;" horiz-adv-x="1104" arabic-form="medial" 
d="M1132 349h-109q-120 0 -186 97q-94 -97 -293 -97h-521q-54 0 -111.5 54t-91.5 152h696q161 0 221 16.5t60 52.5q0 46 -87 126.5t-316 189.5q-217 103 -217 119q0 58 29.5 121t77 117.5t234.5 137t560 215.5l-84 -158l-375 -160q-202 -86 -241.5 -107t-39.5 -33
q0 -24 165 -116q199 -109 288.5 -194.5t89.5 -232.5q0 -49 -7 -94h258v-206z" />
    <glyph glyph-name="uniFB93" unicode="&#x6af;" horiz-adv-x="1888" arabic-form="final" 
d="M1768 1552l-442 -183q-134 -56 -268 -132q-14 -8 -16 -8q-6 8 -6 21q0 53 35 88q207 127 737 312zM1346 349h-773q-122 0 -180 9t-123 47.5t-99.5 106.5t-34.5 173q0 124 43 199.5t75 75.5q7 0 7 -7q0 -10 -20 -70q-23 -66 -23 -105q0 -104 52 -148t206.5 -59.5
t433.5 -15.5h419q258 0 258 48q0 36 -76 91t-411 180q-73 27 -73 64q0 39 26.5 106.5t72.5 108t156 93.5t211 89.5t384 133.5l-78 -152l-347 -125q-56 -20 -159 -69t-103 -83q0 -13 140 -70q179 -74 269 -158t90 -179q0 -42 -6 -77h233v-207h-53q-105 0 -191 159
q-25 -80 -106.5 -119.5t-219.5 -39.5z" />
    <glyph glyph-name="uniFB94" unicode="&#x6af;" horiz-adv-x="1015" arabic-form="initial" 
d="M959 1552l-442 -183q-134 -56 -268 -132q-14 -8 -16 -8q-6 8 -6 21q0 53 35 88q207 127 737 312zM537 349h-520q-51 0 -113 61t-84 145h700q258 0 258 48q0 36 -76 91t-411 180q-73 27 -73 64q0 36 26 103.5t68.5 106.5t149 92t190.5 84t416 145l-78 -152l-347 -125
q-56 -20 -159 -69t-103 -83q0 -13 140 -70q200 -82 279 -164.5t79 -172.5q0 -151 -80.5 -217.5t-261.5 -66.5z" />
    <glyph glyph-name="uniFB95" unicode="&#x6af;" horiz-adv-x="1104" arabic-form="medial" 
d="M959 1552l-442 -183q-134 -56 -268 -132q-14 -8 -16 -8q-6 8 -6 21q0 53 35 88q207 127 737 312zM539 349h-522q-51 0 -113 61t-84 145h702q258 0 258 46q0 37 -74.5 91.5t-414.5 181.5q-73 27 -73 64q0 36 26 103.5t68.5 106.5t149 92t190.5 84t416 145l-78 -152
l-347 -125q-56 -20 -159 -69t-103 -83q0 -13 140 -70q202 -83 281 -164.5t79 -172.5q0 -42 -6 -77h257v-207h-71q-96 0 -196 156q-30 -78 -111.5 -117t-214.5 -39z" />
    <glyph glyph-name="uniFBFD" unicode="&#x6cc;" horiz-adv-x="1344" arabic-form="final" 
d="M1372 349h-321q-138 0 -138 -43q0 -10 96 -34q274 -67 274 -149q0 -39 -70.5 -173t-281.5 -203t-390 -69q-195 0 -312.5 101t-117.5 311q0 148 73.5 303.5t112.5 155.5q10 0 10 -9q0 -1 -57 -126q-56 -126 -56 -222q0 -131 110.5 -215t287.5 -84q143 0 349.5 53t206.5 94
q0 27 -174 73q-88 23 -131.5 47.5t-43.5 51.5q0 108 84 192.5t138 117.5t245 33h106v-206z" />
    <glyph glyph-name="uniFE80" unicode="&#x621;" horiz-adv-x="688" arabic-form="isolated" 
d="M636 790v-117l-447 -207l14 75q57 28 129 100q-102 -4 -161 38.5t-59 113.5q0 79 67 193t173 114q66 0 86.5 -23.5t20.5 -82.5q0 -65 -9 -112q-139 72 -195 72q-69 0 -69 -55q0 -52 101.5 -104.5t199.5 -52.5q67 0 149 48z" />
    <glyph glyph-name="uniFE82" unicode="&#x622;" horiz-adv-x="539" arabic-form="final" 
d="M567 555v-206q-178 4 -264.5 91t-86.5 258q0 21 5 139q7 169 -23 331l121 144q14 -96 14 -207q0 -51 -5.5 -150t-5.5 -175q0 -225 181 -225h64zM744 1639q-29 -99 -108.5 -148.5t-208.5 -49.5q-68 0 -193 41q-123 40 -160 40q-69 0 -156 -108q0 100 54 168t142 68
q55 0 170 -42q126 -46 209 -46q113 0 162 20.5t89 56.5z" />
    <glyph glyph-name="uniFE84" unicode="&#x623;" horiz-adv-x="539" arabic-form="final" 
d="M471 1425l-9 -94l-326 -114l10 68q61 21 94 58q-41 0 -78 25t-37 68q0 54 54.5 134t133.5 80q37 0 61 -20.5t24 -45.5q0 -34 -26 -74q-47 40 -120 40q-62 0 -62 -43q0 -40 59.5 -70.5t122.5 -30.5q73 0 99 19zM567 555v-206q-341 5 -341 329l6 190q0 120 -14 220l111 128
q14 -95 14 -181l-11 -275q0 -121 45.5 -163t135.5 -42h54z" />
    <glyph glyph-name="uniFE86" unicode="&#x624;" horiz-adv-x="777" arabic-form="final" 
d="M593 555q-3 97 -49.5 166t-99.5 69q-86 0 -86 -132q0 -45 19.5 -70t36.5 -29t179 -4zM708 349q-19 -230 -159 -441.5t-380 -211.5q-68 0 -156.5 36.5t-129.5 89.5q293 0 520.5 170.5t227.5 323.5q0 17 -2 33q-124 1 -201.5 16.5t-110.5 68.5t-33 147q0 151 55 283.5
t125 132.5q109 0 181 -133.5t72 -308.5h95v-206h-104zM631 1345l-9 -94l-326 -114l10 68q61 21 94 58q-47 0 -81 27.5t-34 65.5q0 56 54.5 135t133.5 79q38 0 61.5 -20.5t23.5 -45.5q0 -34 -26 -74q-47 40 -120 40q-62 0 -62 -43q0 -42 61.5 -71.5t120.5 -29.5q73 0 99 19z
" />
    <glyph glyph-name="uniFE88" unicode="&#x625;" horiz-adv-x="539" arabic-form="final" 
d="M567 555v-206q-173 4 -259.5 88.5t-86.5 248.5l7 305q0 146 -7.5 275t-22.5 241l117 143q11 -95 17 -210.5t6 -250.5l-11 -384q0 -122 38 -186t142 -64h60zM500 -3l-9 -94l-326 -114l10 68q61 21 94 58q-47 0 -81 27.5t-34 65.5q0 56 54.5 135t133.5 79q38 0 61.5 -20.5
t23.5 -45.5q0 -34 -26 -74q-47 40 -120 40q-62 0 -62 -43q0 -42 61.5 -71.5t120.5 -29.5q73 0 99 19z" />
    <glyph glyph-name="uniFE8A" unicode="&#x626;" horiz-adv-x="1344" arabic-form="final" 
d="M1372 349h-321q-138 0 -138 -43q0 -10 96 -34q274 -67 274 -149q0 -39 -70.5 -173t-281.5 -203t-390 -69q-195 0 -312.5 101t-117.5 311q0 148 73.5 303.5t112.5 155.5q10 0 10 -9q0 -1 -57 -126q-56 -126 -56 -222q0 -131 110.5 -215t287.5 -84q143 0 349.5 53t206.5 94
q0 27 -174 73q-88 23 -131.5 47.5t-43.5 51.5q0 108 84 192.5t138 117.5t245 33h106v-206zM805 957l-9 -94l-326 -114l10 68q61 21 94 58q-47 0 -81 27.5t-34 65.5q0 56 54.5 135t133.5 79q38 0 61.5 -20.5t23.5 -45.5q0 -34 -26 -74q-47 40 -120 40q-62 0 -62 -43
q0 -42 61.5 -71.5t120.5 -29.5q73 0 99 19z" />
    <glyph glyph-name="uniFE8B" unicode="&#x626;" horiz-adv-x="656" arabic-form="initial" 
d="M-180 555h363q110 0 198.5 17t88.5 46q0 22 -106 244l123 152q98 -193 98 -301q0 -85 -67.5 -194.5t-183.5 -139.5t-291 -30q-62 0 -135 59t-88 147zM505 1318l-9 -94l-326 -114l10 68q61 21 94 58q-47 0 -81 27.5t-34 65.5q0 56 54.5 135t133.5 79q38 0 61.5 -20.5
t23.5 -45.5q0 -34 -26 -74q-47 40 -120 40q-62 0 -62 -43q0 -42 61.5 -71.5t120.5 -29.5q73 0 99 19z" />
    <glyph glyph-name="uniFE8C" unicode="&#x626;" horiz-adv-x="656" arabic-form="medial" 
d="M-180 555h363q110 0 198.5 17t88.5 46q0 22 -106 244l123 152q98 -193 98 -301q0 -85 -67.5 -194.5t-183.5 -139.5t-291 -30q-62 0 -135 59t-88 147zM505 1318l-9 -94l-326 -114l10 68q61 21 94 58q-47 0 -81 27.5t-34 65.5q0 56 54.5 135t133.5 79q38 0 61.5 -20.5
t23.5 -45.5q0 -34 -26 -74q-47 40 -120 40q-62 0 -62 -43q0 -42 61.5 -71.5t120.5 -29.5q73 0 99 19z" />
    <glyph glyph-name="uniFE8E" unicode="&#x627;" horiz-adv-x="539" arabic-form="final" 
d="M567 555v-206q-173 4 -259.5 88.5t-86.5 248.5l7 305q0 146 -7.5 275t-22.5 241l117 143q11 -95 17 -210.5t6 -250.5l-11 -384q0 -122 38 -186t142 -64h60z" />
    <glyph glyph-name="uniFE90" unicode="&#x628;" horiz-adv-x="1820" arabic-form="final" 
d="M1545 885l123 140q95 -155 95 -255q0 -88 -76 -222.5t-140 -153t-225 -32t-296 -13.5h-180q-306 0 -506 60.5t-200 266.5q0 93 47 202.5t74 109.5q11 0 11 -8q0 -16 -19 -63q-12 -31 -12 -89q0 -111 115.5 -191t397.5 -82h261q131 0 330.5 15t247 32t47.5 54
q0 60 -95 229zM943 -154l-165 165l165 165l165 -165z" />
    <glyph glyph-name="uniFE91" unicode="&#x628;" horiz-adv-x="656" arabic-form="initial" 
d="M-180 555h363q110 0 198.5 17t88.5 46q0 22 -106 244l123 152q98 -193 98 -301q0 -85 -67.5 -194.5t-183.5 -139.5t-291 -30q-62 0 -135 59t-88 147zM314 -108l-165 165l165 165l165 -165z" />
    <glyph glyph-name="uniFE92" unicode="&#x628;" horiz-adv-x="656" arabic-form="medial" 
d="M-180 555h363q110 0 198.5 17t88.5 46q0 22 -106 244l123 152q98 -193 98 -301q0 -85 -67.5 -194.5t-183.5 -139.5t-291 -30q-62 0 -135 59t-88 147zM314 -108l-165 165l165 165l165 -165z" />
    <glyph glyph-name="uniFE94" unicode="&#x629;" horiz-adv-x="897" arabic-form="final" 
d="M636 1292q17 -144 32 -504q6 -123 34 -177t112 -56h111v-206h-114q-111 0 -167 43t-74 221l-134 -112q-194 19 -226.5 31t-32.5 29q0 31 9 57l72 212q23 68 95 125t194 102q-3 42 -25 92zM547 1000l-51 -92q-195 -67 -201 -192q69 -20 166 -20q18 0 104 5v181
q0 54 -9 118h-9zM290 1366l-142 142l142 142l142 -142zM576 1366l-142 142l142 142l142 -142z" />
    <glyph glyph-name="uniFE96" unicode="&#x62a;" horiz-adv-x="1820" arabic-form="final" 
d="M1545 885l123 140q95 -155 95 -255q0 -88 -76 -222.5t-140 -153t-225 -32t-296 -13.5h-180q-306 0 -506 60.5t-200 266.5q0 93 47 202.5t74 109.5q11 0 11 -8q0 -16 -19 -63q-12 -31 -12 -89q0 -111 115.5 -191t397.5 -82h261q131 0 330.5 15t247 32t47.5 54
q0 60 -95 229zM782 888l-142 142l142 142l142 -142zM1068 888l-142 142l142 142l142 -142z" />
    <glyph glyph-name="uniFE97" unicode="&#x62a;" horiz-adv-x="656" arabic-form="initial" 
d="M-180 555h363q110 0 198.5 17t88.5 46q0 22 -106 244l123 152q98 -193 98 -301q0 -85 -67.5 -194.5t-183.5 -139.5t-291 -30q-62 0 -135 59t-88 147zM212 1163l-142 142l142 142l142 -142zM498 1163l-142 142l142 142l142 -142z" />
    <glyph glyph-name="uniFE98" unicode="&#x62a;" horiz-adv-x="656" arabic-form="medial" 
d="M-180 555h363q110 0 198.5 17t88.5 46q0 22 -106 244l123 152q98 -193 98 -301q0 -85 -67.5 -194.5t-183.5 -139.5t-291 -30q-62 0 -135 59t-88 147zM212 1163l-142 142l142 142l142 -142zM498 1163l-142 142l142 142l142 -142z" />
    <glyph glyph-name="uniFE9A" unicode="&#x62b;" horiz-adv-x="1820" arabic-form="final" 
d="M1545 885l123 140q95 -155 95 -255q0 -88 -76 -222.5t-140 -153t-225 -32t-296 -13.5h-180q-306 0 -506 60.5t-200 266.5q0 93 47 202.5t74 109.5q11 0 11 -8q0 -16 -19 -63q-12 -31 -12 -89q0 -111 115.5 -191t397.5 -82h261q131 0 330.5 15t247 32t47.5 54
q0 60 -95 229zM783 876l-142 142l142 142l142 -142zM1069 876l-142 142l142 142l142 -142zM926 1141l-142 142l142 142l142 -142z" />
    <glyph glyph-name="uniFE9B" unicode="&#x62b;" horiz-adv-x="656" arabic-form="initial" 
d="M-180 555h363q110 0 198.5 17t88.5 46q0 22 -106 244l123 152q98 -193 98 -301q0 -85 -67.5 -194.5t-183.5 -139.5t-291 -30q-62 0 -135 59t-88 147zM207 1101l-142 142l142 142l142 -142zM493 1101l-142 142l142 142l142 -142zM350 1366l-142 142l142 142l142 -142z" />
    <glyph glyph-name="uniFE9C" unicode="&#x62b;" horiz-adv-x="656" arabic-form="medial" 
d="M-180 555h363q110 0 198.5 17t88.5 46q0 22 -106 244l123 152q98 -193 98 -301q0 -85 -67.5 -194.5t-183.5 -139.5t-291 -30q-62 0 -135 59t-88 147zM207 1101l-142 142l142 142l142 -142zM493 1101l-142 142l142 142l142 -142zM350 1366l-142 142l142 142l142 -142z" />
    <glyph glyph-name="uniFE9E" unicode="&#x62c;" horiz-adv-x="1194" arabic-form="final" 
d="M422 421.5q-133 -117.5 -133 -294.5q0 -169 121.5 -234t389.5 -65q160 0 487 89q-198 -295 -579 -295q-255 0 -387 105t-132 294q0 182 96.5 320t324.5 306q-13 0 -61 4q-60 5 -85 5q-277 0 -350 -184q-4 36 -4 69q0 163 95.5 253.5t253.5 90.5q47 0 181 -22
q134 -21 223 -21q49 0 133 9q84 8 122 8l-37 -203l-128 -27q46 -74 153 -74h116v-206h-78q-102 0 -173.5 76t-89.5 189q-326 -75 -459 -192.5zM777 26l-165 165l165 165l165 -165z" />
    <glyph glyph-name="uniFE9F" unicode="&#x62c;" horiz-adv-x="1462" arabic-form="initial" 
d="M-180 555h306q138 0 294.5 40.5t442.5 143.5q-59 29 -182 109q-107 68 -174 68q-84 0 -209 -100q50 272 269 272q94 0 212 -84l217 -150q43 -29 152 -65.5t248 -41.5l-72 -195q-372 0 -519 -46l-286 -88q-224 -69 -471 -69q-88 0 -150.5 60.5t-77.5 145.5zM817 -28
l-165 165l165 165l165 -165z" />
    <glyph glyph-name="uniFEA0" unicode="&#x62c;" horiz-adv-x="1462" arabic-form="medial" 
d="M-180 555h306q138 0 294.5 40.5t442.5 143.5q-59 29 -182 109q-107 68 -174 68q-84 0 -209 -100q50 272 269 272q94 0 212 -84l217 -150q43 -29 152 -65.5t248 -41.5l-72 -195q-372 0 -519 -46l-286 -88q-224 -69 -471 -69q-88 0 -150.5 60.5t-77.5 145.5zM817 -28
l-165 165l165 165l165 -165z" />
    <glyph glyph-name="uniFEA2" unicode="&#x62d;" horiz-adv-x="1194" arabic-form="final" 
d="M422 421.5q-133 -117.5 -133 -294.5q0 -169 121.5 -234t389.5 -65q160 0 487 89q-198 -295 -579 -295q-255 0 -387 105t-132 294q0 182 96.5 320t324.5 306q-13 0 -61 4q-60 5 -85 5q-277 0 -350 -184q-4 36 -4 69q0 163 95.5 253.5t253.5 90.5q47 0 181 -22
q134 -21 223 -21q49 0 133 9q84 8 122 8l-37 -203l-128 -27q46 -74 153 -74h116v-206h-78q-102 0 -173.5 76t-89.5 189q-326 -75 -459 -192.5z" />
    <glyph glyph-name="uniFEA3" unicode="&#x62d;" horiz-adv-x="1462" arabic-form="initial" 
d="M-180 555h306q138 0 294.5 40.5t442.5 143.5q-59 29 -182 109q-107 68 -174 68q-84 0 -209 -100q50 272 269 272q94 0 212 -84l217 -150q43 -29 152 -65.5t248 -41.5l-72 -195q-372 0 -519 -46l-286 -88q-224 -69 -471 -69q-88 0 -150.5 60.5t-77.5 145.5z" />
    <glyph glyph-name="uniFEA4" unicode="&#x62d;" horiz-adv-x="1462" arabic-form="medial" 
d="M-180 555h306q138 0 294.5 40.5t442.5 143.5q-59 29 -182 109q-107 68 -174 68q-84 0 -209 -100q50 272 269 272q94 0 212 -84l217 -150q43 -29 152 -65.5t248 -41.5l-72 -195q-372 0 -519 -46l-286 -88q-224 -69 -471 -69q-88 0 -150.5 60.5t-77.5 145.5z" />
    <glyph glyph-name="uniFEA6" unicode="&#x62e;" horiz-adv-x="1194" arabic-form="final" 
d="M422 421.5q-133 -117.5 -133 -294.5q0 -169 121.5 -234t389.5 -65q160 0 487 89q-198 -295 -579 -295q-255 0 -387 105t-132 294q0 182 96.5 320t324.5 306q-13 0 -61 4q-60 5 -85 5q-277 0 -350 -184q-4 36 -4 69q0 163 95.5 253.5t253.5 90.5q47 0 181 -22
q134 -21 223 -21q49 0 133 9q84 8 122 8l-37 -203l-128 -27q46 -74 153 -74h116v-206h-78q-102 0 -173.5 76t-89.5 189q-326 -75 -459 -192.5zM603 1029l-165 165l165 165l165 -165z" />
    <glyph glyph-name="uniFEA7" unicode="&#x62e;" horiz-adv-x="1462" arabic-form="initial" 
d="M-180 555h306q138 0 294.5 40.5t442.5 143.5q-59 29 -182 109q-107 68 -174 68q-84 0 -209 -100q50 272 269 272q94 0 212 -84l217 -150q43 -29 152 -65.5t248 -41.5l-72 -195q-372 0 -519 -46l-286 -88q-224 -69 -471 -69q-88 0 -150.5 60.5t-77.5 145.5zM503 1246
l-165 165l165 165l165 -165z" />
    <glyph glyph-name="uniFEA8" unicode="&#x62e;" horiz-adv-x="1462" arabic-form="medial" 
d="M-180 555h306q138 0 294.5 40.5t442.5 143.5q-59 29 -182 109q-107 68 -174 68q-84 0 -209 -100q50 272 269 272q94 0 212 -84l217 -150q43 -29 152 -65.5t248 -41.5l-72 -195q-372 0 -519 -46l-286 -88q-224 -69 -471 -69q-88 0 -150.5 60.5t-77.5 145.5zM503 1246
l-165 165l165 165l165 -165z" />
    <glyph glyph-name="uniFEAA" unicode="&#x62f;" horiz-adv-x="897" arabic-form="final" 
d="M513 1014l77 209q159 -194 187 -284.5t28 -174.5q0 -168 -30 -267t-163.5 -136.5t-253.5 -37.5q-134 0 -178.5 39.5t-44.5 126.5q0 169 25 169q14 0 17 -27q9 -79 198 -79q102 0 212 27t122.5 43.5t12.5 33.5q0 87 -209 358z" />
    <glyph glyph-name="uniFEAC" unicode="&#x630;" horiz-adv-x="897" arabic-form="final" 
d="M513 1014l77 209q159 -194 187 -284.5t28 -174.5q0 -168 -30 -267t-163.5 -136.5t-253.5 -37.5q-134 0 -178.5 39.5t-44.5 126.5q0 169 25 169q14 0 17 -27q9 -79 198 -79q102 0 212 27t122.5 43.5t12.5 33.5q0 87 -209 358zM429 1320l-165 165l165 165l165 -165z" />
    <glyph glyph-name="uniFEAE" unicode="&#x631;" horiz-adv-x="777" arabic-form="final" 
d="M447 630l86 195q189 -223 189 -407q0 -316 -148 -506.5t-408 -190.5q-49 0 -126 43l-160 89q-27 15 -27 22q0 8 96 13q283 10 486.5 127.5t203.5 299.5q0 26 -22.5 79.5t-169.5 235.5z" />
    <glyph glyph-name="uniFEB0" unicode="&#x632;" horiz-adv-x="805" arabic-form="final" 
d="M447 630l86 195q189 -223 189 -407q0 -316 -148 -506.5t-408 -190.5q-49 0 -126 43l-160 89q-27 15 -27 22q0 8 96 13q283 10 486.5 127.5t203.5 299.5q0 26 -22.5 79.5t-169.5 235.5zM392 1068l-165 165l165 165l165 -165z" />
    <glyph glyph-name="uniFEB2" unicode="&#x633;" horiz-adv-x="1881" arabic-form="final" 
d="M846 638l106 152q78 -107 117 -229q86 -7 147.5 5.5t91 34t76.5 94.5q33 52 49 52q9 0 9 -8q0 -5 -17 -48t-17 -70q0 -29 47.5 -49t106.5 -20q57 0 106 40q-3 72 -43 184l124 123q4 4 8 4q19 0 38.5 -72t19.5 -118q0 -166 -112 -265t-224 -99q-126 0 -172 97
q-103 -103 -244 -97q2 -26 -52 -175t-216 -226.5t-316 -77.5q-163 0 -265 91t-102 248q0 149 85.5 322t120.5 173q10 0 10 -11t-58 -149q-58 -137 -58 -229q0 -252 300 -252q162 0 308 64.5t146 184.5q0 64 -120 326z" />
    <glyph glyph-name="uniFEB3" unicode="&#x633;" horiz-adv-x="1284" arabic-form="initial" 
d="M-183 555h206q193 0 251 133q21 45 41 45t21 -45q5 -84 48 -105.5t106 -21.5q143 0 254 165q29 42 54 42q19 0 19 -16q0 -11 -18 -56q-19 -44 -19 -69q0 -55 154 -55q86 0 138 46q-13 66 -52 169l118 124q4 4 9 4q17 0 37 -68.5t20 -127.5q0 -145 -98 -253.5t-237 -108.5
q-123 0 -173 95q-93 -98 -194 -98q-106 0 -154 19.5t-76 84.5q-96 -109 -241 -109q-66 0 -127.5 62.5t-86.5 143.5z" />
    <glyph glyph-name="uniFEB4" unicode="&#x633;" horiz-adv-x="1284" arabic-form="medial" 
d="M-183 555h206q193 0 251 133q21 45 41 45t21 -45q5 -84 48 -105.5t106 -21.5q143 0 254 165q29 42 54 42q19 0 19 -16q0 -11 -18 -56q-19 -44 -19 -69q0 -55 154 -55q86 0 138 46q-13 66 -52 169l118 124q4 4 9 4q17 0 37 -68.5t20 -127.5q0 -145 -98 -253.5t-237 -108.5
q-123 0 -173 95q-93 -98 -194 -98q-106 0 -154 19.5t-76 84.5q-96 -109 -241 -109q-66 0 -127.5 62.5t-86.5 143.5z" />
    <glyph glyph-name="uniFEB6" unicode="&#x634;" horiz-adv-x="1881" arabic-form="final" 
d="M846 638l106 152q78 -107 117 -229q86 -7 147.5 5.5t91 34t76.5 94.5q33 52 49 52q9 0 9 -8q0 -5 -17 -48t-17 -70q0 -29 47.5 -49t106.5 -20q57 0 106 40q-3 72 -43 184l124 123q4 4 8 4q19 0 38.5 -72t19.5 -118q0 -166 -112 -265t-224 -99q-126 0 -172 97
q-103 -103 -244 -97q2 -26 -52 -175t-216 -226.5t-316 -77.5q-163 0 -265 91t-102 248q0 149 85.5 322t120.5 173q10 0 10 -11t-58 -149q-58 -137 -58 -229q0 -252 300 -252q162 0 308 64.5t146 184.5q0 64 -120 326zM1293 1001l-142 142l142 142l142 -142zM1579 1001
l-142 142l142 142l142 -142zM1436 1266l-142 142l142 142l142 -142z" />
    <glyph glyph-name="uniFEB7" unicode="&#x634;" horiz-adv-x="1284" arabic-form="initial" 
d="M-183 555h206q193 0 251 133q21 45 41 45t21 -45q5 -84 48 -105.5t106 -21.5q143 0 254 165q29 42 54 42q19 0 19 -16q0 -11 -18 -56q-19 -44 -19 -69q0 -55 154 -55q86 0 138 46q-13 66 -52 169l118 124q4 4 9 4q17 0 37 -68.5t20 -127.5q0 -145 -98 -253.5t-237 -108.5
q-123 0 -173 95q-93 -98 -194 -98q-106 0 -154 19.5t-76 84.5q-96 -109 -241 -109q-66 0 -127.5 62.5t-86.5 143.5zM664 1001l-142 142l142 142l142 -142zM950 1001l-142 142l142 142l142 -142zM807 1266l-142 142l142 142l142 -142z" />
    <glyph glyph-name="uniFEB8" unicode="&#x634;" horiz-adv-x="1284" arabic-form="medial" 
d="M-183 555h206q193 0 251 133q21 45 41 45t21 -45q5 -84 48 -105.5t106 -21.5q143 0 254 165q29 42 54 42q19 0 19 -16q0 -11 -18 -56q-19 -44 -19 -69q0 -55 154 -55q86 0 138 46q-13 66 -52 169l118 124q4 4 9 4q17 0 37 -68.5t20 -127.5q0 -145 -98 -253.5t-237 -108.5
q-123 0 -173 95q-93 -98 -194 -98q-106 0 -154 19.5t-76 84.5q-96 -109 -241 -109q-66 0 -127.5 62.5t-86.5 143.5zM664 1001l-142 142l142 142l142 -142zM950 1001l-142 142l142 142l142 -142zM807 1266l-142 142l142 142l142 -142z" />
    <glyph glyph-name="uniFEBA" unicode="&#x635;" horiz-adv-x="2210" arabic-form="final" 
d="M1092 555h172q167 208 339 332t303 124q88 0 172 -63t84 -178q0 -58 -55.5 -177t-156 -165.5t-203.5 -62.5t-409 -16q-133 0 -183.5 9.5t-88.5 50.5q-48 -249 -225.5 -346.5t-356.5 -97.5q-139 0 -248.5 80.5t-109.5 257.5q0 174 92 335t111 161q10 0 10 -10
q0 -9 -61 -147q-60 -139 -60 -233q0 -97 65.5 -174.5t235.5 -77.5q163 0 310.5 65t147.5 184q0 65 -120 327l106 149q58 -68 95.5 -169t33.5 -158zM1353 555l185 1q164 1 328 25.5t164 51.5q0 218 -218 218q-89 0 -218.5 -85t-240.5 -211z" />
    <glyph glyph-name="uniFEBB" unicode="&#x635;" horiz-adv-x="1494" arabic-form="initial" 
d="M-180 555h251q155 0 239 106q30 38 45 38q10 0 15 -38q12 -106 183 -106q360 453 637 453q90 0 174 -61t84 -174q0 -90 -76 -212.5t-227 -168.5t-523 -46q-136 0 -204.5 21t-102.5 108q-67 -126 -284 -126q-74 0 -134.5 65t-76.5 141zM635 557h184q144 0 318.5 23.5
t174.5 54.5q0 217 -219 217q-88 0 -215.5 -83t-242.5 -212z" />
    <glyph glyph-name="uniFEBC" unicode="&#x635;" horiz-adv-x="1494" arabic-form="medial" 
d="M-180 555h251q155 0 239 106q30 38 45 38q10 0 15 -38q12 -106 183 -106q360 453 637 453q90 0 174 -61t84 -174q0 -90 -76 -212.5t-227 -168.5t-523 -46q-136 0 -204.5 21t-102.5 108q-67 -126 -284 -126q-74 0 -134.5 65t-76.5 141zM635 557h184q144 0 318.5 23.5
t174.5 54.5q0 217 -219 217q-88 0 -215.5 -83t-242.5 -212z" />
    <glyph glyph-name="uniFEBE" unicode="&#x636;" horiz-adv-x="2210" arabic-form="final" 
d="M1092 555h172q167 208 339 332t303 124q88 0 172 -63t84 -178q0 -58 -55.5 -177t-156 -165.5t-203.5 -62.5t-409 -16q-133 0 -183.5 9.5t-88.5 50.5q-48 -249 -225.5 -346.5t-356.5 -97.5q-139 0 -248.5 80.5t-109.5 257.5q0 174 92 335t111 161q10 0 10 -10
q0 -9 -61 -147q-60 -139 -60 -233q0 -97 65.5 -174.5t235.5 -77.5q163 0 310.5 65t147.5 184q0 65 -120 327l106 149q58 -68 95.5 -169t33.5 -158zM1353 555l185 1q164 1 328 25.5t164 51.5q0 218 -218 218q-89 0 -218.5 -85t-240.5 -211zM1627 1143l-165 165l165 165
l165 -165z" />
    <glyph glyph-name="uniFEBF" unicode="&#x636;" horiz-adv-x="1494" arabic-form="initial" 
d="M-180 555h251q155 0 239 106q30 38 45 38q10 0 15 -38q12 -106 183 -106q360 453 637 453q90 0 174 -61t84 -174q0 -90 -76 -212.5t-227 -168.5t-523 -46q-136 0 -204.5 21t-102.5 108q-67 -126 -284 -126q-74 0 -134.5 65t-76.5 141zM635 557h184q144 0 318.5 23.5
t174.5 54.5q0 217 -219 217q-88 0 -215.5 -83t-242.5 -212zM888 1146l-165 165l165 165l165 -165z" />
    <glyph glyph-name="uniFEC0" unicode="&#x636;" horiz-adv-x="1494" arabic-form="medial" 
d="M-180 555h251q155 0 239 106q30 38 45 38q10 0 15 -38q12 -106 183 -106q360 453 637 453q90 0 174 -61t84 -174q0 -90 -76 -212.5t-227 -168.5t-523 -46q-136 0 -204.5 21t-102.5 108q-67 -126 -284 -126q-74 0 -134.5 65t-76.5 141zM635 557h184q144 0 318.5 23.5
t174.5 54.5q0 217 -219 217q-88 0 -215.5 -83t-242.5 -212zM888 1146l-165 165l165 165l165 -165z" />
    <glyph glyph-name="uniFEC2" unicode="&#x637;" horiz-adv-x="1334" arabic-form="final" 
d="M520 1650l132 -135q-69 -82 -69 -229q0 -73 7 -162t7 -176q0 -117 -29 -201q244 235 451 235q84 0 171 -62.5t87 -157.5q0 -106 -78.5 -220.5t-227.5 -153.5t-622 -39q-120 0 -173.5 51t-92.5 155h308q91 76 91 404q0 402 -63 524zM502 555h238q124 0 263 17.5t139 54.5
q0 80 -57 142t-152 62q-96 0 -217.5 -79t-213.5 -197z" />
    <glyph glyph-name="uniFEC3" unicode="&#x637;" horiz-adv-x="1164" arabic-form="initial" 
d="M361 1650l132 -135q-69 -82 -69 -229q0 -73 7 -164t7 -174q0 -117 -28 -201q244 235 453 235q83 0 169 -62.5t86 -157.5q0 -82 -62 -195.5t-225.5 -165.5t-707.5 -52q-110 0 -149.5 16.5t-81 63t-72.5 126.5h415q89 65 89 404q0 402 -63 524zM344 555h241
q120 0 257.5 21.5t137.5 63.5q0 77 -58 134t-149 57q-93 0 -213 -76.5t-216 -199.5z" />
    <glyph glyph-name="uniFEC4" unicode="&#x637;" horiz-adv-x="1164" arabic-form="medial" 
d="M361 1650l132 -135q-69 -82 -69 -229q0 -73 7 -164t7 -174q0 -117 -28 -201q244 235 453 235q83 0 169 -62.5t86 -157.5q0 -82 -62 -195.5t-225.5 -165.5t-707.5 -52q-110 0 -149.5 16.5t-81 63t-72.5 126.5h415q89 65 89 404q0 402 -63 524zM344 555h241
q120 0 257.5 21.5t137.5 63.5q0 77 -58 134t-149 57q-93 0 -213 -76.5t-216 -199.5z" />
    <glyph glyph-name="uniFEC6" unicode="&#x638;" horiz-adv-x="1334" arabic-form="final" 
d="M520 1650l132 -135q-69 -82 -69 -229q0 -73 7 -162t7 -176q0 -117 -29 -201q244 235 451 235q84 0 171 -62.5t87 -157.5q0 -106 -78.5 -220.5t-227.5 -153.5t-622 -39q-120 0 -173.5 51t-92.5 155h308q91 76 91 404q0 402 -63 524zM502 555h238q124 0 263 17.5t139 54.5
q0 80 -57 142t-152 62q-96 0 -217.5 -79t-213.5 -197zM931 1160l-165 165l165 165l165 -165z" />
    <glyph glyph-name="uniFEC7" unicode="&#x638;" horiz-adv-x="1164" arabic-form="initial" 
d="M361 1650l132 -135q-69 -82 -69 -229q0 -73 7 -164t7 -174q0 -117 -28 -201q244 235 453 235q83 0 169 -62.5t86 -157.5q0 -82 -62 -195.5t-225.5 -165.5t-707.5 -52q-110 0 -149.5 16.5t-81 63t-72.5 126.5h415q89 65 89 404q0 402 -63 524zM344 555h241
q120 0 257.5 21.5t137.5 63.5q0 77 -58 134t-149 57q-93 0 -213 -76.5t-216 -199.5zM758 1160l-165 165l165 165l165 -165z" />
    <glyph glyph-name="uniFEC8" unicode="&#x638;" horiz-adv-x="1164" arabic-form="medial" 
d="M361 1650l132 -135q-69 -82 -69 -229q0 -73 7 -164t7 -174q0 -117 -28 -201q244 235 453 235q83 0 169 -62.5t86 -157.5q0 -82 -62 -195.5t-225.5 -165.5t-707.5 -52q-110 0 -149.5 16.5t-81 63t-72.5 126.5h415q89 65 89 404q0 402 -63 524zM344 555h241
q120 0 257.5 21.5t137.5 63.5q0 77 -58 134t-149 57q-93 0 -213 -76.5t-216 -199.5zM758 1160l-165 165l165 165l165 -165z" />
    <glyph glyph-name="uniFECA" unicode="&#x639;" horiz-adv-x="1224" arabic-form="final" 
d="M1252 349h-42q-170 0 -257.5 36.5t-215.5 196.5q-174 -59 -292.5 -185.5t-118.5 -262.5q0 -164 134.5 -242t422.5 -78q349 0 565 126q-80 -159 -232 -238.5t-376 -79.5q-327 0 -472 131.5t-145 318.5q0 142 108.5 299t316.5 306q-63 67 -189 71l80 215q159 46 232 46
q99 0 188.5 -48.5t89.5 -128.5q0 -122 -158 -178q112 -99 293 -99h68v-206z" />
    <glyph glyph-name="uniFECB" unicode="&#x639;" horiz-adv-x="1046" arabic-form="initial" 
d="M-180 555h208q168 0 307 63q-80 92 -80 141q0 101 101 278.5t269 177.5q101 0 181.5 -59.5t99.5 -204.5q-220 83 -330 83q-78 0 -152 -36.5t-74 -98.5q0 -71 107 -130t222 -59q109 0 307 77l-29 -203q-55 -14 -490 -151q-268 -84 -436 -84q-62 0 -130.5 53.5t-80.5 152.5
z" />
    <glyph glyph-name="uniFECC" unicode="&#x639;" horiz-adv-x="866" arabic-form="medial" 
d="M894 555v-206h-23q-207 0 -364 229q-145 -127 -238.5 -178t-231.5 -51q-78 0 -142 57t-75 149h274q210 0 330 121q-104 68 -215 68l83 218q111 46 230 46q108 0 194.5 -41.5t86.5 -115.5q0 -92 -164 -190q81 -106 212 -106h43z" />
    <glyph glyph-name="uniFECE" unicode="&#x63a;" horiz-adv-x="1224" arabic-form="final" 
d="M1252 349h-42q-170 0 -257.5 36.5t-215.5 196.5q-174 -59 -292.5 -185.5t-118.5 -262.5q0 -164 134.5 -242t422.5 -78q349 0 565 126q-80 -159 -232 -238.5t-376 -79.5q-327 0 -472 131.5t-145 318.5q0 142 108.5 299t316.5 306q-63 67 -189 71l80 215q159 46 232 46
q99 0 188.5 -48.5t89.5 -128.5q0 -122 -158 -178q112 -99 293 -99h68v-206zM763 1193l-165 165l165 165l165 -165z" />
    <glyph glyph-name="uniFECF" unicode="&#x63a;" horiz-adv-x="1046" arabic-form="initial" 
d="M-180 555h208q168 0 307 63q-80 92 -80 141q0 101 101 278.5t269 177.5q101 0 181.5 -59.5t99.5 -204.5q-220 83 -330 83q-78 0 -152 -36.5t-74 -98.5q0 -71 107 -130t222 -59q109 0 307 77l-29 -203q-55 -14 -490 -151q-268 -84 -436 -84q-62 0 -130.5 53.5t-80.5 152.5
zM553 1318l-165 165l165 165l165 -165z" />
    <glyph glyph-name="uniFED0" unicode="&#x63a;" horiz-adv-x="866" arabic-form="medial" 
d="M894 555v-206h-23q-207 0 -364 229q-145 -127 -238.5 -178t-231.5 -51q-78 0 -142 57t-75 149h274q210 0 330 121q-104 68 -215 68l83 218q111 46 230 46q108 0 194.5 -41.5t86.5 -115.5q0 -92 -164 -190q81 -106 212 -106h43zM521 1193l-165 165l165 165l165 -165z" />
    <glyph glyph-name="uniFED2" unicode="&#x641;" horiz-adv-x="1912" arabic-form="final" 
d="M1539 1320l-165 165l165 165l165 -165zM1940 555v-206q-187 0 -326 94q-163 -208 -809 -208q-439 0 -559 100.5t-120 259.5q0 102 55.5 209t84.5 107q15 0 15 -13q0 -5 -20 -68t-20 -111q0 -143 127 -210.5t420 -67.5q261 0 476.5 24t246.5 64q-99 94 -118.5 126.5
t-19.5 63.5q0 99 118 261.5t212 162.5q59 0 91 -60.5t32 -143.5q0 -161 -103 -349q61 -35 172 -35h45zM1625 641q101 122 101 195q0 45 -26 80t-60 35q-63 0 -102 -52.5t-39 -105.5q0 -62 126 -152z" />
    <glyph glyph-name="uniFED3" unicode="&#x641;" horiz-adv-x="745" arabic-form="initial" 
d="M-183 555h467q123 0 217 31.5t94 73.5q0 50 -39 156q-15 -92 -29 -109q-49 -46 -177 -46q-170 0 -170 106q0 125 73 296.5t177 171.5q96 0 175.5 -159.5t79.5 -276.5q0 -276 -105 -363t-537 -87q-53 0 -132 56t-94 150zM527 891q-33 103 -64 137.5t-79 34.5
q-78 0 -126 -187q56 -34 135 -34q82 0 134 49zM426 1320l-165 165l165 165l165 -165z" />
    <glyph glyph-name="uniFED4" unicode="&#x641;" horiz-adv-x="777" arabic-form="medial" 
d="M-180 555h263q157 0 215 37q-109 109 -109 164q0 93 119 250t219 157q60 0 94.5 -66.5t34.5 -174.5q0 -186 -117 -335q33 -32 266 -32v-206q-213 0 -378 135q-178 -135 -396 -135q-61 0 -126.5 50.5t-84.5 155.5zM421 661q135 111 135 157q0 66 -26 119.5t-69 53.5
t-93 -68.5t-50 -100.5q0 -58 103 -161zM418 1299l-165 165l165 165l165 -165z" />
    <glyph glyph-name="uniFED6" unicode="&#x642;" horiz-adv-x="1224" arabic-form="final" 
d="M1032 558q-26 115 -69 181t-89 66q-31 0 -54 -56.5t-23 -138.5q0 -33 24.5 -42.5t210.5 -9.5zM1141 349q-5 -228 -166.5 -363.5t-432.5 -135.5q-166 0 -288 91t-122 294q0 145 62 304.5t90 159.5q12 0 12 -15q0 -9 -40 -129q-41 -125 -41 -220q0 -278 361 -278
q157 0 316.5 70.5t159.5 149.5q0 31 -9 77q-192 0 -260.5 28.5t-68.5 155.5q0 168 55.5 307.5t130.5 139.5q93 0 167 -146t74 -284h111v-206h-111zM709 1155l-142 142l142 142l142 -142zM995 1155l-142 142l142 142l142 -142z" />
    <glyph glyph-name="uniFED7" unicode="&#x642;" horiz-adv-x="805" arabic-form="initial" 
d="M-183 555h501q159 0 235 38t76 67q0 50 -39 156q-2 -55 -20 -89.5t-67.5 -50t-118.5 -15.5q-169 0 -169 106q0 115 73.5 278.5t181.5 163.5q92 0 172 -143t80 -267q0 -292 -121 -371t-558 -79q-53 0 -132 56t-94 150zM565 891q-35 98 -68 132t-84 34q-78 0 -118 -181
q53 -34 132 -34q80 0 138 49zM290 1311l-142 142l142 142l142 -142zM576 1311l-142 142l142 142l142 -142z" />
    <glyph glyph-name="uniFED8" unicode="&#x642;" horiz-adv-x="777" arabic-form="medial" 
d="M-180 555h263q157 0 215 37q-109 109 -109 164q0 93 119 250t219 157q60 0 94.5 -66.5t34.5 -174.5q0 -186 -117 -335q33 -32 266 -32v-206q-213 0 -378 135q-178 -135 -396 -135q-61 0 -126.5 50.5t-84.5 155.5zM421 661q135 111 135 157q0 66 -26 119.5t-69 53.5
t-93 -68.5t-50 -100.5q0 -58 103 -161zM276 1285l-142 142l142 142l142 -142zM562 1285l-142 142l142 142l142 -142z" />
    <glyph glyph-name="uniFEDA" unicode="&#x643;" horiz-adv-x="1433" arabic-form="final" 
d="M1215 1400q-19 44 -51 81q26 64 92 169l137 -126q-43 -77 -43 -238q0 -61 13 -228q13 -169 13 -282q0 -291 -135.5 -383t-515.5 -92q-593 0 -593 297q0 57 14 137t32 80q14 0 14 -27q0 -162 150 -217.5t392 -55.5q542 0 542 129q0 76 -19.5 352.5t-41.5 403.5zM760 1427
q-10 -81 -38 -112q-12 20 -34 20q-24 0 -48 -25t-24 -55q0 -40 79 -50q97 -14 119.5 -39.5t22.5 -56.5q0 -34 -38 -108t-63 -88t-85 -14q-186 0 -186 28q0 8 14.5 14t178.5 51q96 26 96 53q0 28 -81 38q-88 11 -107 26t-19 45q0 74 62.5 180.5t115.5 106.5q24 0 35 -14z" />
    <glyph glyph-name="uniFEDB" unicode="&#x643;" horiz-adv-x="1015" arabic-form="initial" 
d="M-180 555h696q281 0 281 69q0 122 -404 316q-215 104 -215 114q0 47 24.5 113.5t50.5 96.5t97 75.5t285 139t443 171.5l-83 -158l-376 -160q-207 -88 -244 -108t-37 -32q0 -23 165 -115q182 -99 251 -159.5t97.5 -113.5t28.5 -163q0 -176 -86.5 -234t-248.5 -58h-522
q-54 0 -111.5 54t-91.5 152z" />
    <glyph glyph-name="uniFEDC" unicode="&#x643;" horiz-adv-x="1104" arabic-form="medial" 
d="M1132 349h-109q-120 0 -186 97q-94 -97 -293 -97h-521q-54 0 -111.5 54t-91.5 152h696q161 0 221 16.5t60 52.5q0 46 -87 126.5t-316 189.5q-217 103 -217 119q0 58 29.5 121t77 117.5t234.5 137t560 215.5l-84 -158l-375 -160q-202 -86 -241.5 -107t-39.5 -33
q0 -24 165 -116q199 -109 288.5 -194.5t89.5 -232.5q0 -49 -7 -94h258v-206z" />
    <glyph glyph-name="uniFEDE" unicode="&#x644;" horiz-adv-x="1256" arabic-form="final" 
d="M1284 555v-206q-70 0 -109.5 15.5t-96.5 93.5q0 -242 -56.5 -349.5t-182 -158.5t-309.5 -51q-427 0 -427 315q0 150 58 289.5t92 139.5q15 0 15 -21q0 -18 -13 -38q-65 -104 -65 -235q0 -243 357 -243q171 0 300.5 54t129.5 143q0 14 -27 420q-27 395 -27 596
q0 93 3.5 140.5t34.5 96.5t88 94h16q-14 -140 -14 -402q0 -311 13.5 -467.5t38 -191t181.5 -34.5z" />
    <glyph glyph-name="uniFEDF" unicode="&#x644;" horiz-adv-x="567" arabic-form="initial" 
d="M492 1469q-54 -56 -85 -116q32 -378 32 -574q0 -265 -107 -347t-297 -82q-77 0 -142.5 65.5t-75.5 140.5h332q110 0 144.5 11t41.5 35.5t0 127.5l-55 646q-6 70 -33 93l117 181q49 -111 128 -181z" />
    <glyph glyph-name="uniFEE0" unicode="&#x644;" horiz-adv-x="567" arabic-form="medial" 
d="M492 1469q-54 -56 -85 -116q32 -378 32 -574q0 -265 -107 -347t-297 -82q-77 0 -142.5 65.5t-75.5 140.5h332q110 0 144.5 11t41.5 35.5t0 127.5l-55 646q-6 70 -33 93l117 181q49 -111 128 -181z" />
    <glyph glyph-name="uniFEE2" unicode="&#x645;" horiz-adv-x="777" arabic-form="final" 
d="M739 558l-160 -186q-90 28 -172 28q-112 0 -145.5 -28.5t-33.5 -102.5q0 -40 17 -187q16 -151 16 -194q0 -41 -23 -130t-72 -136q-5 129 -37 434q-12 116 -12 143q0 214 92 305q-46 91 -46 143q0 53 85.5 185.5t161.5 132.5t174 -113t155 -294zM252 544q50 48 192 48
q78 0 78 26q0 35 -50 101t-105 66q-42 0 -83 -66.5t-41 -128.5q0 -26 9 -46z" />
    <glyph glyph-name="uniFEE3" unicode="&#x645;" horiz-adv-x="805" arabic-form="initial" 
d="M-180 555h231q132 0 247 58q84 361 226 361q63 0 133.5 -74t70.5 -236q0 -143 -27 -197t-115 -119t-110 -65q-15 0 -56 41q-59 61 -139 111q-34 -38 -108 -62t-127 -24q-75 0 -146 68.5t-80 137.5zM367 624q175 -106 209 -169q23 81 23 112q0 102 -51.5 158.5t-94.5 56.5
q-39 0 -86 -158z" />
    <glyph glyph-name="uniFEE4" unicode="&#x645;" horiz-adv-x="805" arabic-form="medial" 
d="M-180 555h231q132 0 247 58q84 361 226 361q63 0 133.5 -74t70.5 -236q0 -143 -27 -197t-115 -119t-110 -65q-15 0 -56 41q-59 61 -139 111q-34 -38 -108 -62t-127 -24q-75 0 -146 68.5t-80 137.5zM367 624q175 -106 209 -169q23 81 23 112q0 102 -51.5 158.5t-94.5 56.5
q-39 0 -86 -158z" />
    <glyph glyph-name="uniFEE6" unicode="&#x646;" horiz-adv-x="1135" arabic-form="final" 
d="M848 730l115 169q123 -187 123 -329q0 -72 -59.5 -262.5t-230.5 -269.5t-320 -79q-157 0 -258 91t-101 251q0 166 91.5 332t112.5 166q9 0 9 -10q0 -8 -60 -148q-61 -140 -61 -235q0 -240 301 -240q182 0 322 60.5t140 179.5q0 57 -124 324zM546 951l-165 165l165 165
l165 -165z" />
    <glyph glyph-name="uniFEE7" unicode="&#x646;" horiz-adv-x="656" arabic-form="initial" 
d="M-180 555h363q110 0 198.5 17t88.5 46q0 22 -106 244l123 152q98 -193 98 -301q0 -85 -67.5 -194.5t-183.5 -139.5t-291 -30q-62 0 -135 59t-88 147zM354 1217l-165 165l165 165l165 -165z" />
    <glyph glyph-name="uniFEE8" unicode="&#x646;" horiz-adv-x="656" arabic-form="medial" 
d="M-180 555h363q110 0 198.5 17t88.5 46q0 22 -106 244l123 152q98 -193 98 -301q0 -85 -67.5 -194.5t-183.5 -139.5t-291 -30q-62 0 -135 59t-88 147zM354 1217l-165 165l165 165l165 -165z" />
    <glyph glyph-name="uniFEEA" unicode="&#x647;" horiz-adv-x="897" arabic-form="final" 
d="M636 1292q17 -144 32 -504q6 -123 34 -177t112 -56h111v-206h-114q-111 0 -167 43t-74 221l-134 -112q-194 19 -226.5 31t-32.5 29q0 31 9 57l72 212q23 68 95 125t194 102q-3 42 -25 92zM547 1000l-51 -92q-195 -67 -201 -192q69 -20 166 -20q18 0 104 5v181
q0 54 -9 118h-9z" />
    <glyph glyph-name="uniFEEB" unicode="&#x647;" horiz-adv-x="986" arabic-form="initial" 
d="M528 652q42 44 42 121q0 72 -8.5 103.5t-45.5 31.5q-56 0 -121 -74.5t-65 -105.5q0 -55 72 -55q57 0 126 -21zM820 541q16 38 16 79q0 130 -157 248q-4 -166 -89 -235q99 -30 230 -92zM791 349q-185 104 -311 130q-72 -127 -434 -127q-137 0 -226 206h412q-1 8 -1.5 16.5
t-0.5 17.5q0 113 68 224t181 152q-55 37 -115 37q-47 0 -80 -57l-32 14q44 127 83.5 171t97.5 44q120 0 318 -159t198 -340q0 -62 -39.5 -144t-118.5 -185z" />
    <glyph glyph-name="uniFEEC" unicode="&#x647;" horiz-adv-x="1104" arabic-form="medial" 
d="M1132 555v-206q-286 0 -364 51q46 -82 46 -148q0 -108 -73.5 -236t-164.5 -128q-86 0 -142 92t-56 212q0 127 43 257q-196 -100 -404 -100q-51 0 -116 65t-81 141h197q197 0 347 40q305 473 424 473q78 0 78 -140q0 -73 -52.5 -188.5t-168.5 -198.5q36 -14 72 -14
q27 0 91 14q62 14 101 14h223zM473 618q292 82 292 169q0 89 -80 89q-54 0 -212 -258zM481 386q-20 -62 -20 -116q0 -176 155 -176q95 0 95 70t-62.5 138.5t-167.5 83.5z" />
    <glyph glyph-name="uniFEEE" unicode="&#x648;" horiz-adv-x="777" arabic-form="final" 
d="M593 555q-3 97 -49.5 166t-99.5 69q-86 0 -86 -132q0 -45 19.5 -70t36.5 -29t179 -4zM708 349q-19 -230 -159 -441.5t-380 -211.5q-68 0 -156.5 36.5t-129.5 89.5q293 0 520.5 170.5t227.5 323.5q0 17 -2 33q-124 1 -201.5 16.5t-110.5 68.5t-33 147q0 151 55 283.5
t125 132.5q109 0 181 -133.5t72 -308.5h95v-206h-104z" />
    <glyph glyph-name="uniFEF0" unicode="&#x649;" horiz-adv-x="1344" arabic-form="final" 
d="M1372 349h-321q-138 0 -138 -43q0 -10 96 -34q274 -67 274 -149q0 -39 -70.5 -173t-281.5 -203t-390 -69q-195 0 -312.5 101t-117.5 311q0 148 73.5 303.5t112.5 155.5q10 0 10 -9q0 -1 -57 -126q-56 -126 -56 -222q0 -131 110.5 -215t287.5 -84q143 0 349.5 53t206.5 94
q0 27 -174 73q-88 23 -131.5 47.5t-43.5 51.5q0 108 84 192.5t138 117.5t245 33h106v-206z" />
    <glyph glyph-name="uniFEF2" unicode="&#x64a;" horiz-adv-x="1344" arabic-form="final" 
d="M1372 349h-320q-138 0 -138 -28q0 -14 86 -14q284 0 284 -94t-107.5 -167.5t-250.5 -100.5t-324 -27q-285 0 -381 75.5t-96 213.5q0 119 64.5 230.5t108.5 111.5q10 0 10 -9q0 -3 -8 -15q-97 -142 -97 -253q0 -68 66.5 -108.5t323.5 -40.5q328 0 442 10t114 39
q0 25 -177 25q-85 0 -128.5 10.5t-43.5 44.5q0 68 89 158t144 117.5t234 27.5h105v-206zM588 -385l-125 122l125 122l125 -122zM840 -385l-125 122l125 122l125 -122z" />
    <glyph glyph-name="uniFEF3" unicode="&#x64a;" horiz-adv-x="688" arabic-form="initial" 
d="M-180 555h423q80 0 170 17.5t90 52.5q0 22 -102 237l123 152q98 -193 98 -301q0 -87 -68.5 -197t-192 -138.5t-321.5 -28.5q-41 0 -113.5 56t-106.5 150zM232 -38l-142 142l142 142l142 -142zM518 -38l-142 142l142 142l142 -142z" />
    <glyph glyph-name="uniFEF4" unicode="&#x64a;" horiz-adv-x="688" arabic-form="medial" 
d="M-180 555h423q80 0 170 17.5t90 52.5q0 22 -102 237l123 152q98 -193 98 -301q0 -87 -68.5 -197t-192 -138.5t-321.5 -28.5q-41 0 -113.5 56t-106.5 150zM232 -38l-142 142l142 142l142 -142zM518 -38l-142 142l142 142l142 -142z" />
    <glyph glyph-name="uniFE70" unicode="&#xfe70;" horiz-adv-x="512" arabic-form="isolated" 
d="M166 1521l372 129v-79l-372 -129v79zM166 1348l372 129v-79l-372 -129v79z" />
    <glyph glyph-name="uniFE71" unicode="&#xfe71;" horiz-adv-x="512" arabic-form="medial" 
d="M547 349h-516q-67 0 -128.5 65t-82.5 141h727v-206zM166 1521l372 129v-79l-372 -129v79zM166 1348l372 129v-79l-372 -129v79z" />
    <glyph glyph-name="uniFE72" unicode="&#xfe72;" horiz-adv-x="512" arabic-form="isolated" 
d="M101 1065v17q6 2 43 26q35 59 35 138q0 51 -32 51q-13 0 -42 -25q-29 -26 -35 -26q-11 0 -11 10q0 25 49 75t94 50q60 0 60 -70q0 -67 -60 -174q113 47 189 155q-83 47 -83 129q0 62 63.5 145.5t119.5 83.5q34 0 56 -38.5t22 -90.5q0 -81 -52 -163q43 -20 53 -31.5
t10 -34.5l-3 -69q-45 0 -143 46q-58 -89 -145 -152t-145 -63q-27 0 -43 11zM471 1384q26 44 26 87q0 82 -60 82q-51 0 -51 -65q0 -76 85 -104z" />
    <glyph glyph-name="uniFE74" unicode="&#xfe74;" horiz-adv-x="512" arabic-form="isolated" 
d="M157 -22l372 129v-79l-372 -129v79zM157 -195l372 129v-79l-372 -129v79z" />
    <glyph glyph-name="uniFE76" unicode="&#xfe76;" horiz-adv-x="512" arabic-form="isolated" 
d="M166 1521l372 129v-79l-372 -129v79z" />
    <glyph glyph-name="uniFE77" unicode="&#xfe77;" horiz-adv-x="512" arabic-form="medial" 
d="M547 349h-516q-67 0 -128.5 65t-82.5 141h727v-206zM166 1521l372 129v-79l-372 -129v79z" />
    <glyph glyph-name="uniFE78" unicode="&#xfe78;" horiz-adv-x="512" arabic-form="isolated" 
d="M107 1071v17q201 92 278 201q-89 56 -89 126q0 65 64 150t117 85q33 0 56.5 -42.5t23.5 -89.5q0 -63 -51 -161q52 -23 60 -33.5t8 -37.5v-69q-38 -2 -146 52q-160 -210 -278 -210q-20 0 -43 12zM463 1380q25 43 25 91q0 84 -57 84q-54 0 -54 -72q0 -85 86 -103z" />
    <glyph glyph-name="uniFE79" unicode="&#xfe79;" horiz-adv-x="512" arabic-form="medial" 
d="M547 349h-516q-67 0 -128.5 65t-82.5 141h727v-206zM107 1071v17q201 92 278 201q-89 56 -89 126q0 65 64 150t117 85q33 0 56.5 -42.5t23.5 -89.5q0 -63 -51 -161q52 -23 60 -33.5t8 -37.5v-69q-38 -2 -146 52q-160 -210 -278 -210q-20 0 -43 12zM463 1380q25 43 25 91
q0 84 -57 84q-54 0 -54 -72q0 -85 86 -103z" />
    <glyph glyph-name="uniFE7A" unicode="&#xfe7a;" horiz-adv-x="512" arabic-form="isolated" 
d="M157 -195l372 129v-79l-372 -129v79z" />
    <glyph glyph-name="uniFE7B" unicode="&#xfe7b;" horiz-adv-x="512" arabic-form="medial" 
d="M547 349h-516q-67 0 -128.5 65t-82.5 141h727v-206zM157 -195l372 129v-79l-372 -129v79z" />
    <glyph glyph-name="uniFE7C" unicode="&#xfe7c;" horiz-adv-x="512" arabic-form="isolated" 
d="M359 1371q-61 -120 -126 -120q-98 0 -98 132q0 118 47 118q13 0 13 -19l-4 -53q0 -40 37 -40q70 0 94 136q9 47 16 47q22 0 28 -50q8 -50 54 -50t57 89t27 89q41 0 41 -152q0 -83 -40 -127.5t-86 -44.5q-40 0 -60 45z" />
    <glyph glyph-name="uniFE7D" unicode="&#xfe7d;" horiz-adv-x="512" arabic-form="medial" 
d="M547 349h-516q-67 0 -128.5 65t-82.5 141h727v-206zM359 1371q-61 -120 -126 -120q-98 0 -98 132q0 118 47 118q13 0 13 -19l-4 -53q0 -40 37 -40q70 0 94 136q9 47 16 47q22 0 28 -50q8 -50 54 -50t57 89t27 89q41 0 41 -152q0 -83 -40 -127.5t-86 -44.5q-40 0 -60 45z
" />
    <glyph glyph-name="uniFE7E" unicode="&#xfe7e;" horiz-adv-x="512" arabic-form="isolated" 
d="M529 1452q0 -92 -72 -150.5t-146 -58.5q-59 0 -95.5 48t-36.5 118q0 95 49.5 168t137.5 73q79 0 121 -60t42 -138zM231 1452q0 -69 120 -69q106 0 106 37q0 27 -52.5 75.5t-102.5 48.5q-30 0 -50.5 -29t-20.5 -63z" />
    <glyph glyph-name="uniFE7F" unicode="&#xfe7f;" horiz-adv-x="512" arabic-form="medial" 
d="M547 349h-516q-67 0 -128.5 65t-82.5 141h727v-206zM529 1452q0 -92 -72 -150.5t-146 -58.5q-59 0 -95.5 48t-36.5 118q0 95 49.5 168t137.5 73q79 0 121 -60t42 -138zM231 1452q0 -69 120 -69q106 0 106 37q0 27 -52.5 75.5t-102.5 48.5q-30 0 -50.5 -29t-20.5 -63z" />
    <glyph glyph-name="uniFB66" unicode="&#x679;" horiz-adv-x="1820" arabic-form="isolated" 
d="M1545 885l123 140q95 -155 95 -255q0 -88 -76 -222.5t-140 -153t-225 -32t-296 -13.5h-180q-306 0 -506 60.5t-200 266.5q0 93 47 202.5t74 109.5q11 0 11 -8q0 -16 -19 -63q-12 -31 -12 -89q0 -111 115.5 -191t397.5 -82h261q131 0 330.5 15t247 32t47.5 54
q0 60 -95 229zM887 1133q94 88 182 88q39 0 76 -28.5t37 -67.5q0 -53 -43.5 -106t-139 -61.5t-215.5 -8.5q-48 0 -70.5 19.5t-43.5 74.5h131q35 32 35 164q0 167 -29 227l49 76l64 -63q-31 -32 -31 -97l4 -147q1 -33 -6 -70zM858 1043h92q25 0 95.5 6t70.5 21q0 34 -24 57
t-60 23q-79 0 -174 -107z" />
    <glyph glyph-name="uniFB67" unicode="&#x679;" horiz-adv-x="1820" arabic-form="final" 
d="M1545 885l123 140q95 -155 95 -255q0 -88 -76 -222.5t-140 -153t-225 -32t-296 -13.5h-180q-306 0 -506 60.5t-200 266.5q0 93 47 202.5t74 109.5q11 0 11 -8q0 -16 -19 -63q-12 -31 -12 -89q0 -111 115.5 -191t397.5 -82h261q131 0 330.5 15t247 32t47.5 54
q0 60 -95 229zM887 1133q94 88 182 88q39 0 76 -28.5t37 -67.5q0 -53 -43.5 -106t-139 -61.5t-215.5 -8.5q-48 0 -70.5 19.5t-43.5 74.5h131q35 32 35 164q0 167 -29 227l49 76l64 -63q-31 -32 -31 -97l4 -147q1 -33 -6 -70zM858 1043h92q25 0 95.5 6t70.5 21q0 34 -24 57
t-60 23q-79 0 -174 -107z" />
    <glyph glyph-name="uniFB68" unicode="&#x679;" horiz-adv-x="688" arabic-form="initial" 
d="M-180 555h363q110 0 198.5 17t88.5 46q0 22 -106 244l123 152q98 -193 98 -301q0 -85 -67.5 -194.5t-183.5 -139.5t-291 -30q-62 0 -135 59t-88 147zM312 1273q94 88 182 88q39 0 76 -28.5t37 -67.5q0 -53 -43.5 -106t-139 -61.5t-215.5 -8.5q-48 0 -70.5 19.5
t-43.5 74.5h131q35 32 35 164q0 167 -29 227l49 76l64 -63q-31 -32 -31 -97l4 -147q1 -33 -6 -70zM283 1183h92q25 0 95.5 6t70.5 21q0 34 -24 57t-60 23q-79 0 -174 -107z" />
    <glyph glyph-name="uniFB69" unicode="&#x679;" horiz-adv-x="688" arabic-form="medial" 
d="M-180 555h363q110 0 198.5 17t88.5 46q0 22 -106 244l123 152q98 -193 98 -301q0 -85 -67.5 -194.5t-183.5 -139.5t-291 -30q-62 0 -135 59t-88 147zM312 1273q94 88 182 88q39 0 76 -28.5t37 -67.5q0 -53 -43.5 -106t-139 -61.5t-215.5 -8.5q-48 0 -70.5 19.5
t-43.5 74.5h131q35 32 35 164q0 167 -29 227l49 76l64 -63q-31 -32 -31 -97l4 -147q1 -33 -6 -70zM283 1183h92q25 0 95.5 6t70.5 21q0 34 -24 57t-60 23q-79 0 -174 -107z" />
    <glyph glyph-name="uniFB88" unicode="&#x688;" horiz-adv-x="897" arabic-form="isolated" 
d="M513 1014l77 209q159 -194 187 -284.5t28 -174.5q0 -168 -30 -267t-163.5 -136.5t-253.5 -37.5q-134 0 -178.5 39.5t-44.5 126.5q0 169 25 169q14 0 17 -27q9 -79 198 -79q102 0 212 27t122.5 43.5t12.5 33.5q0 87 -209 358zM282 1397q94 88 160 88q39 0 76 -28.5
t37 -67.5q0 -51 -42 -105.5t-128 -62.5t-186 -8q-48 0 -70.5 19.5t-43.5 74.5h111q35 32 35 164q0 69 -29 104l49 76l64 -63q-27 -25 -27 -97v-34q0 -28 -6 -60zM253 1307h92q58 0 101 6t43 21q0 34 -24 57t-60 23q-57 0 -152 -107z" />
    <glyph glyph-name="uniFB89" unicode="&#x688;" horiz-adv-x="897" arabic-form="final" 
d="M513 1014l77 209q159 -194 187 -284.5t28 -174.5q0 -168 -30 -267t-163.5 -136.5t-253.5 -37.5q-134 0 -178.5 39.5t-44.5 126.5q0 169 25 169q14 0 17 -27q9 -79 198 -79q102 0 212 27t122.5 43.5t12.5 33.5q0 87 -209 358zM282 1397q94 88 160 88q39 0 76 -28.5
t37 -67.5q0 -51 -42 -105.5t-128 -62.5t-186 -8q-48 0 -70.5 19.5t-43.5 74.5h111q35 32 35 164q0 69 -29 104l49 76l64 -63q-27 -25 -27 -97v-34q0 -28 -6 -60zM253 1307h92q58 0 101 6t43 21q0 34 -24 57t-60 23q-57 0 -152 -107z" />
    <glyph glyph-name="uniFB8C" unicode="&#x691;" horiz-adv-x="777" arabic-form="isolated" 
d="M447 630l86 195q189 -223 189 -407q0 -316 -148 -506.5t-408 -190.5q-49 0 -126 43l-160 89q-27 15 -27 22q0 8 96 13q283 10 486.5 127.5t203.5 299.5q0 26 -22.5 79.5t-169.5 235.5zM389 1144q94 88 182 88q39 0 76 -28.5t37 -67.5q0 -53 -43.5 -106t-139 -61.5
t-215.5 -8.5q-48 0 -70.5 19.5t-43.5 74.5h131q35 32 35 164q0 167 -29 227l49 76l64 -63q-31 -32 -31 -97l4 -147q1 -33 -6 -70zM360 1054h92q25 0 95.5 6t70.5 21q0 34 -24 57t-60 23q-79 0 -174 -107z" />
    <glyph glyph-name="uniFB8D" unicode="&#x691;" horiz-adv-x="777" arabic-form="final" 
d="M447 630l86 195q189 -223 189 -407q0 -316 -148 -506.5t-408 -190.5q-49 0 -126 43l-160 89q-27 15 -27 22q0 8 96 13q283 10 486.5 127.5t203.5 299.5q0 26 -22.5 79.5t-169.5 235.5zM389 1144q94 88 182 88q39 0 76 -28.5t37 -67.5q0 -53 -43.5 -106t-139 -61.5
t-215.5 -8.5q-48 0 -70.5 19.5t-43.5 74.5h131q35 32 35 164q0 167 -29 227l49 76l64 -63q-31 -32 -31 -97l4 -147q1 -33 -6 -70zM360 1054h92q25 0 95.5 6t70.5 21q0 34 -24 57t-60 23q-79 0 -174 -107z" />
    <glyph glyph-name="uniFB9E" unicode="&#x6ba;" horiz-adv-x="1135" arabic-form="isolated" 
d="M848 730l115 169q123 -187 123 -329q0 -72 -59.5 -262.5t-230.5 -269.5t-320 -79q-157 0 -258 91t-101 251q0 166 91.5 332t112.5 166q9 0 9 -10q0 -8 -60 -148q-61 -140 -61 -235q0 -240 301 -240q182 0 322 60.5t140 179.5q0 57 -124 324z" />
    <glyph glyph-name="uniFB9F" unicode="&#x6ba;" horiz-adv-x="1135" arabic-form="final" 
d="M848 730l115 169q123 -187 123 -329q0 -72 -59.5 -262.5t-230.5 -269.5t-320 -79q-157 0 -258 91t-101 251q0 166 91.5 332t112.5 166q9 0 9 -10q0 -8 -60 -148q-61 -140 -61 -235q0 -240 301 -240q182 0 322 60.5t140 179.5q0 57 -124 324z" />
    <glyph glyph-name="uniFBA4" unicode="&#x6c0;" horiz-adv-x="717" arabic-form="isolated" 
d="M232 959q-39 9 -86 9q66 189 146 189q77 0 210.5 -101.5t133.5 -282.5q0 -120 -65 -269.5t-256 -149.5q-80 0 -141.5 55.5t-61.5 185.5q0 147 120 364zM301 934q-42 -35 -74 -94t-32 -101q0 -80 56 -129t144 -49q93 0 117 25t24 78q0 153 -235 270zM517 1425l-9 -94
l-326 -114l10 68q61 21 94 58q-47 0 -81 27.5t-34 65.5q0 56 54.5 135t133.5 79q38 0 61.5 -20.5t23.5 -45.5q0 -34 -26 -74q-47 40 -120 40q-62 0 -62 -43q0 -42 61.5 -71.5t120.5 -29.5q73 0 99 19z" />
    <glyph glyph-name="uniFBA5" unicode="&#x6c0;" horiz-adv-x="897" arabic-form="final" 
d="M636 1222q22 -157 32 -434q6 -123 34 -177t112 -56h111v-206h-114q-111 0 -167 43t-74 221l-134 -112q-194 19 -226.5 31t-32.5 29q0 31 9 57l72 212q23 69 96.5 116t192.5 91q-11 52 -25 72zM547 980l-51 -92q-199 -65 -201 -172q69 -20 166 -20q18 0 104 5v161
q0 54 -9 118h-9zM717 1425l-9 -94l-326 -114l10 68q61 21 94 58q-47 0 -81 27.5t-34 65.5q0 56 54.5 135t133.5 79q38 0 61.5 -20.5t23.5 -45.5q0 -34 -26 -74q-47 40 -120 40q-62 0 -62 -43q0 -42 61.5 -71.5t120.5 -29.5q73 0 99 19z" />
    <glyph glyph-name="uniFBA6" unicode="&#x6c1;" horiz-adv-x="717" arabic-form="isolated" 
d="M232 959q-39 9 -86 9q66 189 146 189q77 0 210.5 -101.5t133.5 -282.5q0 -120 -65 -269.5t-256 -149.5q-80 0 -141.5 55.5t-61.5 185.5q0 147 120 364zM301 934q-42 -35 -74 -94t-32 -101q0 -80 56 -129t144 -49q93 0 117 25t24 78q0 153 -235 270z" />
    <glyph glyph-name="uniFBA7" unicode="&#x6c1;" horiz-adv-x="987" arabic-form="final" 
d="M1015 349h-227q-179 0 -287 147q-124 -103 -296 -299q-68 -77 -79 -77q-16 0 -16 34q0 38 74.5 161.5t165.5 231.5t140.5 154.5t68.5 46.5q25 0 32 -22q84 -170 234 -170h190v-207z" />
    <glyph glyph-name="uniFBA8" unicode="&#x6c1;" horiz-adv-x="688" arabic-form="initial" 
d="M-180 555h363q110 0 198.5 17t88.5 46q0 22 -106 244l123 152q98 -193 98 -301q0 -85 -67.5 -194.5t-183.5 -139.5t-291 -30q-62 0 -135 59t-88 147zM463 216q-115 -175 -115 -262q0 -97 86 -127q-67 -141 -88 -168q-109 45 -109 190q0 72 50 186.5t135 213.5z" />
    <glyph glyph-name="uniFBA9" unicode="&#x6c1;" horiz-adv-x="950" arabic-form="medial" 
d="M-180 555h284q134 0 254.5 90.5t204.5 264.5l55 -33q-40 -91 -96 -174q-116 -174 -148 -271.5t-32 -186.5q0 -141 66 -224q0 250 140 392.5t372 142.5h58v-207h-136q-373 0 -373 -266q0 -131 74 -246l-148 -145q-155 182 -155 424q0 198 94 387q-147 -154 -301 -154
q-69 0 -130.5 65t-82.5 141z" />
    <glyph glyph-name="uniFBAA" unicode="&#x6be;" horiz-adv-x="1248" arabic-form="isolated" 
d="M769 652q41 41 41 121q0 93 -11.5 114t-41.5 21q-57 0 -121.5 -74.5t-64.5 -105.5q0 -55 71 -55q63 0 127 -21zM1062 542q15 35 15 77q0 133 -156 248q-6 -169 -90 -233q100 -31 231 -92zM1031 349q-175 101 -309 129q-193 -211 -385 -211q-153 0 -254 186q245 0 447 74
q-58 28 -58 84q0 95 66 203.5t182 152.5q-55 37 -114 37q-47 0 -80 -57l-33 14q44 131 84.5 173t101.5 42q114 0 313 -158.5t199 -338.5q0 -63 -40 -145.5t-120 -184.5z" />
    <glyph glyph-name="uniFBAB" unicode="&#x6be;" horiz-adv-x="1400" arabic-form="final" 
d="M809 652q41 41 41 121q0 93 -11.5 114t-41.5 21q-57 0 -121.5 -74.5t-64.5 -105.5q0 -55 71 -55q63 0 127 -21zM1102 542q15 35 15 77q0 133 -156 248q-6 -169 -90 -233q100 -31 231 -92zM1071 349q-175 101 -309 129q-193 -211 -385 -211q-153 0 -254 186q245 0 447 74
q-58 28 -58 84q0 95 66 203.5t182 152.5q-55 37 -114 37q-47 0 -80 -57l-33 14q44 131 84.5 173t101.5 42q113 0 312.5 -157.5t199.5 -339.5q0 -48 35 -84.5t82 -36.5h80v-209h-66q-55 0 -110 37t-84 104q-35 -60 -97 -141z" />
    <glyph glyph-name="uniFBAC" unicode="&#x6be;" horiz-adv-x="986" arabic-form="initial" 
d="M528 652q42 44 42 121q0 72 -8.5 103.5t-45.5 31.5q-56 0 -121 -74.5t-65 -105.5q0 -55 72 -55q57 0 126 -21zM820 541q16 38 16 79q0 130 -157 248q-4 -166 -89 -235q99 -30 230 -92zM791 349q-185 104 -311 130q-72 -127 -434 -127q-137 0 -226 206h412q-1 8 -1.5 16.5
t-0.5 17.5q0 113 68 224t181 152q-55 37 -115 37q-47 0 -80 -57l-32 14q44 127 83.5 171t97.5 44q120 0 318 -159t198 -340q0 -62 -39.5 -144t-118.5 -185z" />
    <glyph glyph-name="uniFBAD" unicode="&#x6be;" horiz-adv-x="1174" arabic-form="medial" 
d="M569 652q41 41 41 121q0 93 -11.5 114t-41.5 21q-57 0 -121.5 -74.5t-64.5 -105.5q0 -55 71 -55q63 0 127 -21zM862 542q15 35 15 77q0 133 -156 248q-6 -169 -90 -233q100 -31 231 -92zM831 349q-175 101 -309 129q-75 -127 -434 -127q-176 0 -264 207h449
q-1 8 -1.5 16.5t-0.5 17.5q0 113 68 224t181 152q-55 37 -114 37q-47 0 -80 -57l-33 14q44 131 84.5 173t101.5 42q114 0 313 -159t199 -339q0 -48 35 -84.5t82 -36.5h94v-209h-80q-55 0 -110 37t-84 104q-35 -60 -97 -141z" />
    <glyph glyph-name="uniFBAE" unicode="&#x6d2;" horiz-adv-x="1794" arabic-form="isolated" 
d="M1778 265q-38 -60 -112.5 -125t-141.5 -94.5t-212.5 -47.5t-316.5 -18q-288 0 -524 35.5t-314.5 108t-78.5 209.5q0 72 95 190.5t244 167.5l220 74q118 40 174 184q41 113 82 113q127 0 127 -416q0 -64 -33 -64q-23 0 -31 48q-27 213 -90 213q-32 0 -67 -68
q-101 -178 -205 -213l-279 -92q-116 -38 -116 -107q0 -59 205 -103t569 -44q346 0 805 49z" />
    <glyph glyph-name="uniFBAF" unicode="&#x6d2;" horiz-adv-x="1343" arabic-form="final" 
d="M1577 -97q-42 -65 -110 -124.5t-130.5 -90.5t-195 -48.5t-279.5 -17.5q-405 0 -593.5 70t-188.5 272q0 79 94.5 192.5t216.5 131.5l308 49q56 11 166 117q110 104 188 104h318v-209h-398q-44 0 -90 -19.5t-133 -95.5q-114 -97 -160 -107.5t-224 -29.5q-111 -12 -139 -33
t-28 -65q0 -62 174 -105t475 -43q381 0 729 52z" />
    <glyph glyph-name="uniFBB0" unicode="&#x6d3;" horiz-adv-x="1794" arabic-form="isolated" 
d="M1778 265q-38 -60 -112.5 -125t-141.5 -94.5t-212.5 -47.5t-316.5 -18q-288 0 -524 35.5t-314.5 108t-78.5 209.5q0 72 95 190.5t244 167.5l220 74q118 40 174 184q41 113 82 113q127 0 127 -416q0 -64 -33 -64q-23 0 -31 48q-27 213 -90 213q-32 0 -67 -68
q-101 -178 -205 -213l-279 -92q-116 -38 -116 -107q0 -59 205 -103t569 -44q346 0 805 49zM535 1060l-9 -94l-326 -114l10 68q61 21 94 58q-47 0 -81 27.5t-34 65.5q0 56 54.5 135t133.5 79q38 0 61.5 -20.5t23.5 -45.5q0 -34 -26 -74q-47 40 -120 40q-62 0 -62 -43
q0 -42 61.5 -71.5t120.5 -29.5q73 0 99 19z" />
    <glyph glyph-name="uniFBB1" unicode="&#x6d3;" horiz-adv-x="1343" arabic-form="final" 
d="M1577 -97q-42 -65 -110 -124.5t-130.5 -90.5t-195 -48.5t-279.5 -17.5q-405 0 -593.5 70t-188.5 272q0 79 94.5 192.5t216.5 131.5l308 49q56 11 166 117q110 104 188 104h318v-209h-398q-44 0 -90 -19.5t-133 -95.5q-114 -97 -160 -107.5t-224 -29.5q-111 -12 -139 -33
t-28 -65q0 -62 174 -105t475 -43q381 0 729 52zM535 720l-9 -94l-326 -114l10 68q61 21 94 58q-47 0 -81 27.5t-34 65.5q0 56 54.5 135t133.5 79q38 0 61.5 -20.5t23.5 -45.5q0 -34 -26 -74q-47 40 -120 40q-62 0 -62 -43q0 -42 61.5 -71.5t120.5 -29.5q73 0 99 19z" />
    <glyph glyph-name="uniFBE8" unicode="&#x649;" horiz-adv-x="688" arabic-form="initial" 
d="M-180 555h363q110 0 198.5 17t88.5 46q0 22 -106 244l123 152q98 -193 98 -301q0 -85 -67.5 -194.5t-183.5 -139.5t-291 -30q-62 0 -135 59t-88 147z" />
    <glyph glyph-name="uniFBE9" unicode="&#x649;" horiz-adv-x="688" arabic-form="medial" 
d="M-180 555h363q110 0 198.5 17t88.5 46q0 22 -106 244l123 152q98 -193 98 -301q0 -85 -67.5 -194.5t-183.5 -139.5t-291 -30q-62 0 -135 59t-88 147z" />
    <glyph glyph-name="uniFBFE" unicode="&#x6cc;" horiz-adv-x="688" arabic-form="initial" 
d="M-180 555h363q110 0 198.5 17t88.5 46q0 22 -106 244l123 152q98 -193 98 -301q0 -85 -67.5 -194.5t-183.5 -139.5t-291 -30q-62 0 -135 59t-88 147zM198 -60l-142 142l142 142l142 -142zM484 -60l-142 142l142 142l142 -142z" />
    <glyph glyph-name="uniFBFF" unicode="&#x6cc;" horiz-adv-x="688" arabic-form="medial" 
d="M-180 555h363q110 0 198.5 17t88.5 46q0 22 -106 244l123 152q98 -193 98 -301q0 -85 -67.5 -194.5t-183.5 -139.5t-291 -30q-62 0 -135 59t-88 147zM198 -60l-142 142l142 142l142 -142zM484 -60l-142 142l142 142l142 -142z" />
    <glyph glyph-name="uniFE8D" unicode="&#x627;" horiz-adv-x="479" arabic-form="isolated" 
d="M381 1619q0 -59 -4 -167t-4 -146q0 -131 7 -336t7 -285q0 -137 -28 -239.5t-84 -170.5q-2 184 -12 412t-22 394.5t-12 184.5q0 147 46 209z" />
    <glyph glyph-name="uniFEA1" unicode="&#x62d;" horiz-adv-x="1164" arabic-form="isolated" 
d="M450.5 445q-161.5 -124 -161.5 -318q0 -170 119.5 -234.5t381.5 -64.5q173 0 497 89q-198 -295 -579 -295q-255 0 -387 105t-132 294q0 182 96.5 320t324.5 306q-13 0 -61 4q-60 5 -85 5q-277 0 -350 -184q-4 36 -4 69q0 163 95.5 253.5t253.5 90.5q47 0 181 -22
q134 -21 223 -21q49 0 133 9q84 8 122 8l-37 -203q-469 -87 -630.5 -211z" />
    <glyph glyph-name="uniFEA9" unicode="&#x62f;" horiz-adv-x="897" arabic-form="isolated" 
d="M513 1014l77 209q159 -194 187 -284.5t28 -174.5q0 -168 -30 -267t-163.5 -136.5t-253.5 -37.5q-134 0 -178.5 39.5t-44.5 126.5q0 169 25 169q14 0 17 -27q9 -79 198 -79q102 0 212 27t122.5 43.5t12.5 33.5q0 87 -209 358z" />
    <glyph glyph-name="uniFEAD" unicode="&#x631;" horiz-adv-x="777" arabic-form="isolated" 
d="M447 630l86 195q189 -223 189 -407q0 -316 -148 -506.5t-408 -190.5q-49 0 -126 43l-160 89q-27 15 -27 22q0 8 96 13q283 10 486.5 127.5t203.5 299.5q0 26 -22.5 79.5t-169.5 235.5z" />
    <glyph glyph-name="uniFEB1" unicode="&#x633;" horiz-adv-x="1881" arabic-form="isolated" 
d="M846 638l106 152q78 -107 117 -229q86 -7 147.5 5.5t91 34t76.5 94.5q33 52 49 52q9 0 9 -8q0 -5 -17 -48t-17 -70q0 -29 47.5 -49t106.5 -20q57 0 106 40q-3 72 -43 184l124 123q4 4 8 4q19 0 38.5 -72t19.5 -118q0 -166 -112 -265t-224 -99q-126 0 -172 97
q-103 -103 -244 -97q2 -26 -52 -175t-216 -226.5t-316 -77.5q-163 0 -265 91t-102 248q0 149 85.5 322t120.5 173q10 0 10 -11t-58 -149q-58 -137 -58 -229q0 -252 300 -252q162 0 308 64.5t146 184.5q0 64 -120 326z" />
    <glyph glyph-name="uniFEB9" unicode="&#x635;" horiz-adv-x="2210" arabic-form="isolated" 
d="M1092 555h172q167 208 339 332t303 124q88 0 172 -63t84 -178q0 -58 -55.5 -177t-156 -165.5t-203.5 -62.5t-409 -16q-133 0 -183.5 9.5t-88.5 50.5q-48 -249 -225.5 -346.5t-356.5 -97.5q-139 0 -248.5 80.5t-109.5 257.5q0 174 92 335t111 161q10 0 10 -10
q0 -9 -61 -147q-60 -139 -60 -233q0 -97 65.5 -174.5t235.5 -77.5q163 0 310.5 65t147.5 184q0 65 -120 327l106 149q58 -68 95.5 -169t33.5 -158zM1353 555l185 1q164 1 328 25.5t164 51.5q0 218 -218 218q-89 0 -218.5 -85t-240.5 -211z" />
    <glyph glyph-name="uniFEC1" unicode="&#x637;" horiz-adv-x="1334" arabic-form="isolated" 
d="M520 1650l132 -135q-69 -82 -69 -229q0 -73 7 -162t7 -176q0 -117 -29 -201q244 235 451 235q84 0 171 -62.5t87 -157.5q0 -106 -78.5 -220.5t-227.5 -153.5t-622 -39q-120 0 -173.5 51t-92.5 155h308q91 76 91 404q0 402 -63 524zM502 555h238q124 0 263 17.5t139 54.5
q0 80 -57 142t-152 62q-96 0 -217.5 -79t-213.5 -197z" />
    <glyph glyph-name="uniFEC9" unicode="&#x639;" horiz-adv-x="986" arabic-form="isolated" 
d="M929 851l-49 -210q-329 -99 -493 -240t-164 -324q0 -134 121 -198.5t390 -64.5q125 0 285 34.5t257 91.5q-63 -159 -220 -238.5t-408 -79.5q-263 0 -394 94t-131 281q0 126 57.5 253.5t217.5 316.5q-118 101 -142 127.5t-24 81.5q0 89 99 261t254 172q86 0 144.5 -71
t67.5 -150q-139 40 -207 40q-104 0 -179.5 -36t-75.5 -73q0 -46 97 -111.5t173 -65.5q81 0 324 109z" />
    <glyph glyph-name="uniFED9" unicode="&#x643;" horiz-adv-x="1433" arabic-form="isolated" 
d="M1215 1400q-19 44 -51 81q26 64 92 169l137 -126q-43 -77 -43 -238q0 -61 13 -228q13 -169 13 -282q0 -291 -135.5 -383t-515.5 -92q-593 0 -593 297q0 57 14 137t32 80q14 0 14 -27q0 -162 150 -217.5t392 -55.5q542 0 542 129q0 76 -19.5 352.5t-41.5 403.5zM760 1427
q-10 -81 -38 -112q-12 20 -34 20q-24 0 -48 -25t-24 -55q0 -40 79 -50q97 -14 119.5 -39.5t22.5 -56.5q0 -34 -38 -108t-63 -88t-85 -14q-186 0 -186 28q0 8 14.5 14t178.5 51q96 26 96 53q0 28 -81 38q-88 11 -107 26t-19 45q0 74 62.5 180.5t115.5 106.5q24 0 35 -14z" />
    <glyph glyph-name="uniFEDD" unicode="&#x644;" horiz-adv-x="1164" arabic-form="isolated" 
d="M960 914l-37 343q-10 87 -25.5 137t-37.5 64q34 80 103 192q94 -106 155 -144q-83 -101 -83 -206q0 -95 26 -333q25 -231 25 -318q0 -185 -87.5 -358.5t-456.5 -173.5q-428 0 -428 329q0 148 60 287t91 139q11 0 11 -15t-10 -35q-68 -148 -68 -255q0 -122 97 -183
t247 -61q152 0 298 53.5t146 129.5q0 167 -26 408z" />
    <glyph glyph-name="uniFEE1" unicode="&#x645;" horiz-adv-x="777" arabic-form="isolated" 
d="M739 558l-160 -186q-90 28 -172 28q-112 0 -145.5 -28.5t-33.5 -102.5q0 -40 17 -187q16 -151 16 -194q0 -41 -23 -130t-72 -136q-5 129 -37 434q-12 116 -12 143q0 214 92 305q-46 91 -46 143q0 53 85.5 185.5t161.5 132.5t174 -113t155 -294zM252 544q50 48 192 48
q78 0 78 26q0 35 -50 101t-105 66q-42 0 -83 -66.5t-41 -128.5q0 -26 9 -46z" />
    <glyph glyph-name="uniFEE9" unicode="&#x647;" horiz-adv-x="717" arabic-form="isolated" 
d="M232 959q-39 9 -86 9q66 189 146 189q77 0 210.5 -101.5t133.5 -282.5q0 -120 -65 -269.5t-256 -149.5q-80 0 -141.5 55.5t-61.5 185.5q0 147 120 364zM301 934q-42 -35 -74 -94t-32 -101q0 -80 56 -129t144 -49q93 0 117 25t24 78q0 153 -235 270z" />
    <glyph glyph-name="uniFEED" unicode="&#x648;" horiz-adv-x="777" arabic-form="isolated" 
d="M596 601q-24 90 -68 139.5t-90 49.5q-80 0 -80 -112q0 -88 129 -88q85 0 109 11zM719 515q0 -342 -150 -576.5t-400 -234.5q-59 0 -150.5 34.5t-135.5 91.5q301 0 526.5 178.5t225.5 324.5q0 26 -4 56q-72 -14 -150 -14q-192 0 -192 212q0 139 52.5 278.5t122.5 139.5
q114 0 184.5 -140.5t70.5 -349.5z" />
    <glyph glyph-name="uniFEEF" unicode="&#x649;" horiz-adv-x="1522" arabic-form="isolated" 
d="M1333 1034q-49 40 -123 40q-88 0 -213.5 -81t-125.5 -142q0 -49 82 -70q165 -30 249 -50.5t132 -67.5t48 -125q0 -55 -80 -233t-277 -239t-363 -61q-527 0 -527 381q0 149 65.5 325.5t100.5 176.5q5 0 5 -10q0 -9 -44 -152q-44 -144 -44 -220q0 -148 133 -221t345 -73
q201 0 386 66.5t185 130.5q0 60 -61 94t-240 67q-119 22 -148.5 50t-29.5 73q0 58 53 208.5t180 257.5t260 107q104 0 104 -69q0 -72 -52 -163z" />
    <glyph glyph-name="uniFB92" unicode="&#x6af;" horiz-adv-x="1798" arabic-form="isolated" 
d="M1747 1552l-442 -183q-134 -56 -268 -132q-14 -8 -16 -8q-6 8 -6 21q0 53 35 88q207 127 737 312zM1325 349h-752q-122 0 -180 9t-123 47.5t-99.5 106.5t-34.5 173q0 124 43 199.5t75 75.5q7 0 7 -7q0 -10 -20 -70q-23 -66 -23 -105q0 -95 41 -138t169.5 -64t460.5 -21
h419q258 0 258 48q0 36 -76 91t-411 180q-73 27 -73 64q0 39 26.5 106.5t72.5 108t156 93.5t211 89.5t384 133.5l-78 -152l-347 -125q-56 -20 -159 -69t-103 -83q0 -13 140 -70q200 -82 279 -164.5t79 -172.5q0 -151 -80.5 -217.5t-261.5 -66.5z" />
    <glyph glyph-name="uniFB8E" unicode="&#x6a9;" horiz-adv-x="1798" arabic-form="isolated" 
d="M1575.5 407.5q-87.5 -58.5 -248.5 -58.5h-555q-287 0 -389.5 16t-174 90t-71.5 215q0 140 43 213.5t77 73.5q7 0 7 -5q-23 -50 -34.5 -92t-11.5 -76q0 -76 37 -127t139 -76.5t497 -25.5h408q281 0 281 69q0 122 -404 316q-216 104 -216 114q0 57 44 160t268 210.5
t589 225.5l-84 -158l-375 -146q-69 -27 -175 -79.5t-106 -74.5q0 -24 165 -116q180 -99 246.5 -154.5t98.5 -109.5t32 -171q0 -175 -87.5 -233.5z" />
    <glyph glyph-name="uniFB8F" unicode="&#x6a9;" horiz-adv-x="1888" arabic-form="final" 
d="M1549 395.5q-83 -46.5 -222 -46.5h-615q-267 0 -357.5 20t-154.5 98t-64 218q0 115 42 194t74 79q9 0 9 -8q0 -11 -21.5 -65.5t-21.5 -106.5q0 -92 41 -138t184.5 -65.5t447.5 -19.5h408q278 0 278 69q0 124 -401 316q-216 104 -216 114q0 56 41.5 155t239.5 199.5
t620 241.5l-84 -158l-375 -146q-69 -27 -175 -79.5t-106 -74.5q0 -25 165 -115q193 -106 269 -176t91.5 -119.5t15.5 -226.5h254v-206h-90q-112 0 -183 135q-11 -42 -94 -88.5z" />
    <glyph glyph-name="uniFEF5" unicode="&#xfef5;" horiz-adv-x="1164" arabic-form="isolated" 
d="M515 351l49 200q197 51 306 226q-169 232 -534 330l-9 -60l-200 149q30 100 30 185q0 21 -2 41q314 -151 475.5 -279.5t277.5 -288.5q43 73 43 234q0 126 -49 410q45 58 91 152q62 -79 129 -128l-15 -24q-56 -90 -56 -149q0 -375 -98 -557q84 -127 84 -221
q0 -99 -30 -159.5t-84 -60.5h-408zM768 557h157q43 0 43 51q0 33 -58 116q-52 -88 -142 -167zM864 1639q-29 -99 -108.5 -148.5t-209.5 -49.5q-68 0 -193 41q-123 40 -160 40q-68 0 -156 -108q0 103 55.5 169.5t140.5 66.5q55 0 170 -42q126 -46 210 -46q92 0 141.5 14.5
t109.5 62.5z" />
    <glyph glyph-name="uniFEF6" unicode="&#xfef6;" horiz-adv-x="1344" arabic-form="final" 
d="M951 1455l109 195l41 -594q13 -184 42.5 -314.5t86 -158t142.5 -27.5v-206q-178 0 -242 67t-84 195t-40 361q-119 -432 -269 -570.5t-442 -138.5q-115 0 -138 17q255 117 409.5 216.5t209.5 181.5q-51 147 -170 246t-258 115q0 -80 -28 -80q-52 47 -106 81q-53 34 -85 75
t-32 113q0 65 26 124q344 -94 498.5 -241t201.5 -374q154 202 154 460q0 123 -26 257zM864 1639q-58 -198 -318 -198q-68 0 -193 41q-123 40 -160 40q-77 0 -156 -108q0 103 55.5 169.5t140.5 66.5q55 0 170 -42q126 -46 210 -46q92 0 141.5 14.5t109.5 62.5z" />
    <glyph glyph-name="uniFEF7" unicode="&#xfef7;" horiz-adv-x="1164" arabic-form="isolated" 
d="M515 350l49 200q185 49 299 213q-195 145 -527 231l-9 -60l-200 121q30 98 30 182q0 22 -2 44q231 -83 416.5 -196t325.5 -257q54 106 54 223q0 167 -49 446q45 58 91 152q62 -79 129 -128l-15 -24q-56 -90 -56 -149q0 -372 -104 -569q90 -103 90 -186
q0 -116 -34.5 -179.5t-79.5 -63.5h-408zM768 556h157q43 0 43 51q0 41 -60 111q-35 -71 -140 -162zM550 1393l-326 -87l10 68q48 11 91 37q-112 4 -112 80q0 52 57.5 105.5t130.5 53.5q38 0 61.5 -20.5t23.5 -45.5q0 -33 -26 -64q-48 30 -120 30q-62 0 -62 -32
q0 -52 182 -52q59 0 99 14z" />
    <glyph glyph-name="uniFEF8" unicode="&#xfef8;" horiz-adv-x="1344" arabic-form="final" 
d="M951 1455l109 195l41 -594q13 -184 42.5 -314.5t86 -158t142.5 -27.5v-206q-178 0 -242 67t-84 195t-40 361q-59 -326 -216.5 -517.5t-494.5 -191.5q-115 0 -138 17q126 58 329 146t290 176q-13 122 -127 217.5t-304 137.5q9 -80 -23 -80q-52 47 -106 81
q-58 37 -87.5 72.5t-29.5 105.5q0 66 26 126q379 -114 529 -261.5t171 -343.5q152 211 152 540q0 123 -26 257zM526 1393l-326 -87l10 68q48 11 91 37q-112 4 -112 80q0 52 57.5 105.5t130.5 53.5q38 0 61.5 -20.5t23.5 -45.5q0 -33 -26 -64q-48 30 -120 30q-62 0 -62 -32
q0 -52 182 -52q59 0 99 14z" />
    <glyph glyph-name="uniFEF9" unicode="&#xfef9;" horiz-adv-x="1164" arabic-form="isolated" 
d="M515 350l49 200q195 53 316 242q-177 267 -544 428l-9 -60l-200 149q30 114 30 174q0 28 -2 52q240 -113 431 -279.5t332 -386.5q33 81 33 182q0 167 -49 446q45 58 91 152q62 -79 129 -128l-15 -24q-56 -90 -56 -149q0 -354 -88 -541q74 -126 74 -214
q0 -116 -34.5 -179.5t-79.5 -63.5h-408zM768 556h157q43 0 43 51q0 44 -48 132q-44 -87 -152 -183zM681 13l-9 -94l-326 -114l10 68q61 21 94 58q-47 0 -81 27.5t-34 65.5q0 56 54.5 135t133.5 79q38 0 61.5 -20.5t23.5 -45.5q0 -34 -26 -74q-47 40 -120 40q-62 0 -62 -43
q0 -42 61.5 -71.5t120.5 -29.5q73 0 99 19z" />
    <glyph glyph-name="uniFEFA" unicode="&#xfefa;" horiz-adv-x="1344" arabic-form="final" 
d="M951 1455l109 195l41 -594q13 -184 42.5 -314.5t86 -158t142.5 -27.5v-206q-178 0 -242 67t-84 195t-40 361q-119 -432 -269 -570.5t-442 -138.5q-115 0 -138 17q255 117 409.5 216.5t209.5 181.5q-15 161 -123 274.5t-310 179.5q9 -80 -23 -80q-52 47 -106 81
q-59 38 -88 85t-29 103q0 86 26 144q353 -128 512 -299.5t188 -428.5q154 202 154 460q0 123 -26 257zM446 -99l-9 -94l-326 -114l10 68q61 21 94 58q-47 0 -81 27.5t-34 65.5q0 56 54.5 135t133.5 79q38 0 61.5 -20.5t23.5 -45.5q0 -34 -26 -74q-47 40 -120 40
q-62 0 -62 -43q0 -42 61.5 -71.5t120.5 -29.5q73 0 99 19z" />
    <glyph glyph-name="uniFEFB" unicode="&#xfefb;" horiz-adv-x="1164" arabic-form="isolated" 
d="M515 350l49 200q195 53 316 242q-177 267 -544 428l-9 -60l-200 149q30 114 30 174q0 28 -2 52q240 -113 431 -279.5t332 -386.5q33 81 33 182q0 167 -49 446q45 58 91 152q62 -79 129 -128l-15 -24q-56 -90 -56 -149q0 -354 -88 -541q74 -126 74 -214
q0 -116 -34.5 -179.5t-79.5 -63.5h-408zM768 556h157q43 0 43 51q0 44 -48 132q-44 -87 -152 -183z" />
    <glyph glyph-name="uniFEFC" unicode="&#xfefc;" horiz-adv-x="1344" arabic-form="final" 
d="M951 1455l109 195l41 -594q13 -184 42.5 -314.5t86 -158t142.5 -27.5v-206q-178 0 -242 67t-84 195t-40 361q-119 -432 -269 -570.5t-442 -138.5q-115 0 -138 17q255 117 409.5 216.5t209.5 181.5q-15 161 -123 274.5t-310 179.5q9 -80 -23 -80q-52 47 -106 81
q-59 38 -88 85t-29 103q0 86 26 144q353 -128 512 -299.5t188 -428.5q154 202 154 460q0 123 -26 257z" />
    <glyph glyph-name="uniFB50" unicode="&#x671;" horiz-adv-x="539" arabic-form="isolated" 
d="M364 1328q-10 -190 -10 -277v-35q0 -45 6 -118l6 -105q4 -78 4 -133q0 -150 -22 -229.5t-80 -155.5q-2 194 -39 515q-17 139 -17 196q0 87 25 146.5t127 195.5zM267 1369h-155q-32 0 -43 -41q-10 -42 -26 -42q-23 0 -23 31q0 46 23 103.5t72 57.5h86q32 68 99.5 120
t127.5 52q69 0 69 -60q0 -106 -60.5 -163.5t-169.5 -57.5zM250 1472q28 -5 55 -5q143 0 143 51q0 55 -63 55q-67 0 -135 -101z" />
    <glyph glyph-name="uniFB56" unicode="&#x67e;" horiz-adv-x="1820" arabic-form="isolated" 
d="M1545 885l123 140q95 -155 95 -255q0 -88 -76 -222.5t-140 -153t-225 -32t-296 -13.5h-180q-306 0 -506 60.5t-200 266.5q0 93 47 202.5t74 109.5q11 0 11 -8q0 -16 -19 -63q-12 -31 -12 -89q0 -111 115.5 -191t397.5 -82h261q131 0 330.5 15t247 32t47.5 54
q0 60 -95 229zM820 -62l-142 142l142 142l142 -142zM1106 -62l-142 142l142 142l142 -142zM963 -327l-142 142l142 142l142 -142z" />
    <glyph glyph-name="uniFB7A" unicode="&#x686;" horiz-adv-x="1164" arabic-form="isolated" 
d="M450.5 445q-161.5 -124 -161.5 -318q0 -170 119.5 -234.5t381.5 -64.5q173 0 497 89q-198 -295 -579 -295q-255 0 -387 105t-132 294q0 182 96.5 320t324.5 306q-13 0 -61 4q-60 5 -85 5q-277 0 -350 -184q-4 36 -4 69q0 163 95.5 253.5t253.5 90.5q47 0 181 -22
q134 -21 223 -21q49 0 133 9q84 8 122 8l-37 -203q-469 -87 -630.5 -211zM672 160l-142 142l142 142l142 -142zM958 160l-142 142l142 142l142 -142zM815 -105l-142 142l142 142l142 -142z" />
    <glyph glyph-name="uniFB8A" unicode="&#x698;" horiz-adv-x="805" arabic-form="isolated" 
d="M447 630l86 195q189 -223 189 -407q0 -316 -148 -506.5t-408 -190.5q-49 0 -126 43l-160 89q-27 15 -27 22q0 8 96 13q283 10 486.5 127.5t203.5 299.5q0 26 -22.5 79.5t-169.5 235.5zM290 983l-142 142l142 142l142 -142zM576 983l-142 142l142 142l142 -142zM433 1248
l-142 142l142 142l142 -142z" />
    <glyph glyph-name="uniFBFC" unicode="&#x6cc;" horiz-adv-x="1522" arabic-form="isolated" 
d="M1333 1034q-49 40 -123 40q-88 0 -213.5 -81t-125.5 -142q0 -49 82 -70q165 -30 249 -50.5t132 -67.5t48 -125q0 -55 -80 -233t-277 -239t-363 -61q-527 0 -527 381q0 149 65.5 325.5t100.5 176.5q5 0 5 -10q0 -9 -44 -152q-44 -144 -44 -220q0 -148 133 -221t345 -73
q201 0 386 66.5t185 130.5q0 60 -61 94t-240 67q-119 22 -148.5 50t-29.5 73q0 58 53 208.5t180 257.5t260 107q104 0 104 -69q0 -72 -52 -163z" />
    <glyph glyph-name="uniFE81" unicode="&#x622;" horiz-adv-x="567" arabic-form="isolated" 
d="M378 1328q-10 -190 -10 -277v-35q0 -45 6 -118l6 -105q4 -78 4 -133q0 -150 -22 -229.5t-80 -155.5q-2 194 -39 515q-17 139 -17 196q0 87 25 146.5t127 195.5zM764 1639q-29 -99 -108.5 -148.5t-208.5 -49.5q-68 0 -193 41q-123 40 -160 40q-69 0 -156 -108
q0 100 54 168t142 68q55 0 170 -42q126 -46 209 -46q113 0 162 20.5t89 56.5z" />
    <glyph glyph-name="uniFE83" unicode="&#x623;" horiz-adv-x="539" arabic-form="isolated" 
d="M471 1425l-9 -94l-326 -114l10 68q61 21 94 58q-41 0 -78 25t-37 68q0 54 54.5 134t133.5 80q37 0 61 -20.5t24 -45.5q0 -34 -26 -74q-47 40 -120 40q-62 0 -62 -43q0 -40 59.5 -70.5t122.5 -30.5q73 0 99 19zM365 1216q-11 -226 -11 -276q0 -114 12 -267q3 -47 3 -68
q0 -211 -100 -339q-3 234 -46 507q-10 60 -10 102q0 67 19.5 133t132.5 208z" />
    <glyph glyph-name="uniFE85" unicode="&#x624;" horiz-adv-x="777" arabic-form="isolated" 
d="M596 601q-24 90 -68 139.5t-90 49.5q-80 0 -80 -112q0 -88 129 -88q85 0 109 11zM719 515q0 -342 -150 -576.5t-400 -234.5q-59 0 -150.5 34.5t-135.5 91.5q301 0 526.5 178.5t225.5 324.5q0 26 -4 56q-72 -14 -150 -14q-192 0 -192 212q0 139 52.5 278.5t122.5 139.5
q114 0 184.5 -140.5t70.5 -349.5zM631 1345l-9 -94l-326 -114l10 68q61 21 94 58q-47 0 -81 27.5t-34 65.5q0 56 54.5 135t133.5 79q38 0 61.5 -20.5t23.5 -45.5q0 -34 -26 -74q-47 40 -120 40q-62 0 -62 -43q0 -42 61.5 -71.5t120.5 -29.5q73 0 99 19z" />
    <glyph glyph-name="uniFE87" unicode="&#x625;" horiz-adv-x="539" arabic-form="isolated" 
d="M381 1619q0 -59 -4 -167t-4 -146q0 -131 7 -336t7 -285q0 -137 -28 -239.5t-84 -170.5q-2 184 -12 412t-22 394.5t-12 184.5q0 147 46 209zM487 -4l-9 -94l-326 -114l10 68q61 21 94 58q-47 0 -81 27.5t-34 65.5q0 56 54.5 135t133.5 79q38 0 61.5 -20.5t23.5 -45.5
q0 -34 -26 -74q-47 40 -120 40q-62 0 -62 -43q0 -42 61.5 -71.5t120.5 -29.5q73 0 99 19z" />
    <glyph glyph-name="uniFE89" unicode="&#x626;" horiz-adv-x="1522" arabic-form="isolated" 
d="M1333 1034q-49 40 -123 40q-88 0 -213.5 -81t-125.5 -142q0 -49 82 -70q165 -30 249 -50.5t132 -67.5t48 -125q0 -55 -80 -233t-277 -239t-363 -61q-527 0 -527 381q0 149 65.5 325.5t100.5 176.5q5 0 5 -10q0 -9 -44 -152q-44 -144 -44 -220q0 -148 133 -221t345 -73
q201 0 386 66.5t185 130.5q0 60 -61 94t-240 67q-119 22 -148.5 50t-29.5 73q0 58 53 208.5t180 257.5t260 107q104 0 104 -69q0 -72 -52 -163zM736 1397l-9 -94l-326 -114l10 68q61 21 94 58q-47 0 -81 27.5t-34 65.5q0 56 54.5 135t133.5 79q38 0 61.5 -20.5t23.5 -45.5
q0 -34 -26 -74q-47 40 -120 40q-62 0 -62 -43q0 -42 61.5 -71.5t120.5 -29.5q73 0 99 19z" />
    <glyph glyph-name="uniFE8F" unicode="&#x628;" horiz-adv-x="1820" arabic-form="isolated" 
d="M1545 885l123 140q95 -155 95 -255q0 -88 -76 -222.5t-140 -153t-225 -32t-296 -13.5h-180q-306 0 -506 60.5t-200 266.5q0 93 47 202.5t74 109.5q11 0 11 -8q0 -16 -19 -63q-12 -31 -12 -89q0 -111 115.5 -191t397.5 -82h261q131 0 330.5 15t247 32t47.5 54
q0 60 -95 229zM943 -154l-165 165l165 165l165 -165z" />
    <glyph glyph-name="uniFE93" unicode="&#x629;" horiz-adv-x="717" arabic-form="isolated" 
d="M232 959q-39 9 -86 9q66 189 146 189q77 0 210.5 -101.5t133.5 -282.5q0 -120 -65 -269.5t-256 -149.5q-80 0 -141.5 55.5t-61.5 185.5q0 147 120 364zM301 934q-42 -35 -74 -94t-32 -101q0 -80 56 -129t144 -49q93 0 117 25t24 78q0 153 -235 270zM167 1356l-142 142
l142 142l142 -142zM453 1356l-142 142l142 142l142 -142z" />
    <glyph glyph-name="uniFE95" unicode="&#x62a;" horiz-adv-x="1820" arabic-form="isolated" 
d="M1545 885l123 140q95 -155 95 -255q0 -88 -76 -222.5t-140 -153t-225 -32t-296 -13.5h-180q-306 0 -506 60.5t-200 266.5q0 93 47 202.5t74 109.5q11 0 11 -8q0 -16 -19 -63q-12 -31 -12 -89q0 -111 115.5 -191t397.5 -82h261q131 0 330.5 15t247 32t47.5 54
q0 60 -95 229zM782 888l-142 142l142 142l142 -142zM1068 888l-142 142l142 142l142 -142z" />
    <glyph glyph-name="uniFE99" unicode="&#x62b;" horiz-adv-x="1820" arabic-form="isolated" 
d="M1545 885l123 140q95 -155 95 -255q0 -88 -76 -222.5t-140 -153t-225 -32t-296 -13.5h-180q-306 0 -506 60.5t-200 266.5q0 93 47 202.5t74 109.5q11 0 11 -8q0 -16 -19 -63q-12 -31 -12 -89q0 -111 115.5 -191t397.5 -82h261q131 0 330.5 15t247 32t47.5 54
q0 60 -95 229zM783 876l-142 142l142 142l142 -142zM1069 876l-142 142l142 142l142 -142zM926 1141l-142 142l142 142l142 -142z" />
    <glyph glyph-name="uniFE9D" unicode="&#x62c;" horiz-adv-x="1164" arabic-form="isolated" 
d="M451.5 449q-161.5 -124 -161.5 -318q0 -170 119.5 -234.5t381.5 -64.5q173 0 497 89q-198 -295 -579 -295q-255 0 -387 105t-132 294q0 182 96.5 320t324.5 306q-13 0 -61 4q-60 5 -85 5q-277 0 -350 -184q-4 36 -4 69q0 163 95.5 253.5t253.5 90.5q47 0 181 -22
q134 -21 223 -21q49 0 133 9q84 8 122 8l-37 -203q-469 -87 -630.5 -211zM807 26l-165 165l165 165l165 -165z" />
    <glyph glyph-name="uniFEA5" unicode="&#x62e;" horiz-adv-x="1164" arabic-form="isolated" 
d="M450.5 445q-161.5 -124 -161.5 -318q0 -170 119.5 -234.5t381.5 -64.5q173 0 497 89q-198 -295 -579 -295q-255 0 -387 105t-132 294q0 182 96.5 320t324.5 306q-13 0 -61 4q-60 5 -85 5q-277 0 -350 -184q-4 36 -4 69q0 163 95.5 253.5t253.5 90.5q47 0 181 -22
q134 -21 223 -21q49 0 133 9q84 8 122 8l-37 -203q-469 -87 -630.5 -211zM603 1029l-165 165l165 165l165 -165z" />
    <glyph glyph-name="uniFEAB" unicode="&#x630;" horiz-adv-x="897" arabic-form="isolated" 
d="M513 1014l77 209q159 -194 187 -284.5t28 -174.5q0 -168 -30 -267t-163.5 -136.5t-253.5 -37.5q-134 0 -178.5 39.5t-44.5 126.5q0 169 25 169q14 0 17 -27q9 -79 198 -79q102 0 212 27t122.5 43.5t12.5 33.5q0 87 -209 358zM429 1320l-165 165l165 165l165 -165z" />
    <glyph glyph-name="uniFEAF" unicode="&#x632;" horiz-adv-x="805" arabic-form="isolated" 
d="M447 630l86 195q189 -223 189 -407q0 -316 -148 -506.5t-408 -190.5q-49 0 -126 43l-160 89q-27 15 -27 22q0 8 96 13q283 10 486.5 127.5t203.5 299.5q0 26 -22.5 79.5t-169.5 235.5zM392 1068l-165 165l165 165l165 -165z" />
    <glyph glyph-name="uniFEB5" unicode="&#x634;" horiz-adv-x="1881" arabic-form="isolated" 
d="M846 638l106 152q78 -107 117 -229q86 -7 147.5 5.5t91 34t76.5 94.5q33 52 49 52q9 0 9 -8q0 -5 -17 -48t-17 -70q0 -29 47.5 -49t106.5 -20q57 0 106 40q-3 72 -43 184l124 123q4 4 8 4q19 0 38.5 -72t19.5 -118q0 -166 -112 -265t-224 -99q-126 0 -172 97
q-103 -103 -244 -97q2 -26 -52 -175t-216 -226.5t-316 -77.5q-163 0 -265 91t-102 248q0 149 85.5 322t120.5 173q10 0 10 -11t-58 -149q-58 -137 -58 -229q0 -252 300 -252q162 0 308 64.5t146 184.5q0 64 -120 326zM1293 1001l-142 142l142 142l142 -142zM1579 1001
l-142 142l142 142l142 -142zM1436 1266l-142 142l142 142l142 -142z" />
    <glyph glyph-name="uniFEBD" unicode="&#x636;" horiz-adv-x="2210" arabic-form="isolated" 
d="M1092 555h172q167 208 339 332t303 124q88 0 172 -63t84 -178q0 -58 -55.5 -177t-156 -165.5t-203.5 -62.5t-409 -16q-133 0 -183.5 9.5t-88.5 50.5q-48 -249 -225.5 -346.5t-356.5 -97.5q-139 0 -248.5 80.5t-109.5 257.5q0 174 92 335t111 161q10 0 10 -10
q0 -9 -61 -147q-60 -139 -60 -233q0 -97 65.5 -174.5t235.5 -77.5q163 0 310.5 65t147.5 184q0 65 -120 327l106 149q58 -68 95.5 -169t33.5 -158zM1353 555l185 1q164 1 328 25.5t164 51.5q0 218 -218 218q-89 0 -218.5 -85t-240.5 -211zM1627 1143l-165 165l165 165
l165 -165z" />
    <glyph glyph-name="uniFEC5" unicode="&#x638;" horiz-adv-x="1334" arabic-form="isolated" 
d="M520 1650l132 -135q-69 -82 -69 -229q0 -73 7 -162t7 -176q0 -117 -29 -201q244 235 451 235q84 0 171 -62.5t87 -157.5q0 -106 -78.5 -220.5t-227.5 -153.5t-622 -39q-120 0 -173.5 51t-92.5 155h308q91 76 91 404q0 402 -63 524zM502 555h238q124 0 263 17.5t139 54.5
q0 80 -57 142t-152 62q-96 0 -217.5 -79t-213.5 -197zM931 1160l-165 165l165 165l165 -165z" />
    <glyph glyph-name="uniFECD" unicode="&#x63a;" horiz-adv-x="986" arabic-form="isolated" 
d="M929 851l-49 -210q-329 -99 -493 -240t-164 -324q0 -134 121 -198.5t390 -64.5q125 0 285 34.5t257 91.5q-63 -159 -220 -238.5t-408 -79.5q-263 0 -394 94t-131 281q0 126 57.5 253.5t217.5 316.5q-118 101 -142 127.5t-24 81.5q0 89 99 261t254 172q86 0 144.5 -71
t67.5 -150q-139 40 -207 40q-104 0 -179.5 -36t-75.5 -73q0 -46 97 -111.5t173 -65.5q81 0 324 109zM514 1321l-165 165l165 165l165 -165z" />
    <glyph glyph-name="uniFED1" unicode="&#x641;" horiz-adv-x="1912" arabic-form="isolated" 
d="M1498 1320l-165 165l165 165l165 -165zM995 240h-310q-223 0 -385.5 83t-162.5 287q0 128 64.5 220t84.5 92q12 0 12 -9l-23 -63q-23 -63 -23 -123q0 -147 143 -214t453 -67q322 0 559.5 40.5t281 64t43.5 73.5q0 85 -32 178q-22 -114 -76 -136t-125 -22q-175 0 -175 98
q0 130 82 308.5t185 178.5q102 0 177 -157t75 -368q0 -193 -74.5 -269t-312 -135.5t-461.5 -59.5zM1671 865q-61 172 -149 172q-78 0 -120 -164q37 -37 137 -37q74 0 132 29z" />
    <glyph glyph-name="uniFED5" unicode="&#x642;" horiz-adv-x="1195" arabic-form="isolated" 
d="M1020 555q-18 95 -64 165t-85 70q-37 0 -55.5 -45t-18.5 -135q0 -37 35 -46t188 -9zM1147 424q0 -281 -156.5 -429t-448.5 -148q-166 0 -288 91t-122 297q0 145 62 304.5t90 159.5q12 0 12 -15q0 -9 -40 -129q-41 -125 -41 -220q0 -278 361 -278q157 0 316.5 70.5
t159.5 149.5q0 31 -9 77q-193 0 -261 32t-68 152q0 180 53 312t130 132q104 0 177 -170.5t73 -387.5zM709 1155l-142 142l142 142l142 -142zM995 1155l-142 142l142 142l142 -142z" />
    <glyph glyph-name="uniFEE5" unicode="&#x646;" horiz-adv-x="1135" arabic-form="isolated" 
d="M848 730l115 169q123 -187 123 -329q0 -72 -59.5 -262.5t-230.5 -269.5t-320 -79q-157 0 -258 91t-101 251q0 166 91.5 332t112.5 166q9 0 9 -10q0 -8 -60 -148q-61 -140 -61 -235q0 -240 301 -240q182 0 322 60.5t140 179.5q0 57 -124 324zM546 951l-165 165l165 165
l165 -165z" />
    <glyph glyph-name="uniFEF1" unicode="&#x64a;" horiz-adv-x="1522" arabic-form="isolated" 
d="M1333 1034q-49 40 -123 40q-88 0 -213.5 -81t-125.5 -142q0 -49 82 -70q165 -30 249 -50.5t132 -67.5t48 -125q0 -55 -80 -233t-277 -239t-363 -61q-527 0 -527 381q0 149 65.5 325.5t100.5 176.5q5 0 5 -10q0 -9 -44 -152q-44 -144 -44 -220q0 -148 133 -221t345 -73
q201 0 386 66.5t185 130.5q0 60 -61 94t-240 67q-119 22 -148.5 50t-29.5 73q0 58 53 208.5t180 257.5t260 107q104 0 104 -69q0 -72 -52 -163zM622 -369l-142 142l142 142l142 -142zM908 -369l-142 142l142 142l142 -142z" />
    <glyph glyph-name="acalespace" unicode="&#xf80b;" horiz-adv-x="485" 
 />
    <glyph glyph-name="righttoleft" unicode="&#xf80c;" horiz-adv-x="1145" 
d="M389 897q58 -70 102 -178h-102q-120 123 -289 216v84q169 93 279 216h112q-44 -109 -102 -178h656v-1253h-226v1093h-430z" />
    <glyph glyph-name="lefttoright" unicode="&#xf80d;" horiz-adv-x="1145" 
d="M756 1057q-58 69 -102 178h112q110 -123 279 -216v-84q-169 -93 -289 -216h-102q44 108 102 178h-430v-1093h-226v1253h656z" />
    <glyph glyph-name="aprofsilentvibra" unicode="&#xf80f;" horiz-adv-x="1543" 
d="M1437 783h-113q0 139 -122.5 245t-285.5 106v97q209 0 365 -133.5t156 -314.5zM480 483l-196 169l78 68l224 -193q132 20 220 -119h9v647h89q20 -57 73 -93q154 -105 205 -158.5t51 -138.5v-58h-101q0 41 -14.5 68t-83.5 76.5t-97 58.5h-12v-393q0 -81 -37 -139l-5 -6
l160 -137l-79 -67l-160 137q-68 -36 -167 -36q-94 0 -161.5 52.5t-67.5 119.5q0 45 20.5 82t46.5 56zM621 -7q-209 0 -365 133.5t-156 314.5h113q0 -139 122.5 -245t285.5 -106v-97z" />
    <glyph glyph-name="aprofsoundvibra" unicode="&#xf810;" horiz-adv-x="1553" 
d="M1451 783h-114q0 139 -123.5 245t-288.5 106v97q211 0 368.5 -133.5t157.5 -314.5zM1245 607h-102q0 41 -14.5 68t-84.5 76.5t-98 58.5h-12v-393q0 -120 -79 -184t-213 -64q-95 0 -163 52.5t-68 119.5q0 76 61.5 132.5t151.5 56.5q112 0 189 -122h10v647h89
q20 -57 74 -93q156 -105 207.5 -158.5t51.5 -138.5v-58zM626 -7q-211 0 -368.5 133.5t-157.5 314.5h114q0 -139 123.5 -245t288.5 -106v-97z" />
    <glyph glyph-name="aprofsound" unicode="&#xf811;" horiz-adv-x="1196" 
d="M1093 605h-102q0 137 -71 206t-107 82h-16v-530q0 -371 -406 -371q-131 0 -211 60t-80 159q0 108 77 168t207 60q216 0 297 -112h9v903h95q19 -66 103 -135q132 -107 168.5 -181.5t36.5 -216.5v-92zM412 304q0 22 -33 38.5t-77 16.5t-76.5 -16.5t-32.5 -38.5t33 -38
t76 -16t76.5 15.5t33.5 38.5z" />
    <glyph glyph-name="glyph6" horiz-adv-x="1115" 
 />
    <glyph glyph-name="glyph7" horiz-adv-x="1115" 
 />
    <glyph glyph-name="uni2120" unicode="&#x2120;" horiz-adv-x="1544" 
d="M1446 741h-148v338l-161 -176h-80l-160 173v-335h-149v494h120l230 -232l229 232h119v-494zM309 734q-95 0 -190 13v72q105 -16 186 -16q73 0 114.5 15.5t41.5 43.5q0 22 -18.5 36.5t-47 25t-85.5 26.5q-72 24 -107.5 42t-58.5 46t-23 69q0 63 78 97t214 34q96 0 171 -11
v-68q-84 10 -162 10q-63 0 -100 -14t-37 -39q0 -18 23.5 -35.5t124.5 -46.5q73 -22 108 -40.5t59.5 -46.5t24.5 -68q0 -145 -316 -145z" />
    <glyph glyph-name="acaleminus" unicode="&#xf802;" horiz-adv-x="556" 
d="M456 600h-356v158h356v-158z" />
    <glyph glyph-name="awclphone" unicode="&#xf803;" horiz-adv-x="1500" 
d="M1400 521h-235v20q0 31 -77 54.5t-178 23.5h-320q-102 0 -179.5 -23.5t-77.5 -54.5v-18h-233q0 78 68 155q159 83 462 83h240q313 0 452 -74q78 -86 78 -166zM1290 0h-1080v193q0 65 210 249l31 27v129h119v-18h357v18h119v-129q10 -9 32 -27q212 -178 212 -249v-193z
M933 323q0 47 -54.5 81t-130.5 34q-75 0 -129.5 -34t-54.5 -81t54.5 -81t129.5 -34q76 0 130.5 34t54.5 81zM333 432h-233v77h233v-77zM1400 432h-235v76h235v-76z" />
    <glyph glyph-name="awmlarrow" horiz-adv-x="1079" 
d="M1079 764l-539 -434l-540 434h1079z" />
    <glyph glyph-name="alogsam" unicode="&#xf805;" horiz-adv-x="674" 
d="M108 208q0 91 68 154.5t160 63.5q94 0 161.5 -64t67.5 -154q0 -88 -66.5 -152.5t-162.5 -64.5q-94 0 -161 64t-67 153zM471 208q0 53 -39.5 90.5t-95.5 37.5t-95 -38t-39 -90q0 -53 39 -90t95 -37q55 0 95 37t40 90z" />
    <glyph glyph-name="aprofsilent" unicode="&#xf807;" horiz-adv-x="1202" 
d="M1099 605h-103q0 133 -63.5 197t-123.5 91h-8v-326l-108 97v566h96q19 -66 104 -135q132 -107 169 -181.5t37 -216.5v-92zM1133 169l-87 -77l-788 702l86 77zM393 -8q-132 0 -212.5 60t-80.5 159q0 108 77.5 168t207.5 60q168 0 287.5 -96.5t119.5 -126.5
q0 -31 -108 -127.5t-291 -96.5zM414 304q0 22 -33.5 38.5t-77.5 16.5q-45 0 -77 -16.5t-32 -38.5t33 -38t76 -16t77 15.5t34 38.5z" />
    <glyph glyph-name="aimmessage" unicode="&#xf808;" horiz-adv-x="1497" 
d="M1046 548v-60q-173 -66 -274 -219h-48q-101 153 -273 219v60q152 -4 244 -60v507h107v-507q92 56 244 60zM1397 274q0 -101 -101 -187.5t-296 -86.5h-503q-195 0 -296 86.5t-101 187.5h119q0 -65 66 -124t212 -59h503q146 0 212 59t66 124h119z" />
    <glyph glyph-name="abrewtextenter" unicode="&#xf809;" horiz-adv-x="1272" 
d="M802 -6h-148q58 204 135 363h-689v583h226v-357h463q-77 159 -135 363h135q159 -228 383 -402v-148q-224 -174 -370 -402z" />
    <glyph glyph-name="acalehyphen" unicode="&#xf80a;" horiz-adv-x="925" 
d="M825 588h-725v184h725v-184z" />
    <glyph glyph-name="atextenter" unicode="&#xf801;" horiz-adv-x="1145" 
d="M389 243q58 -97 102 -251h-112q-110 174 -279 305v119q169 131 289 305h102q-44 -153 -102 -252h430v250h226v-476h-656z" />
    <glyph glyph-name="asctspace" unicode="&#xf800;" horiz-adv-x="1140" 
d="M1040 0h-940v464h226v-238h488v238h226v-464z" />
    <glyph glyph-name="glyph19" horiz-adv-x="1593" 
d="M284 0v1280h1024v-1280h-1024zM316 32h960v1216h-960v-1216z" />
    <glyph glyph-name="glyph1" horiz-adv-x="0" 
 />
    <glyph glyph-name="glyph2" horiz-adv-x="604" 
 />
    <glyph glyph-name="uni0020" unicode=" " horiz-adv-x="604" 
 />
    <glyph glyph-name="uni0021" unicode="!" horiz-adv-x="503" 
d="M338 214h-201v785h201v-785zM344 142v-142h-207v142h207z" />
    <glyph glyph-name="uni0022" unicode="&#x22;" horiz-adv-x="575" 
d="M466 1026l-22 -207h-92l-23 207h137zM245 1026l-24 -207h-92l-23 207h139z" />
    <glyph glyph-name="uni0023" unicode="#" horiz-adv-x="1312" 
d="M1220 715l-27 -114h-221l-39 -182h219l-26 -116h-219l-66 -303h-180l67 303h-254l-65 -303h-180l65 303h-221l27 116h221l39 182h-221l26 114h221l62 283h180l-61 -283h251l62 283h180l-61 -283h221zM794 601h-252l-39 -182h252z" />
    <glyph glyph-name="uni0024" unicode="$" horiz-adv-x="1040" 
d="M954 856h-406v-279h107q135 0 216 -54t81 -151v-161q0 -104 -83 -158t-227 -54h-94v-106h-67v106h-410v144h410v288h-105q-131 0 -215 54q-90 54 -90 149v155q0 108 98 169q70 43 205 43h107v83h67v-83h406v-145zM481 577v279h-48q-165 0 -165 -103v-72q0 -54 49 -81
q39 -23 125 -23h39zM753 247v81q0 103 -166 103h-39v-288h47q158 0 158 104z" />
    <glyph glyph-name="uni0025" unicode="%" horiz-adv-x="1820" 
d="M1722 145q0 -145 -221 -145h-191q-223 0 -223 143v324q0 144 223 144h191q221 0 221 -144v-322zM1566 168v274q0 38 -21.5 51t-72.5 13h-133q-51 0 -72.5 -13t-21.5 -51v-274q0 -37 21.5 -49.5t72.5 -12.5h133q94 0 94 62zM1374 1003l-780 -1003h-183l781 1003h182z
M696 536q0 -144 -223 -144h-191q-223 0 -223 142v322q0 147 223 147h191q223 0 223 -147v-320zM538 559v274q0 37 -21.5 50.5t-72.5 13.5h-133q-51 0 -72.5 -13.5t-21.5 -50.5v-274q0 -36 21.5 -50t72.5 -14h133q51 0 72.5 14t21.5 50z" />
    <glyph glyph-name="uni0026" unicode="&#x26;" horiz-adv-x="1232" 
d="M1234 0h-262l-63 52q-66 -35 -109 -43.5t-127 -8.5h-276q-135 0 -228 55q-100 59 -100 156v93q0 67 53 127q43 46 178 92q-108 114 -114 123q-19 35 -19 152q0 92 78 147t205 55h176q119 0 196.5 -53t77.5 -139v-81q0 -94 -88 -152q-51 -35 -202 -89l280 -211
q10 27 10 59v141h201v-185q0 -65 -55 -140zM706 732v39q0 93 -119 93h-106q-52 0 -85.5 -25.5t-33.5 -61.5v-43q0 -42 37 -80q8 -10 80 -65l129 46q98 34 98 97zM767 167l-333 256q-99 -34 -113 -42q-55 -31 -55 -79v-60q0 -48 53 -77q47 -24 115 -24h198q80 0 135 26z" />
    <glyph glyph-name="uni0027" unicode="'" horiz-adv-x="360" 
d="M225 1002l-21 -248h-78l-20 248h119z" />
    <glyph glyph-name="uni0028" unicode="(" horiz-adv-x="563" 
d="M484 -200h-223q-78 74 -106 126q-31 59 -31 148v857q0 87 29.5 145t107.5 125h223q-88 -67 -120 -121q-39 -62 -39 -151v-855q0 -87 39 -150q32 -52 120 -124z" />
    <glyph glyph-name="uni0029" unicode=")" horiz-adv-x="557" 
d="M425 74q0 -91 -29.5 -147.5t-109.5 -125.5h-223q88 67 125 125.5t37 149.5v853q0 88 -39 151q-33 51 -123 121h223q80 -68 109.5 -124t29.5 -148v-855z" />
    <glyph glyph-name="uni002A" unicode="*" horiz-adv-x="804" 
d="M722 732l-238 -78l148 -197l-86 -65l-148 203l-147 -201l-88 66l151 194l-233 78l35 102l231 -84l-2 250h111l-4 -250l233 84z" />
    <glyph glyph-name="uni002B" unicode="+" horiz-adv-x="1024" 
d="M956 407h-359v-233h-174v233h-356v107h358v233h174v-233h357v-107z" />
    <glyph glyph-name="uni002C" unicode="," horiz-adv-x="329" 
d="M237 -4q0 -23 -12 -52l-72 -163h-92l61 140q-47 46 -47 80q0 36 23.5 62t58.5 26q33 0 56.5 -29t23.5 -64z" />
    <glyph glyph-name="uni002D" unicode="-" horiz-adv-x="548" 
d="M549 360h-549v103h549v-103z" />
    <glyph glyph-name="uni002E" unicode="." horiz-adv-x="342" 
d="M231 80q0 -39 -24.5 -66.5t-61.5 -27.5t-62.5 27.5t-25.5 64.5q0 39 24.5 67.5t61.5 28.5t62.5 -27.5t25.5 -66.5z" />
    <glyph glyph-name="uni002F" unicode="/" horiz-adv-x="996" 
d="M925 1006l-699 -1006h-169l697 1006h171z" />
    <glyph glyph-name="uni0030" unicode="0" horiz-adv-x="1198" 
d="M1076 227q0 -227 -327 -227h-303q-326 0 -326 225v547q0 114 94 176q82 53 232 53h305q147 0 231 -53q94 -62 94 -176v-545zM880 267v463q0 69 -41 97t-135 28h-209q-94 0 -135 -28t-41 -97v-463q0 -67 41 -94t135 -27h209q92 0 134 27t42 94z" />
    <glyph glyph-name="uni0031" unicode="1" horiz-adv-x="823" 
d="M654 4h-198v853h-244v146h442v-999z" />
    <glyph glyph-name="uni0032" unicode="2" horiz-adv-x="1198" 
d="M1042 784v-84q-2 -56 -2 -84q0 -86 -86 -149q-74 -55 -250 -55q-27 0 -78 1h-74q-96 0 -141 -16q-57 -24 -57 -86v-166h686v-145h-885v345q0 99 82 157.5t217 58.5h211q178 0 178 105v85q0 106 -168 106h-518v144h569q146 0 230 -53q86 -60 86 -164z" />
    <glyph glyph-name="uni0033" unicode="3" horiz-adv-x="1171" 
d="M1016 205q0 -91 -84 -148q-53 -35 -105 -48q-41 -9 -123 -9h-573v146h528q121 0 150 54q10 23 10 136q0 96 -151 96h-244v142h244q151 0 151 99v84q0 61 -43 81q-33 15 -117 15h-528v146h573q152 0 228 -48q84 -52 84 -148v-134q0 -110 -148 -163q25 -11 70 -33
q78 -46 78 -131v-137z" />
    <glyph glyph-name="uni0034" unicode="4" horiz-adv-x="1181" 
d="M1012 0h-199l2 283h-547q-108 0 -153 44q-27 27 -27 60q0 25 16 48l390 563h215l-394 -571h500v571h197v-998z" />
    <glyph glyph-name="uni0035" unicode="5" horiz-adv-x="1198" 
d="M1038 854h-688v-219h383q139 0 220 -60.5t81 -164.5v-193q0 -100 -86 -158.5t-224 -58.5h-573v147h516q170 0 170 101v123q0 51 -41 83.5t-108 32.5h-537v514h887v-147z" />
    <glyph glyph-name="uni0036" unicode="6" horiz-adv-x="1198" 
d="M1089 209q0 -95 -83 -152t-214 -57h-367q-147 0 -232 57.5t-85 177.5v543q0 222 326 222h610v-146h-571q-166 0 -166 -106v-111h487q145 0 215 -54q80 -60 80 -164v-210zM890 250v127q0 109 -166 109h-360q-57 0 -57 -38v-182q0 -120 168 -120h264q151 0 151 104z" />
    <glyph glyph-name="uni0037" unicode="7" horiz-adv-x="1198" 
d="M1046 907q0 -31 -16 -60l-481 -847h-211l485 855h-686v146h754q155 0 155 -94z" />
    <glyph glyph-name="uni0038" unicode="8" horiz-adv-x="1220" 
d="M1087 675q0 -105 -154 -166q152 -60 152 -167v-123q0 -219 -318 -219h-338q-317 0 -317 219v123q0 105 152 167q-154 58 -154 166v115q0 211 328 211h321q328 0 328 -211v-115zM888 684v67q0 102 -168 102h-243q-168 0 -168 -102v-67q0 -101 159 -101h260q160 0 160 101z
M888 250v92q0 46 -49 70t-115 24h-252q-65 0 -114 -24t-49 -70v-92q0 -104 159 -104h260q160 0 160 104z" />
    <glyph glyph-name="uni0039" unicode="9" horiz-adv-x="1220" 
d="M1089 221q0 -221 -326 -221h-610v145h571q166 0 166 106v113h-487q-145 0 -215 54q-80 58 -80 163v208q0 95 82 153t213 58h369q145 0 231 -57t86 -179v-543zM890 551v182q0 123 -168 123h-264q-69 0 -110 -29t-41 -78v-126q0 -110 166 -110h360q57 0 57 38z" />
    <glyph glyph-name="uni003A" unicode=":" horiz-adv-x="357" 
d="M249 574q0 -31 -22.5 -51.5t-54.5 -20.5q-34 0 -56 20.5t-22 50.5q0 29 22 51t54 22q33 0 56 -20.5t23 -51.5zM247 263q0 -32 -22 -54t-52 -22q-31 0 -52.5 22t-21.5 52q0 31 21.5 54t51.5 23q31 0 53 -21.5t22 -53.5z" />
    <glyph glyph-name="uni003B" unicode=";" horiz-adv-x="344" 
d="M253 559q0 -32 -23.5 -55t-56.5 -23q-34 0 -57 23t-23 53q0 32 22.5 56t57.5 24q33 0 56.5 -23t23.5 -55zM255 156q0 -20 -10 -47l-58 -146h-74l49 126q-38 40 -38 72t19 55.5t47 23.5q27 0 46 -26t19 -58z" />
    <glyph glyph-name="uni003C" unicode="&#x3c;" horiz-adv-x="1024" 
d="M956 178l-889 291v102l889 291v-121l-701 -221l701 -223v-119z" />
    <glyph glyph-name="uni003D" unicode="=" horiz-adv-x="1024" 
d="M966 485h-889v129h889v-129zM966 261h-889v111h889v-111z" />
    <glyph glyph-name="uni003E" unicode="&#x3e;" horiz-adv-x="1024" 
d="M956 471l-889 -293v121l700 225l-700 224v120l889 -293v-104z" />
    <glyph glyph-name="uni003F" unicode="?" horiz-adv-x="1048" 
d="M930 588q0 -91 -92 -148q-58 -35 -158 -42h-172q-31 0 -31 -33v-150h-199v171q0 69 59.5 107.5t156.5 38.5q120 0 157 7q82 18 82 86v119q0 109 -149 109h-539v146h594q143 0 217 -60.5t74 -166.5v-184zM479 142v-144h-201v144h201z" />
    <glyph glyph-name="uni0040" unicode="@" horiz-adv-x="1499" 
d="M1431 562q0 -71 -31 -138q-37 -82 -110 -141q-89 -69 -195 -69q-59 0 -101 26t-51 71q-94 -105 -254 -105q-131 0 -212 74q-76 67 -76 165q0 115 98 204q104 95 260 95q158 0 221 -103l23 85h123l-80 -304q-14 -56 -14 -65q0 -66 69 -66q68 0 125 56q43 43 67.5 101.5
t24.5 113.5q0 160 -155 261q-150 95 -375 95q-252 0 -423 -125t-171 -308q0 -180 161.5 -301t440.5 -121q227 0 420 61l33 -81q-197 -63 -451 -63q-313 0 -520 140.5t-207 366.5q0 216 207 365t506 149q270 0 454 -121q193 -125 193 -318zM939 516q0 56 -44 95.5t-122 39.5
q-102 0 -166.5 -63.5t-64.5 -140.5q0 -61 46 -105t130 -44q105 0 168 74q53 64 53 144z" />
    <glyph glyph-name="uni0041" unicode="A" horiz-adv-x="1196" 
d="M1200 0h-213l-119 245h-540l-119 -245h-213l444 909q45 90 158 90t158 -90zM805 382l-217 445l-197 -445h414z" />
    <glyph glyph-name="uni0042" unicode="B" horiz-adv-x="1198" 
d="M1087 229q0 -107 -72 -166q-78 -63 -221 -63h-686v1001h686q291 0 291 -227v-82q0 -74 -23 -110q-26 -47 -110 -82q22 -10 65 -29q54 -34 66 -114q4 -22 4 -128zM890 675v75q0 107 -164 107h-417v-285h424q157 0 157 103zM888 255v67q0 105 -153 105h-428v-282h428
q153 0 153 110z" />
    <glyph glyph-name="uni0043" unicode="C" horiz-adv-x="1118" 
d="M999 855h-524q-86 0 -123 -23q-45 -31 -45 -86v-473q0 -71 40 -99t138 -28h512v-146h-586q-145 0 -224 59.5t-79 165.5v553q0 124 84 177q72 46 235 46h572v-146z" />
    <glyph glyph-name="uni0044" unicode="D" horiz-adv-x="1206" 
d="M1097 229q0 -105 -76.5 -167t-218.5 -62h-694v1001h690q299 0 299 -224v-548zM901 277v460q0 120 -164 120h-430v-712h430q164 0 164 132z" />
    <glyph glyph-name="uni0045" unicode="E" horiz-adv-x="1148" 
d="M956 427h-649v-169q0 -112 174 -112h514v-146h-568q-147 0 -229 51q-90 57 -90 161v563q0 104 80 163.5t221 59.5h586v-146h-516q-172 0 -172 -110v-171h649v-144z" />
    <glyph glyph-name="uni0046" unicode="F" horiz-adv-x="1136" 
d="M997 426h-690v-426h-199v795q0 97 92 157q74 46 219 46h578v-146h-524q-166 0 -166 -103v-179h690v-144z" />
    <glyph glyph-name="uni0047" unicode="G" horiz-adv-x="1193" 
d="M1083 242q0 -116 -76 -175q-82 -67 -221 -67h-346q-162 0 -246 57q-57 38 -76 92q-10 31 -10 108v507q0 70 16 107q23 47 86 83q80 46 230 46h571v-144h-530q-94 0 -131 -23q-43 -26 -43 -92v-478q0 -67 47 -96q37 -22 123 -22h258q151 0 151 112v296h197v-311z" />
    <glyph glyph-name="uni0048" unicode="H" horiz-adv-x="1212" 
d="M1103 0h-198v427h-598v-427h-199v1000h199v-429h598v429h198v-1000z" />
    <glyph glyph-name="uni0049" unicode="I" horiz-adv-x="415" 
d="M307 0h-199v1003h199v-1003z" />
    <glyph glyph-name="uni004A" unicode="J" horiz-adv-x="581" 
d="M473 249q0 -69 -13 -101q-16 -46 -69 -86q-82 -62 -238 -62h-133v146h115q67 4 103 30.5t36 112.5v712h199v-752z" />
    <glyph glyph-name="uni004B" unicode="K" horiz-adv-x="1054" 
d="M1062 0h-235l-453 421q-61 55 -61 84q0 26 59 82l438 413h238l-520 -493zM307 0h-199v1000h199v-1000z" />
    <glyph glyph-name="uni004C" unicode="L" horiz-adv-x="1009" 
d="M997 0h-529q-174 0 -267 53.5t-93 186.5v761h199v-726q0 -77 49 -107q37 -23 158 -23h483v-145z" />
    <glyph glyph-name="uni004D" unicode="M" horiz-adv-x="1585" 
d="M1476 -5h-190v787l-351 -701q-51 -103 -143 -103q-55 0 -90 30q-21 20 -45 67l-359 707v-787h-190v871q0 57 45 94.5t125 37.5q121 0 166 -93l346 -709l352 710q47 94 164 94q82 0 126 -38.5t44 -98.5v-868z" />
    <glyph glyph-name="uni004E" unicode="N" horiz-adv-x="1202" 
d="M1093 120q0 -57 -41 -94q-45 -42 -121 -42q-71 0 -110 32q-17 14 -60 81l-463 705v-804h-190v856q0 146 162 146q74 0 112 -31q21 -17 62 -81l459 -704v807h190v-871z" />
    <glyph glyph-name="uni004F" unicode="O" horiz-adv-x="1177" 
d="M1066 227q0 -227 -327 -227h-301q-158 0 -236 50q-94 60 -94 175v546q0 114 96 177q76 52 234 52h303q325 0 325 -229v-544zM870 263v466q0 70 -41 97.5t-135 27.5h-209q-96 0 -137 -27.5t-41 -97.5v-462q0 -62 45 -95q37 -26 133 -26h209q92 0 134 26t42 91z" />
    <glyph glyph-name="uni0050" unicode="P" horiz-adv-x="1189" 
d="M1089 591q0 -100 -79 -157.5t-216 -57.5h-487v-376h-199v1003h676q131 0 213 -49q88 -54 90 -148q2 -101 2 -215zM890 638v119q0 101 -159 101h-424v-333h419q164 0 164 113z" />
    <glyph glyph-name="uni0051" unicode="Q" horiz-adv-x="1189" 
d="M1077 220q0 -177 -203 -215l197 -153h-271l-194 146h-168q-156 0 -234 43q-96 60 -96 179v554q0 124 96 181q80 46 234 46h309q154 0 233 -46q97 -57 97 -181v-554zM878 253v482q0 69 -43 94t-139 25h-209q-94 0 -137 -25t-43 -94v-476q0 -69 45 -93q39 -24 135 -24h209
q94 0 138 23t44 88z" />
    <glyph glyph-name="uni0052" unicode="R" horiz-adv-x="1163" 
d="M1083 0h-248l-487 384q-25 19 -25 63q0 84 123 84l291 2q145 0 145 100v115q0 105 -164 105h-411v-853h-199v999h668q305 0 305 -213v-173q0 -93 -79 -150t-208 -57h-229z" />
    <glyph glyph-name="uni0053" unicode="S" horiz-adv-x="1087" 
d="M960 854h-510q-125 0 -156 -46q-18 -28 -18 -127q0 -52 47 -81q39 -23 127 -23h211q135 0 216 -54t81 -152v-158q0 -103 -83 -158t-227 -55h-569v146h510q127 0 158 50q14 26 14 135q0 102 -166 102h-211q-131 0 -215 50q-92 55 -92 150v156q0 105 100 167q70 44 203 44
h580v-146z" />
    <glyph glyph-name="uni0054" unicode="T" horiz-adv-x="901" 
d="M889 857h-340v-857h-199v857h-338v146h877v-146z" />
    <glyph glyph-name="uni0055" unicode="U" horiz-adv-x="1200" 
d="M1091 252q0 -68 -14 -104q-19 -49 -73 -89t-114 -52q-41 -7 -135 -7h-311q-90 0 -133 9q-64 12 -115 50q-57 43 -76 89q-12 32 -12 104v748h199v-721q0 -78 41 -105.5t149 -27.5h205q106 0 148 26.5t42 102.5v725h199v-748z" />
    <glyph glyph-name="uni0056" unicode="V" horiz-adv-x="1155" 
d="M1172 1000l-453 -923q-45 -91 -141 -91q-98 0 -143 91l-453 923h211l383 -810l387 810h209z" />
    <glyph glyph-name="uni0057" unicode="W" horiz-adv-x="1603" 
d="M1581 999l-275 -911q-33 -106 -156 -106q-127 0 -155 105l-197 707l-190 -707q-29 -105 -156 -105q-123 0 -156 106l-274 911h195l241 -794l191 693q30 112 151 112q123 0 154 -112l190 -693l242 794h195z" />
    <glyph glyph-name="uni0058" unicode="X" horiz-adv-x="1128" 
d="M1128 0h-233l-336 373l-323 -373h-236l455 508l-437 493h236l307 -352l313 352h236l-436 -491z" />
    <glyph glyph-name="uni0059" unicode="Y" horiz-adv-x="1077" 
d="M1096 1000l-459 -593v-407h-198v407l-457 593h227l324 -434l336 434h227z" />
    <glyph glyph-name="uni005A" unicode="Z" horiz-adv-x="1028" 
d="M977 904q0 -34 -23 -58l-653 -700h651v-146h-710q-58 0 -98 7.5t-67.5 33.5t-27.5 56q0 31 35 70l639 687h-651v146h761q144 0 144 -96z" />
    <glyph glyph-name="uni005B" unicode="[" horiz-adv-x="550" 
d="M448 1094h-117v-1174h115v-114h-293v1398h295v-110z" />
    <glyph glyph-name="uni005C" unicode="\" horiz-adv-x="915" 
d="M799 -8h-155l-636 1011h155z" />
    <glyph glyph-name="uni005D" unicode="]" horiz-adv-x="550" 
d="M389 -196h-293v113h115v1176h-115v111h293v-1400z" />
    <glyph glyph-name="uni005E" unicode="^" horiz-adv-x="731" 
d="M657 733h-122l-185 191l-184 -191h-123l231 244h152z" />
    <glyph glyph-name="uni005F" unicode="_" horiz-adv-x="1024" 
d="M1028 2h-1024v115h1024v-115z" />
    <glyph glyph-name="uni0060" unicode="`" horiz-adv-x="636" 
d="M427 1006h-108l-111 194h121z" />
    <glyph glyph-name="uni0061" unicode="a" horiz-adv-x="1071" 
d="M962 188q0 -84 -66.5 -136t-181.5 -52h-336q-120 0 -192 45q-78 49 -78 137v133q0 91 69.5 140t190.5 49h420q-2 63 -25 90q-28 31 -110 31h-541v129h565q285 0 285 -191v-375zM786 213v145q0 25 -41 25h-336q-125 0 -125 -94v-74q0 -41 37 -62.5t90 -21.5h252
q123 0 123 82z" />
    <glyph glyph-name="uni0062" unicode="b" horiz-adv-x="1079" 
d="M284 999v-249h420q123 0 194.5 -54.5t71.5 -143.5v-351q0 -201 -268 -201h-309q-119 0 -202 49t-83 156v794h176zM794 232v286q0 105 -143 105h-324q-43 0 -43 -32v-366q0 -96 154 -96h213q80 0 116 30q27 18 27 73z" />
    <glyph glyph-name="uni0063" unicode="c" horiz-adv-x="858" 
d="M794 0h-399q-287 0 -287 199v364q0 191 242 191h440v-129h-367q-77 0 -108 -20.5t-31 -76.5v-299q0 -100 148 -100h362v-129z" />
    <glyph glyph-name="uni0064" unicode="d" horiz-adv-x="1079" 
d="M970 1001v-790q0 -113 -83 -162t-201 -49h-310q-268 0 -268 205v360q0 92 71.5 146.5t194.5 54.5h420v235h176zM794 229v375q0 31 -43 31h-324q-143 0 -143 -107v-290q0 -56 27 -78q37 -29 116 -29h213q154 0 154 98z" />
    <glyph glyph-name="uni0065" unicode="e" horiz-adv-x="1038" 
d="M960 455l-674 -199v-25q0 -59 45 -86q31 -16 107 -16h520v-129h-553q-143 0 -211 43q-86 51 -86 162v356q0 191 281 191h309q262 0 262 -203v-94zM780 528v11q0 86 -140 86h-194q-162 0 -162 -97v-147z" />
    <glyph glyph-name="uni0066" unicode="f" horiz-adv-x="616" 
d="M509 623h-224l-1 -623h-176v821q0 83 77 132.5t193 49.5h131v-122h-92q-59 0 -96 -27.5t-37 -69.5v-34h225v-127z" />
    <glyph glyph-name="uni0067" unicode="g" horiz-adv-x="1075" 
d="M966 -85q0 -211 -299 -211h-559v134h537q94 0 125 39q20 30 20 104h-387q-145 0 -218 51.5t-73 143.5v365q0 110 63.5 163.5t211.5 53.5h292q150 0 218.5 -46t68.5 -156v-641zM792 144v368q0 58 -29 79q-45 36 -118 36h-220q-139 0 -139 -107v-304q0 -102 154 -102h313
q39 0 39 30z" />
    <glyph glyph-name="uni0068" unicode="h" horiz-adv-x="1067" 
d="M284 1000v-251h393q281 0 281 -239v-506h-174v450q0 75 -31 105t-110 30h-316q-43 0 -43 -40v-547h-176v998h176z" />
    <glyph glyph-name="uni0069" unicode="i" horiz-adv-x="395" 
d="M257 0h-176v752h176v-752zM257 998v-131h-168v131h168z" />
    <glyph glyph-name="uni006A" unicode="j" horiz-adv-x="393" 
d="M285 -89q0 -99 -71.5 -153t-202.5 -54h-127v132h91q59 0 96.5 26.5t37.5 70.5v817h176v-839zM285 1002v-131h-168v131h168z" />
    <glyph glyph-name="uni006B" unicode="k" horiz-adv-x="929" 
d="M917 0h-217l-375 333q-31 26 -31 50q0 26 35 58l354 309h211l-411 -367zM284 0h-176v1003h176v-1003z" />
    <glyph glyph-name="uni006C" unicode="l" horiz-adv-x="393" 
d="M284 0h-176v1000h176v-1000z" />
    <glyph glyph-name="uni006D" unicode="m" horiz-adv-x="1462" 
d="M1177 4v459q0 94 -74 119q-28 8 -164 8q-59 0 -96 -39q-24 -25 -24 -92v-455h-174v455q0 96 -64 121q-33 10 -162 10q-137 0 -137 -127l2 -459h-176v498q0 246 256 246h160q78 0 123 -20.5t86 -76.5q73 97 211 97h157q117 0 184.5 -66t67.5 -180v-498h-176z" />
    <glyph glyph-name="uni006E" unicode="n" horiz-adv-x="1013" 
d="M735 2v477q0 115 -148 115h-196q-150 0 -150 -115v-477h-176v522q0 230 268 230h310q266 0 266 -230v-522h-174z" />
    <glyph glyph-name="uni006F" unicode="o" horiz-adv-x="1056" 
d="M940 186q0 -96 -86 -147q-61 -39 -184 -39h-305q-140 0 -209.5 50t-69.5 136v375q0 98 88 152q64 39 191 39h305q127 0 186 -39q84 -51 84 -152v-375zM764 221v305q0 52 -41 76q-33 23 -102 23h-209q-72 0 -107 -23q-43 -24 -43 -76v-303q0 -49 43 -73q33 -21 94 -21h234
q59 0 90 21q41 24 41 71z" />
    <glyph glyph-name="uni0070" unicode="p" horiz-adv-x="1071" 
d="M960 188q0 -82 -72.5 -134t-185.5 -52h-418v-300h-176v853q0 201 260 201h315q277 0 277 -197v-371zM786 227v308q0 92 -141 92h-215q-146 0 -146 -103v-362q0 -33 47 -33h324q131 0 131 98z" />
    <glyph glyph-name="uni0071" unicode="q" horiz-adv-x="1071" 
d="M960 -300l-173 -1l-1 301h-420q-113 0 -185.5 51t-72.5 133v369q0 195 276 195h318q258 0 258 -199v-849zM786 158v360q0 103 -146 103h-217q-139 0 -139 -93v-305q0 -96 131 -96h324q47 0 47 31z" />
    <glyph glyph-name="uni0072" unicode="r" horiz-adv-x="624" 
d="M548 633q-204 0 -237 -8q-70 -21 -70 -101v-520h-182v555q0 203 285 203h204v-129z" />
    <glyph glyph-name="uni0073" unicode="s" horiz-adv-x="956" 
d="M855 623h-465q-63 0 -94 -15q-43 -20 -43 -55v-31q0 -78 141 -78h230q100 0 164.5 -49t64.5 -125v-92q0 -72 -65 -127q-39 -35 -82 -43q-35 -8 -103 -8h-526v129h479q74 0 99 29q18 22 18 80q0 77 -115 77h-217q-110 0 -182 43q-80 48 -80 125v101q0 84 92 135
q56 33 172 33h512v-129z" />
    <glyph glyph-name="uni0074" unicode="t" horiz-adv-x="602" 
d="M507 615h-223v-615h-176v1003h176v-262h223v-126z" />
    <glyph glyph-name="uni0075" unicode="u" horiz-adv-x="1071" 
d="M284 752v-467q0 -58 39 -95q31 -28 119 -28h188q156 0 156 119v471h176v-514q0 -238 -276 -238h-302q-276 0 -276 238v514h176z" />
    <glyph glyph-name="uni0076" unicode="v" horiz-adv-x="1007" 
d="M1018 762l-395 -711q-35 -63 -119 -63t-119 63l-397 711h182l332 -598l336 598h180z" />
    <glyph glyph-name="uni0077" unicode="w" horiz-adv-x="1374" 
d="M1345 764l-219 -672q-35 -106 -146 -106q-106 0 -139 100l-158 492l-151 -492q-31 -100 -144 -100q-108 0 -143 106l-217 672h172l197 -600l163 508q31 98 127 98q97 0 127 -98l162 -508l197 600h172z" />
    <glyph glyph-name="uni0078" unicode="x" horiz-adv-x="935" 
d="M928 0h-211l-250 262l-250 -262h-209l362 387l-339 367h206l228 -242l231 242h207l-336 -367z" />
    <glyph glyph-name="uni0079" unicode="y" horiz-adv-x="1067" 
d="M708 2h-324q-124 0 -194 62q-80 70 -80 182l1 506h175v-461q0 -128 137 -128h316q45 0 45 49v538h176v-828q0 -112 -69.5 -183t-190.5 -71h-553v167h504q88 0 116 47q17 31 17 120v21z" />
    <glyph glyph-name="uni007A" unicode="z" horiz-adv-x="1003" 
d="M948 664q0 -41 -37 -68l-620 -465h632v-131h-716q-64 0 -111 24.5t-47 69.5q0 35 49 74l604 461h-633v129h719q160 0 160 -94z" />
    <glyph glyph-name="uni007B" unicode="{" horiz-adv-x="571" 
d="M529 -204h-83q-154 0 -221.5 53.5t-67.5 172.5v285q0 121 -117 141v107q117 21 117 133v299q0 115 70.5 164.5t222.5 49.5q53 0 79 -2v-117q-114 0 -151 -19q-47 -27 -47 -110v-273q0 -74 -21 -107q-26 -44 -104 -76q74 -32 100 -77q25 -38 25 -107v-266q0 -95 53 -116
q37 -15 145 -15v-120z" />
    <glyph glyph-name="uni007C" unicode="|" horiz-adv-x="1024" 
d="M599 -98h-176v1198h176v-1198z" />
    <glyph glyph-name="uni007D" unicode="}" horiz-adv-x="571" 
d="M529 443q-114 -22 -114 -133v-284q0 -130 -80 -179q-72 -46 -248 -46h-22q-17 2 -25 2v118q106 0 145 16q54 21 54 113v267q0 68 22 106q27 45 103 77q-74 31 -101 74q-24 38 -24 109v272q0 85 -47 109q-35 19 -152 19v116q27 2 80 2q151 0 223 -49t72 -165v-296
q0 -119 114 -143v-105z" />
    <glyph glyph-name="uni007E" unicode="~" horiz-adv-x="1366" 
d="M1280 479q-60 -73 -103 -108q-106 -82 -268 -82q-80 0 -254 57t-239 57q-74 0 -129 -38q-33 -25 -84 -86l-113 53q82 106 131 141q84 59 209 59q96 0 271 -59t245 -59q76 0 129 35q33 20 88 81z" />
    <glyph glyph-name="uni00C4" unicode="&#xc4;" horiz-adv-x="1196" 
d="M821 1166q0 -28 -25 -50.5t-59 -22.5q-35 0 -60 21.5t-25 49.5q0 31 24 53t61 22q34 0 59 -22t25 -51zM533 1165q0 -30 -25.5 -51.5t-60.5 -21.5q-37 0 -61.5 21.5t-24.5 50.5q0 31 24.5 52t61.5 21q35 0 60.5 -21t25.5 -51zM1200 0h-213l-119 246h-540l-119 -246h-213
l444 912q45 89 158 89t158 -89zM805 384l-217 444l-197 -444h414z" />
    <glyph glyph-name="uni00C5" unicode="&#xc5;" horiz-adv-x="1196" 
d="M710 1144q0 -44 -35.5 -76t-83.5 -32q-50 0 -84.5 31.5t-34.5 76.5t35.5 76.5t83.5 31.5t83.5 -31.5t35.5 -76.5zM661 1144q0 27 -21 45.5t-49 18.5q-29 0 -50 -18.5t-21 -45.5q0 -26 21 -44.5t50 -18.5q28 0 49 18.5t21 44.5zM1200 -10h-213l-119 249h-540l-119 -249
h-213l444 919q45 92 158 92t158 -92zM805 378l-217 448l-197 -448h414z" />
    <glyph glyph-name="uni00C7" unicode="&#xc7;" horiz-adv-x="1062" 
d="M411 0q-145 0 -224 57.5t-79 163.5v557q0 121 84 176q72 46 235 46h572v-147h-524q-86 0 -123 -22q-45 -31 -45 -88v-473q0 -72 40 -100t138 -28h512v-142h-586zM752 -97q0 -49 -54 -76q-45 -27 -104 -27q-62 0 -146 30l21 38q68 -22 113 -22q84 0 84 53q0 48 -72 48
q-23 0 -62 -12l-24 21l71 112l64 -14l-59 -74q28 5 51 5q49 0 83 -21.5t34 -60.5z" />
    <glyph glyph-name="Eacute" unicode="&#xc9;" horiz-adv-x="1087" 
d="M770 1262l-152 -179h-148l134 179h166zM995 0h-568q-147 0 -229 52q-90 56 -90 162v565q0 105 80 164t221 59h586v-145h-516q-172 0 -172 -114v-170h688v-144h-688v-169q0 -113 174 -113h514v-147z" />
    <glyph glyph-name="Ntilde" unicode="&#xd1;" horiz-adv-x="1202" 
d="M929 1109l-65 -15q-8 0 -66 -20q-37 -9 -69 -9q-43 0 -126 22t-128 22q-41 0 -201 -42v87q27 3 78 17q108 26 127 26q39 0 123 -21.5t120 -21.5q25 0 115 23q27 7 92 18v-86zM1093 119q0 -56 -41 -94q-45 -41 -121 -41q-71 0 -110 31q-17 14 -60 81l-463 706v-805h-190
v857q0 145 162 145q74 0 112 -32q21 -15 62 -79l459 -704v818h190v-883z" />
    <glyph glyph-name="uni00D6" unicode="&#xd6;" horiz-adv-x="1177" 
d="M816 1158q0 -30 -25.5 -52.5t-61.5 -22.5q-33 0 -58.5 21.5t-25.5 52.5q0 32 24.5 54.5t59.5 22.5q36 0 61.5 -22.5t25.5 -53.5zM530 1153q0 -31 -26 -54t-63 -23q-36 0 -62 22t-26 55q0 34 25 57t63 23q37 0 63 -23t26 -57zM1066 226q0 -226 -327 -226h-301
q-158 0 -236 50q-94 59 -94 174v548q0 113 96 176q76 51 234 51h303q325 0 325 -227v-546zM870 264v465q0 68 -41 96.5t-135 28.5h-209q-96 0 -137 -27.5t-41 -97.5v-462q0 -62 45 -95q37 -26 133 -26h209q92 0 134 25.5t42 92.5z" />
    <glyph glyph-name="Udieresis" unicode="&#xdc;" horiz-adv-x="1200" 
d="M841 1158q0 -30 -29.5 -54t-68.5 -24q-41 0 -69.5 23t-28.5 55q0 33 27.5 57t70.5 24q39 0 68.5 -24t29.5 -57zM554 1158q0 -30 -29.5 -54t-70.5 -24t-69.5 23t-28.5 55q0 33 27.5 57t70.5 24q41 0 70.5 -24t29.5 -57zM1091 251q0 -67 -14 -103q-19 -49 -73 -89t-114 -52
q-41 -7 -135 -7h-311q-90 0 -133 9q-64 13 -115 50q-57 40 -76 89q-12 33 -12 103v750h199v-721q0 -79 41 -106.5t149 -27.5h205q106 0 148 26.5t42 103.5v725h199v-750z" />
    <glyph glyph-name="aacute" unicode="&#xe1;" horiz-adv-x="1071" 
d="M689 998l-151 -178h-148l134 178h165zM962 187q0 -85 -66.5 -136t-181.5 -51h-336q-120 0 -192 45q-78 48 -78 133v134q0 89 69.5 138t190.5 49h420q-2 64 -25 87q-28 34 -110 34h-541v127h565q285 0 285 -190v-370zM786 213v142q0 23 -41 23h-336q-125 0 -125 -92v-73
q0 -39 37 -62t90 -23h252q123 0 123 85z" />
    <glyph glyph-name="uni00E0" unicode="&#xe0;" horiz-adv-x="1071" 
d="M683 823h-147l-152 178h166zM962 187q0 -85 -66.5 -136t-181.5 -51h-336q-120 0 -192 45q-78 48 -78 133v134q0 89 69.5 138t190.5 49h420q-2 64 -25 87q-28 34 -110 34h-541v127h565q285 0 285 -190v-370zM786 213v142q0 23 -41 23h-336q-125 0 -125 -92v-73
q0 -39 37 -62t90 -23h252q123 0 123 85z" />
    <glyph glyph-name="uni00E2" unicode="&#xe2;" horiz-adv-x="1071" 
d="M792 832h-143l-123 124l-109 -124h-141l149 165h205zM962 186q0 -83 -66.5 -134.5t-181.5 -51.5h-336q-120 0 -192 45q-78 47 -78 135v133q0 88 69.5 137t190.5 49h420q-2 65 -25 88q-28 35 -110 35h-541v127h565q285 0 285 -192v-371zM786 213v143q0 23 -41 23h-336
q-125 0 -125 -92v-72q0 -41 37 -63.5t90 -22.5h252q123 0 123 84z" />
    <glyph glyph-name="uni00E4" unicode="&#xe4;" horiz-adv-x="1071" 
d="M770 914q0 -35 -29 -60t-68 -25t-66.5 25t-27.5 58q0 36 26.5 61t67.5 25q39 0 68 -25t29 -59zM489 915q0 -35 -27.5 -60t-64.5 -25t-63.5 25t-26.5 58q0 36 25.5 61t64.5 25q37 0 64.5 -25t27.5 -59zM962 185q0 -82 -66.5 -133.5t-181.5 -51.5h-336q-120 0 -192 45
q-78 48 -78 134v134q0 88 69.5 137.5t190.5 49.5h420q-2 63 -25 89q-28 32 -110 32h-541v128h565q285 0 285 -191v-373zM786 212v144q0 23 -41 23h-336q-125 0 -125 -93v-72q0 -39 37 -63t90 -24h252q123 0 123 85z" />
    <glyph glyph-name="uni00E3" unicode="&#xe3;" horiz-adv-x="1071" 
d="M862 919l-66 -16q-8 0 -65 -19q-37 -8 -70 -8q-43 0 -126 21.5t-128 21.5q-41 0 -201 -41v86q27 4 78 17q109 26 127 26q39 0 123 -21.5t121 -21.5q24 0 115 21q26 8 92 19v-85zM962 184q0 -81 -66.5 -132.5t-181.5 -51.5h-336q-120 0 -192 45q-78 47 -78 133v133
q0 88 69.5 136.5t190.5 48.5h420q-2 61 -25 88q-28 32 -110 32h-541v127h565q285 0 285 -190v-369zM786 211v141q0 23 -41 23h-336q-125 0 -125 -90v-72q0 -39 37 -62.5t90 -23.5h252q123 0 123 84z" />
    <glyph glyph-name="uni00E5" unicode="&#xe5;" horiz-adv-x="1071" 
d="M656 903q0 -38 -39.5 -66t-93.5 -28q-55 0 -94.5 28t-39.5 66q0 39 39.5 67t94.5 28q54 0 93.5 -28t39.5 -67zM605 903q0 24 -25 41t-57 17q-33 0 -58 -17t-25 -41t24 -41t59 -17q32 0 57 17.5t25 40.5zM962 187q0 -85 -66.5 -136t-181.5 -51h-336q-120 0 -192 45
q-78 49 -78 134v134q0 90 69.5 138.5t190.5 48.5h420q-2 65 -25 88q-28 34 -110 34h-541v128h565q285 0 285 -191v-372zM786 213v143q0 24 -41 24h-336q-125 0 -125 -93v-74q0 -38 37 -61.5t90 -23.5h252q123 0 123 85z" />
    <glyph glyph-name="uni00E7" unicode="&#xe7;" horiz-adv-x="900" 
d="M545 0l-7 -15q110 -19 110 -78q0 -52 -58 -81.5t-142 -29.5q-35 0 -70 5v56q29 -3 48 -3q50 0 84.5 12t34.5 30q0 45 -116 45l48 94l93 -35h-25zM791 0h-399q-287 0 -287 199v364q0 191 242 191h440v-129h-367q-77 0 -108 -20.5t-31 -76.5v-299q0 -100 148 -100h362v-129
z" />
    <glyph glyph-name="uni00E8" unicode="&#xe8;" horiz-adv-x="1093" 
d="M683 843h-147l-152 181h166zM960 455l-674 -200v-23q0 -61 45 -86q31 -16 107 -16h520v-130h-553q-143 0 -211 42q-86 52 -86 161v355q0 192 281 192h309q262 0 262 -200v-95zM780 526v13q0 83 -140 83h-194q-162 0 -162 -96v-148z" />
    <glyph glyph-name="eacute" unicode="&#xe9;" horiz-adv-x="1075" 
d="M706 999l-152 -181h-147l133 181h166zM960 456l-674 -201v-22q0 -60 45 -86q31 -19 107 -19h520v-128h-553q-143 0 -211 42q-86 52 -86 162v356q0 191 281 191h309q262 0 262 -199v-96zM780 528v12q0 84 -140 84h-194q-162 0 -162 -96v-147z" />
    <glyph glyph-name="uni00EA" unicode="&#xea;" horiz-adv-x="1075" 
d="M795 835l-143 -2l-123 126l-109 -124h-141l149 163h205zM960 454l-674 -201v-23q0 -58 45 -84q31 -18 107 -18h520v-128h-553q-143 0 -211 42q-86 52 -86 161v354q0 190 281 190h309q262 0 262 -200v-93zM780 525v11q0 83 -140 83h-194q-162 0 -162 -94v-148z" />
    <glyph glyph-name="uni00EB" unicode="&#xeb;" horiz-adv-x="1083" 
d="M784 941q0 -31 -31 -55t-72 -24q-43 0 -72.5 22.5t-29.5 54.5q0 34 28.5 57.5t73.5 23.5q41 0 72 -23.5t31 -55.5zM489 943q0 -31 -29.5 -56t-70.5 -25t-71 24t-30 55q0 34 29 58.5t72 24.5q41 0 70.5 -24.5t29.5 -56.5zM960 454l-674 -199v-24q0 -59 45 -85
q31 -18 107 -18h520v-128h-553q-143 0 -211 43q-86 50 -86 161v353q0 191 281 191h309q262 0 262 -200v-94zM780 527v10q0 85 -140 85h-194q-162 0 -162 -95v-148z" />
    <glyph glyph-name="iacute" unicode="&#xed;" horiz-adv-x="387" 
d="M374 998l-156 -123h-151l137 123h170zM277 0h-169v752h169v-752z" />
    <glyph glyph-name="uni00EC" unicode="&#xec;" horiz-adv-x="415" 
d="M358 1149h-147l-152 190h166zM307 0h-199v1063h199v-1063z" />
    <glyph glyph-name="uni00EE" unicode="&#xee;" horiz-adv-x="415" 
d="M341 871h-98l-81 94l-72 -94h-96l101 126h137zM270 0h-198v754h198v-754z" />
    <glyph glyph-name="uni00EF" unicode="&#xef;" horiz-adv-x="399" 
d="M371 936q0 -25 -19 -42q-23 -22 -59 -22q-35 0 -56 22q-20 17 -20 42q0 23 20.5 43.5t55.5 20.5q36 0 57 -20t21 -44zM178 932q0 -25 -21 -46t-57 -21q-35 0 -56 23q-20 18 -20 44q0 23 20.5 45t55.5 22q36 0 57 -21t21 -46zM296 0h-199v750h199v-750z" />
    <glyph glyph-name="ntilde" unicode="&#xf1;" horiz-adv-x="1060" 
d="M860 954l-66 -16q-8 -2 -66 -23q-36 -14 -69 -14q-43 0 -126 27.5t-128 27.5q-41 0 -201 -51v107q27 6 78 20q109 33 127 33q39 0 123 -26.5t121 -26.5q24 0 114 26q27 11 93 25v-109zM780 2v469q0 113 -148 113h-196q-150 0 -150 -113v-467h-176v512q0 223 268 223h310
q266 0 266 -223v-514h-174z" />
    <glyph glyph-name="oacute" unicode="&#xf3;" horiz-adv-x="1071" 
d="M691 1002l-152 -180h-147l133 180h166zM962 187q0 -99 -86 -149q-61 -38 -184 -38h-305q-140 0 -209.5 49t-69.5 138v372q0 98 88 149q64 40 191 40h305q127 0 186 -37q84 -52 84 -152v-372zM786 221v302q0 50 -41 78q-33 20 -102 20h-209q-72 0 -107 -20
q-43 -26 -43 -78v-300q0 -50 43 -75q33 -19 94 -19h234q59 0 90 19q41 25 41 73z" />
    <glyph glyph-name="uni00F2" unicode="&#xf2;" horiz-adv-x="1071" 
d="M686 824h-148l-151 174h165zM962 187q0 -99 -86 -149q-61 -38 -184 -38h-305q-140 0 -209.5 49.5t-69.5 137.5v372q0 99 88 151q64 38 191 38h305q127 0 186 -38q84 -52 84 -151v-372zM786 221v302q0 51 -41 78q-33 21 -102 21h-209q-72 0 -107 -21q-43 -25 -43 -78v-300
q0 -51 43 -76q33 -19 94 -19h234q59 0 90 19q41 25 41 74z" />
    <glyph glyph-name="uni00F4" unicode="&#xf4;" horiz-adv-x="1071" 
d="M795 833l-143 -2l-123 126l-109 -124h-141l149 164h205zM962 188q0 -99 -86 -150q-61 -38 -184 -38h-305q-140 0 -209.5 49.5t-69.5 138.5v372q0 99 88 151q64 39 191 39h305q127 0 186 -36q84 -53 84 -154v-372zM786 222v302q0 50 -41 78q-33 21 -102 21h-209
q-72 0 -107 -21q-43 -26 -43 -78v-300q0 -51 43 -77q33 -18 94 -18h234q59 0 90 18q41 26 41 75z" />
    <glyph glyph-name="uni00F6" unicode="&#xf6;" horiz-adv-x="1071" 
d="M770 920q0 -31 -27 -54.5t-61 -23.5q-36 0 -61.5 22.5t-25.5 55.5q0 32 24.5 55.5t62.5 23.5q34 0 61 -23.5t27 -55.5zM461 920q0 -31 -26 -54.5t-63 -23.5t-62.5 22.5t-25.5 55.5q0 32 25.5 55.5t62.5 23.5t63 -23.5t26 -55.5zM962 186q0 -98 -86 -148q-61 -38 -184 -38
h-305q-140 0 -209.5 49t-69.5 137v372q0 99 88 151q64 40 191 40h305q127 0 186 -38q84 -52 84 -153v-372zM786 220v303q0 50 -41 77q-33 21 -102 21h-209q-72 0 -107 -21q-43 -25 -43 -77v-301q0 -48 43 -75q33 -19 94 -19h234q59 0 90 19q41 27 41 73z" />
    <glyph glyph-name="uni00F5" unicode="&#xf5;" horiz-adv-x="1071" 
d="M862 922l-66 -13q-8 -2 -65 -19q-37 -10 -70 -10q-43 0 -126 22t-128 22q-41 0 -201 -42v86q27 6 78 17q109 27 127 27q39 0 123 -22t121 -22q24 0 115 23q26 9 92 19v-88zM962 187q0 -99 -86 -149q-61 -38 -184 -38h-305q-140 0 -209.5 49t-69.5 138v370q0 98 88 150
q64 40 191 40h305q127 0 186 -37q84 -53 84 -153v-370zM786 220v301q0 52 -41 78q-33 20 -102 20h-209q-72 0 -107 -20q-43 -26 -43 -78v-299q0 -50 43 -75q33 -19 94 -19h234q59 0 90 19q41 25 41 73z" />
    <glyph glyph-name="uacute" unicode="&#xfa;" horiz-adv-x="1071" 
d="M669 1003l-151 -179h-148l133 179h166zM284 749v-467q0 -57 39 -93q31 -27 119 -27h188q156 0 156 118v469h176v-514q0 -235 -276 -235h-302q-276 0 -276 235v514h176z" />
    <glyph glyph-name="uni00F9" unicode="&#xf9;" horiz-adv-x="1071" 
d="M677 857h-147l-152 144h166zM284 749v-467q0 -57 39 -93q31 -27 119 -27h188q156 0 156 118v469h176v-514q0 -235 -276 -235h-302q-276 0 -276 235v514h176z" />
    <glyph glyph-name="uni00FB" unicode="&#xfb;" horiz-adv-x="1071" 
d="M770 867l-130 -2l-112 178l-98 -176h-127l135 233h186zM284 748v-467q0 -56 39 -93q31 -27 119 -27h188q156 0 156 118v469h176v-513q0 -235 -276 -235h-302q-276 0 -276 235v513h176z" />
    <glyph glyph-name="udieresis" unicode="&#xfc;" horiz-adv-x="1071" 
d="M750 920q0 -32 -26.5 -56t-63.5 -24t-62 23t-25 56q0 35 25 59t62 24t63.5 -24t26.5 -58zM486 917q0 -32 -25 -56.5t-59 -24.5t-57.5 23.5t-23.5 56.5q0 34 23 59t58 25q34 0 59 -25t25 -58zM284 749v-467q0 -57 39 -93q31 -27 119 -27h188q156 0 156 118v469h176v-514
q0 -235 -276 -235h-302q-276 0 -276 235v514h176z" />
    <glyph glyph-name="uni2020" unicode="&#x2020;" horiz-adv-x="1048" 
d="M985 639h-375v-849h-172v849h-375v121h375v301h172v-301h375v-121z" />
    <glyph glyph-name="uni00B0" unicode="&#xb0;" horiz-adv-x="1024" 
d="M704 1231q0 -78 -54.5 -134.5t-130.5 -56.5q-77 0 -131.5 56.5t-54.5 134.5t54.5 134t131.5 56q76 0 130.5 -56t54.5 -134zM632 1231q0 47 -34 82t-79 35q-47 0 -80.5 -35t-33.5 -82q0 -49 32.5 -83t81.5 -34q45 0 79 35t34 82z" />
    <glyph glyph-name="uni00A2" unicode="&#xa2;" horiz-adv-x="892" 
d="M990 2h-233v-161l-64 44v117h-102q-287 0 -287 274v507q0 266 242 266h147v152h64v-152h229v-181h-229v-689h233v-177zM693 179v689h-74q-77 0 -108 -27.5t-31 -106.5v-416q0 -139 146 -139h67zM693 -114h63v-45h-63v45z" />
    <glyph glyph-name="uni00A3" unicode="&#xa3;" horiz-adv-x="1228" 
d="M1200 244q0 -111 -99.5 -177.5t-238.5 -66.5h-817v156q117 18 164 59q57 53 57 121v129h-221v158h223v211q0 241 289 241h152q153 0 229 -69q70 -64 70 -158v-88h-201v47q0 47 -35 79t-94 32h-78q-129 0 -129 -105v-190h410l2 -158h-414q-2 -150 -6 -166
q-17 -84 -96 -143h469q65 0 113 33.5t48 84.5v50h203v-80z" />
    <glyph glyph-name="uni00A7" unicode="&#xa7;" horiz-adv-x="1095" 
d="M1021 385q0 -143 -209 -199q111 -69 111 -157q0 -104 -117 -168q-104 -57 -258 -57q-182 0 -285.5 71.5t-103.5 200.5h160q12 -170 229 -170q82 0 141.5 33t59.5 88q0 53 -59.5 91t-315.5 140q-90 33 -112 45q-64 27 -105 53q-88 62 -88 154q0 143 207 199
q-92 61 -92 145q0 100 112 158q101 53 246 53q170 0 271.5 -67.5t103.5 -188.5h-160q-10 160 -215 160q-78 0 -129 -31q-57 -31 -57 -86q0 -43 41 -76q28 -24 155 -74q107 -38 310 -127q159 -83 159 -190zM864 371q0 47 -58 86q-67 45 -213 102q-202 80 -223 90
q-143 -39 -143 -131q0 -24 18 -49q39 -47 295 -152q33 -12 96 -38q25 -15 78 -33q150 37 150 125z" />
    <glyph glyph-name="uni2022" unicode="&#x2022;" horiz-adv-x="563" 
d="M501 682q0 -88 -58 -152.5t-142 -64.5t-143.5 64.5t-59.5 152.5t59.5 152.5t143.5 64.5t142 -64.5t58 -152.5z" />
    <glyph glyph-name="uni00B6" unicode="&#xb6;" horiz-adv-x="1228" 
d="M1150 956h-129v-1171h-149v1171h-205v-1171h-152v750h-26q-164 0 -266 67q-109 72 -109 191q0 114 105.5 189t351.5 75h579v-101z" />
    <glyph glyph-name="uni00DF" unicode="&#xdf;" horiz-adv-x="1128" 
d="M1034 216q0 -95 -79 -155.5t-210 -60.5h-402v128h367q68 0 110 30t42 78v130q0 62 -54.5 92.5t-136.5 30.5h-328v124h207q146 0 146 97v71q0 35 -37 62.5t-86 27.5h-148q-139 0 -139 -102v-769h-176v785q0 99 70.5 156.5t205.5 57.5h220q110 0 187 -51t77 -132v-84
q0 -92 -101 -137q119 -20 189 -73q76 -59 76 -145v-161z" />
    <glyph glyph-name="uni00AE" unicode="&#xae;" horiz-adv-x="1030" 
d="M507 1119q170 0 290 -105t120 -253q0 -149 -120 -254.5t-290 -105.5t-290 105.5t-120 254.5q0 148 120 253t290 105zM507 458q143 0 244.5 89t101.5 213q0 125 -101.5 213.5t-244.5 88.5q-142 0 -243 -89t-101 -213q0 -125 100.5 -213.5t243.5 -88.5zM689 561h-81
l-128 176h-41v-176h-69v401h128q70 0 108 -28.5t38 -80.5q0 -76 -94 -103zM439 785h48q36 0 61 20t25 47q0 28 -22 44.5t-62 16.5h-50v-128z" />
    <glyph glyph-name="uni00A9" unicode="&#xa9;" horiz-adv-x="1049" 
d="M519 1123q170 0 290 -104.5t120 -252.5q0 -149 -120 -254t-290 -105t-290 105t-120 254q0 148 120 252.5t290 104.5zM519 464q143 0 244.5 88.5t101.5 212.5q0 125 -101.5 213t-244.5 88q-142 0 -243 -88.5t-101 -212.5q0 -125 100.5 -213t243.5 -88zM665 603
q-57 -43 -135 -43q-93 0 -150 58.5t-57 147.5q0 92 55.5 149.5t151.5 57.5q70 0 128 -33l-25 -45q-57 24 -103 24q-64 0 -99 -41t-35 -112q0 -70 35 -112t99 -42q59 0 110 34z" />
    <glyph glyph-name="uni2122" unicode="&#x2122;" horiz-adv-x="1542" 
d="M1427 645h-139v277l-177 -238q-32 -45 -94 -45q-61 0 -92 43l-180 240v-277h-141v359q0 61 112 61q82 0 113 -43l186 -262l191 264q28 41 110 41q111 0 111 -61v-359zM565 987h-197v-342h-143v342h-199v74h539v-74z" />
    <glyph glyph-name="uni00B4" unicode="&#xb4;" horiz-adv-x="669" 
d="M456 1331l-116 -215h-115l102 215h129z" />
    <glyph glyph-name="uni00A8" unicode="&#xa8;" horiz-adv-x="1024" 
d="M712 1227q0 -39 -28.5 -68t-67.5 -29t-66.5 28t-27.5 67q0 41 26.5 69.5t67.5 28.5q39 0 67.5 -28.5t28.5 -67.5zM425 1229q0 -39 -27.5 -66.5t-66.5 -27.5q-37 0 -64.5 27.5t-27.5 64.5q0 41 26.5 68.5t65.5 27.5t66.5 -27.5t27.5 -66.5z" />
    <glyph glyph-name="uni2260" unicode="&#x2260;" horiz-adv-x="1024" 
d="M958 324h-490l-110 -154h-142l109 154h-254v108h326l86 121h-414v111h485l111 155h143l-110 -155h260v-111h-332l-86 -121h418v-108z" />
    <glyph glyph-name="uni00C6" unicode="&#xc6;" horiz-adv-x="1779" 
d="M1690 431h-668v-175q0 -111 143 -111h523v-145h-564q-127 0 -212 58t-85 149v38h-421l-187 -245h-223l690 880q39 47 62 65q34 27 93.5 39t139.5 12h707v-144h-543q-123 0 -123 -91v-186h668v-144zM825 382l-2 428l-323 -428h325z" />
    <glyph glyph-name="uni00D8" unicode="&#xd8;" horiz-adv-x="1181" 
d="M1144 1064l-137 -136q62 -61 62 -156v-545q0 -227 -328 -227h-303q-135 0 -217 38l-133 -135l-40 43l126 127q-64 68 -64 152v547q0 115 94 177q76 52 234 52h303q133 0 219 -42l145 144zM835 818q-35 37 -139 37h-209q-96 0 -137 -28t-41 -97v-433q0 -40 16 -53z
M870 264v431q0 31 -17 56l-507 -568q36 -37 141 -37h209q90 0 132 25t42 93z" />
    <glyph glyph-name="uni221E" unicode="&#x221e;" horiz-adv-x="1366" 
d="M1285 637q0 -111 -82.5 -182.5t-211.5 -71.5q-181 0 -310 162q-137 -162 -315 -162q-129 0 -211 73.5t-82 184.5q0 109 83 181.5t212 72.5q172 0 309 -162q131 160 314 160q131 0 212.5 -71.5t81.5 -184.5zM1115 639q0 53 -43 91t-106 38q-102 0 -205 -129q53 -61 86 -86
q55 -41 121 -41q63 0 105 37t42 90zM595 639q-98 129 -205 129q-63 0 -105 -38t-42 -93q0 -53 42 -89t105 -36q107 0 205 127z" />
    <glyph glyph-name="uni00B1" unicode="&#xb1;" horiz-adv-x="1024" 
d="M956 543h-357v-252h-176v252h-356v119h356v249h176v-249h357v-119zM956 113h-889v120h889v-120z" />
    <glyph glyph-name="uni2264" unicode="&#x2264;" horiz-adv-x="1024" 
d="M956 252l-889 307v113l889 307v-125l-701 -240l701 -239v-123zM956 86h-889v123h889v-123z" />
    <glyph glyph-name="uni2265" unicode="&#x2265;" horiz-adv-x="1024" 
d="M956 561l-889 -309v125l700 241l-700 242v127l889 -309v-117zM956 86h-889v123h889v-123z" />
    <glyph glyph-name="uni00A5" unicode="&#xa5;" horiz-adv-x="1120" 
d="M1116 1075l-330 -473h316v-98h-387l-56 -68v-39h441v-98h-441v-299h-198v301h-434v96h434v39l-47 70h-385v96h315l-340 473h227l324 -465l334 465h227z" />
    <glyph glyph-name="uni00B5" unicode="&#xb5;" horiz-adv-x="1024" 
d="M88 -196v947h174v-359q0 -128 39 -192q66 -105 209 -105q133 0 207 110q47 71 47 202v344h174v-764h-174v150q-86 -172 -260 -172q-154 0 -242 134v-295h-174z" />
    <glyph glyph-name="uni2202" unicode="&#x2202;" horiz-adv-x="1012" 
d="M295 978h-45q132 265 379 265q152 0 249 -96q117 -114 117 -345q0 -311 -166 -575q-163 -258 -426 -258q-158 0 -248 81q-89 79 -89 213q0 210 165 369t385 159q223 0 312 -167h4q10 90 10 163q0 152 -91 241.5t-255 89.5q-193 0 -301 -140zM911 547q-83 197 -284 197
q-180 0 -295 -178q-99 -155 -99 -339q0 -91 52 -148q54 -59 145 -59q135 0 278.5 140.5t202.5 386.5z" />
    <glyph glyph-name="uni2211" unicode="&#x2211;" horiz-adv-x="1214" 
d="M1104 -94h-1051v106l445 515l-445 473v103h1035v-277h-140l-14 183h-707l450 -482l-451 -526h726l7 183h145v-278z" />
    <glyph glyph-name="uni220F" unicode="&#x220f;" horiz-adv-x="1447" 
d="M1369 -97h-508v96h168v1005h-612v-1005h164v-96h-506v96h158v1005h-158v95h1294v-95h-153v-1005h153v-96z" />
    <glyph glyph-name="uni03C0" unicode="&#x3c0;" horiz-adv-x="1228" 
d="M1167 628h-152v-628h-176v628h-448v-628h-176v628h-154v119h1106v-119z" />
    <glyph glyph-name="uni222B" unicode="&#x222b;" horiz-adv-x="1024" 
d="M852 1089l-37 -91q-53 12 -98 12q-84 0 -107 -46q-8 -18 -8 -85v-718q0 -80 -2 -100q-10 -66 -47 -95q-76 -63 -250 -63q-63 0 -131 13l37 92q53 -13 96 -13q78 0 103 35q14 22 14 113v700q0 128 18 162q49 98 262 98q60 0 150 -14z" />
    <glyph glyph-name="uni00AA" unicode="&#xaa;" horiz-adv-x="692" 
d="M601 823q0 -43 -45 -66.5t-112 -23.5h-185q-69 0 -118.5 22.5t-49.5 63.5v58q0 43 45.5 66.5t116.5 23.5h211v4q0 28 -53 28h-320v72h334q176 0 176 -92v-156zM464 834v57q-4 4 -10 4h-178q-49 0 -49 -31v-30q0 -27 51 -27h137q49 0 49 27zM618 604h-545v66h545v-66z" />
    <glyph glyph-name="uni00BA" unicode="&#xba;" horiz-adv-x="616" 
d="M514 940q0 -55 -61.5 -94t-143.5 -39q-86 0 -145.5 39t-59.5 96q0 55 60.5 94t144.5 39t144.5 -39t60.5 -96zM436 940q0 35 -38 59.5t-89 24.5q-53 0 -91 -23.5t-38 -58.5t37 -59.5t92 -24.5q51 0 89 23.5t38 58.5z" />
    <glyph glyph-name="uni2126" unicode="&#x2126;" horiz-adv-x="1413" 
d="M1364 0h-557v115q366 137 366 440q0 160 -127 272q-133 121 -337 121q-211 0 -341.5 -114.5t-130.5 -276.5q0 -295 369 -442v-115h-559v123h375q-359 153 -359 446q0 207 185.5 349.5t457.5 142.5q273 0 457 -142.5t184 -349.5q0 -290 -356 -446h373v-123z" />
    <glyph glyph-name="uni00E6" unicode="&#xe6;" horiz-adv-x="1718" 
d="M1638 0h-537q-145 0 -223 89q-82 -89 -221 -89h-260q-289 0 -289 194v353q0 203 299 203h229q93 0 136 -14q57 -17 102 -69q27 32 45 44q57 39 176 39h264q273 0 277 -199l2 -98l-674 -202v-29q0 -39 44 -66t99 -27h531v-129zM1462 518l-2 20q-4 38 -43 61.5t-88 23.5
h-224q-143 0 -143 -97v-158zM784 229v294q0 100 -158 100h-188q-158 0 -158 -100v-294q0 -100 158 -100h188q158 0 158 100z" />
    <glyph glyph-name="uni00F8" unicode="&#xf8;" horiz-adv-x="1081" 
d="M995 774l-84 -85q55 -49 55 -131v-372q0 -98 -84 -149q-61 -37 -186 -37h-305q-113 0 -179 31l-130 -131l-34 34l123 126q-57 47 -57 126v372q0 98 86 150q64 39 191 39h305q114 0 174 -30l85 85zM745 601q-33 19 -86 19h-232q-137 0 -137 -98v-291q0 -32 15 -48z
M792 221v294q0 33 -16 49l-441 -418q35 -18 92 -18h232q63 0 98 25t35 68z" />
    <glyph glyph-name="uni00BF" unicode="&#xbf;" horiz-adv-x="1052" 
d="M977 0h-594q-291 0 -291 197v160q0 78 92 128q58 31 158 36h172q33 0 33 30v132h196v-152q0 -58 -60.5 -91.5t-154.5 -33.5q-123 0 -157 -6q-82 -18 -82 -76v-101q0 -95 149 -95h539v-128zM747 999v-166h-198v166h198z" />
    <glyph glyph-name="exclamdown" unicode="&#xa1;" horiz-adv-x="532" 
d="M377 -98h-201v562h201v-562zM371 753v-144h-194v144h194z" />
    <glyph glyph-name="uni00AC" unicode="&#xac;" horiz-adv-x="1024" 
d="M956 0h-176v197h-713v84h889v-281z" />
    <glyph glyph-name="uni221A" unicode="&#x221a;" horiz-adv-x="1366" 
d="M1366 904h-393l-420 -904h-221l-156 354h-176v96h319l68 -146q4 -7 25 -79q10 -29 24 -89h15q45 137 79 229q2 5 78 170l213 465h545v-96z" />
    <glyph glyph-name="uni0192" unicode="&#x192;" horiz-adv-x="858" 
d="M854 1010l-21 -105q-120 0 -157 -8q-74 -16 -86 -75q-2 -10 -6 -35h225l-21 -108l-227 2l-127 -628q-14 -73 -95 -113.5t-200 -40.5h-135l20 102h93q137 0 153 83l156 772q14 69 98 111.5t201 42.5h129z" />
    <glyph glyph-name="uni2248" unicode="&#x2248;" horiz-adv-x="1366" 
d="M1273 692q-76 -74 -148 -106q-92 -43 -223 -43q-82 0 -252 45t-239 45q-76 0 -129 -31q-33 -16 -86 -65l-113 41q76 77 131 106q86 47 209 47q94 0 268 -45t248 -45q76 0 129 27q37 16 88 61zM1273 459q-76 -74 -148 -107q-92 -43 -223 -43q-84 0 -253 45t-238 45
q-76 0 -129 -30q-33 -17 -86 -66l-113 41q76 78 131 107q86 47 209 47q98 0 269 -45t247 -45t129 24q37 19 88 64z" />
    <glyph glyph-name="uni2206" unicode="&#x2206;" horiz-adv-x="1366" 
d="M1315 0h-1264l535 751h188zM1059 90l-379 543l-377 -543h756z" />
    <glyph glyph-name="uni00AB" unicode="&#xab;" horiz-adv-x="909" 
d="M850 90h-168l-254 203q-45 37 -45 59q0 25 45 60l260 204h159l-333 -262zM526 90h-166l-254 203q-47 37 -47 59q0 25 45 60l260 204h160l-334 -262z" />
    <glyph glyph-name="uni00BB" unicode="&#xbb;" horiz-adv-x="909" 
d="M850 352q0 -24 -46 -59l-260 -203h-159l333 260l-335 262h165l256 -200q46 -35 46 -60zM526 352q0 -24 -45 -59l-260 -203h-160l334 260l-336 262h168l254 -200q45 -37 45 -60z" />
    <glyph glyph-name="uni2026" unicode="&#x2026;" horiz-adv-x="1185" 
d="M1032 63q0 -30 -24.5 -52.5t-61.5 -22.5q-35 0 -59.5 22.5t-24.5 50.5q0 33 24.5 55.5t59.5 22.5q37 0 61.5 -22.5t24.5 -53.5zM659 59q0 -30 -26.5 -52.5t-65.5 -22.5q-37 0 -63.5 22.5t-26.5 50.5q0 33 25.5 55.5t64.5 22.5t65.5 -22.5t26.5 -53.5zM270 53
q0 -33 -26.5 -55t-63.5 -22q-39 0 -65.5 22t-26.5 53q0 33 26.5 56.5t63.5 23.5q39 0 65.5 -22.5t26.5 -55.5z" />
    <glyph glyph-name="uni00A0" unicode="&#xa0;" horiz-adv-x="604" 
 />
    <glyph glyph-name="uni00C0" unicode="&#xc0;" horiz-adv-x="1196" 
d="M748 1068h-148l-151 178h165zM1200 0h-213l-119 245h-540l-119 -245h-213l444 909q45 92 158 92t158 -92zM805 384l-217 443l-197 -443h414z" />
    <glyph glyph-name="uni00C3" unicode="&#xc3;" horiz-adv-x="1196" 
d="M926 1106l-66 -14q-8 -2 -65 -19q-37 -11 -70 -11q-43 0 -126 22t-128 22q-41 0 -201 -40v86q27 4 78 15q109 27 127 27q39 0 123 -21t121 -21q25 0 115 21q26 8 92 19v-86zM1200 0h-213l-119 247h-540l-119 -247h-213l444 909q45 90 158 90t158 -90zM805 383l-217 442
l-197 -442h414z" />
    <glyph glyph-name="uni00D5" unicode="&#xd5;" horiz-adv-x="1177" 
d="M915 1115l-66 -13q-8 -2 -65 -20q-37 -11 -70 -11q-43 0 -126 23t-128 23q-41 0 -200 -42v85q26 6 77 18q109 26 127 26q39 0 123 -22t121 -22q25 0 115 24q26 7 92 18v-87zM1066 227q0 -227 -327 -227h-301q-158 0 -236 49q-94 60 -94 176v543q0 113 96 178
q76 51 234 51h303q325 0 325 -229v-541zM870 261v465q0 69 -41 98t-135 29h-209q-96 0 -137 -28t-41 -99v-459q0 -62 45 -96q37 -26 133 -26h209q92 0 134 26.5t42 89.5z" />
    <glyph glyph-name="uni0152" unicode="&#x152;" horiz-adv-x="1847" 
d="M1759 433h-676v-154q0 -71 37 -102t131 -31h506v-146h-490q-108 0 -165.5 21t-119.5 85q-83 -106 -237 -106h-336q-141 0 -221 63.5t-80 167.5v538q0 104 81 167.5t220 63.5h336q151 0 240 -106q55 62 118 84q58 22 164 22h490v-146h-506q-168 0 -168 -135v-141h676v-145
zM886 273v456q0 67 -39 96t-131 29h-241q-168 0 -168 -125v-456q0 -127 168 -127h241q170 0 170 127z" />
    <glyph glyph-name="uni0153" unicode="&#x153;" horiz-adv-x="1815" 
d="M1712 352h-653q0 -125 90 -203t231 -78q153 0 283 43l41 -101q-153 -51 -324 -51q-270 0 -411 148q-132 -148 -387 -148q-221 0 -350.5 109t-129.5 289q0 177 128 287.5t352 110.5q248 0 381 -140q120 140 358 140q177 0 284 -98t107 -269v-39zM1534 450
q0 87 -59.5 143.5t-147.5 56.5q-111 0 -181.5 -56t-80.5 -144h469zM582 74q138 0 215 81t77 205q0 130 -76.5 208t-215.5 78q-142 0 -218.5 -77.5t-76.5 -208.5q0 -126 77 -206t218 -80z" />
    <glyph glyph-name="uni2013" unicode="&#x2013;" horiz-adv-x="1060" 
d="M952 369h-844v123h844v-123z" />
    <glyph glyph-name="uni2014" unicode="&#x2014;" horiz-adv-x="1462" 
d="M1357 377h-1245v129h1245v-129z" />
    <glyph glyph-name="uni201C" unicode="&#x201c;" horiz-adv-x="589" 
d="M379 1057l-65 -139q49 -54 49 -80q0 -39 -24.5 -66t-61.5 -27q-35 0 -60.5 30t-25.5 67q0 22 12 51l78 164h98zM164 1057l-63 -139q49 -52 49 -80q0 -39 -24.5 -66t-61.5 -27q-35 0 -60.5 30t-25.5 67q0 28 13 51l77 164h96z" />
    <glyph glyph-name="uni201D" unicode="&#x201d;" horiz-adv-x="602" 
d="M404 973q0 -27 -15 -55l-80 -162h-100l68 139q-51 49 -51 80q0 39 25.5 65.5t64.5 26.5q36 0 62 -28.5t26 -65.5zM183 973q0 -31 -13 -55l-80 -162h-100l68 139q-52 45 -52 80q0 39 26 65.5t62 26.5q39 0 64 -28.5t25 -65.5z" />
    <glyph glyph-name="uni2018" unicode="&#x2018;" horiz-adv-x="368" 
d="M201 1149l-68 -125q51 -47 51 -74q0 -32 -25.5 -57t-62.5 -25q-39 0 -65.5 27t-26.5 59q0 27 12 47l80 148h105z" />
    <glyph glyph-name="uni2019" unicode="&#x2019;" horiz-adv-x="368" 
d="M209 1040q0 -32 -12 -59l-87 -184h-106l72 157q-56 58 -56 93q0 43 28 72.5t69 29.5q39 0 65.5 -32t26.5 -77z" />
    <glyph glyph-name="uni00F7" unicode="&#xf7;" horiz-adv-x="1024" 
d="M601 676q0 -31 -25.5 -53.5t-62.5 -22.5q-34 0 -61 22.5t-27 53.5q0 33 27 55.5t61 22.5q37 0 62.5 -22.5t25.5 -55.5zM960 369h-889v112h889v-112zM606 174q0 -31 -26 -54.5t-63 -23.5q-34 0 -61 23.5t-27 54.5t27 53.5t61 22.5q37 0 63 -22.5t26 -53.5z" />
    <glyph glyph-name="uni25CA" unicode="&#x25ca;" horiz-adv-x="1366" 
d="M1214 530l-533 -583l-530 583l530 584zM1009 530l-328 357l-327 -357l327 -356z" />
    <glyph glyph-name="uni00FF" unicode="&#xff;" horiz-adv-x="1067" 
d="M788 990q0 -39 -32 -68t-75 -29t-73.5 28t-30.5 67q0 42 29.5 70.5t74.5 28.5q43 0 75 -28.5t32 -68.5zM487 996q0 -38 -31 -65.5t-72 -27.5q-40 0 -70 27t-30 64q0 38 28.5 65.5t71.5 27.5q41 0 72 -27.5t31 -63.5zM284 303q0 -123 137 -123h316q45 0 45 48v521h176
v-801q0 -109 -69.5 -176.5t-190.5 -67.5h-590v159h541q88 0 116 47q17 30 18 117h-401q-124 0 -194 59q-80 68 -80 174v493l176 -2v-448zM783 27v30l-83 -30h83z" />
    <glyph glyph-name="uni0178" unicode="&#x178;" horiz-adv-x="1120" 
d="M819 1171q0 -31 -31.5 -54.5t-74.5 -23.5q-45 0 -76 23.5t-31 52.5q0 33 30 57t77 24q43 0 74.5 -24t31.5 -55zM516 1169q0 -32 -30.5 -56t-71.5 -24q-43 0 -73 23t-30 56q0 34 29 58t74 24q41 0 71.5 -24t30.5 -57zM1118 1001l-459 -595v-406h-198v406l-457 595h227
l324 -434l336 434h227z" />
    <glyph glyph-name="uni2215" unicode="&#x2215;" horiz-adv-x="272" 
d="M619 1065l-780 -1065h-183l782 1065h181z" />
    <glyph glyph-name="uni20AC" unicode="&#x20ac;" horiz-adv-x="1093" 
d="M1030 907h-524q-86 0 -127 -27.5t-41 -88.5v-105h494l-51 -94h-443v-76h402l-54 -94h-348v-133q0 -76 40 -105.5t138 -29.5h512v-154h-585q-146 0 -224.5 62.5t-78.5 175.5v184h-152l53 94h99v76h-152l53 94h99v139q0 129 84 187q71 49 233 49h573v-154z" />
    <glyph glyph-name="uni2039" unicode="&#x2039;" horiz-adv-x="587" 
d="M526 90h-166l-254 199q-47 39 -47 59q0 25 45 60l260 204h160l-334 -260z" />
    <glyph glyph-name="uni203A" unicode="&#x203a;" horiz-adv-x="587" 
d="M526 352q0 -22 -45 -57l-260 -205h-160l334 260l-336 262h168l254 -200q45 -37 45 -60z" />
    <glyph glyph-name="uniF001" unicode="&#xf001;" horiz-adv-x="880" 
d="M774 0h-177v813h177v-813zM511 674h-225v-674h-176v899q0 92 77 146.5t193 54.5h131v-135h-92q-59 0 -96 -29t-37 -76v-47h225v-139zM769 1096v-168h-182v168h182z" />
    <glyph glyph-name="uniF002" unicode="&#xf002;" horiz-adv-x="878" 
d="M770 0h-177v1098h177v-1098zM509 674h-225v-674h-176v899q0 90 77 144.5t193 54.5h131v-135h-92q-59 0 -96 -29t-37 -76v-47h225v-137z" />
    <glyph glyph-name="uni2021" unicode="&#x2021;" horiz-adv-x="1048" 
d="M985 121h-375v-331h-172v331h-375v123h375v391h-375v123h375v299h172v-299h375v-123h-375v-391h375v-123z" />
    <glyph glyph-name="uni2219" unicode="&#x2219;" horiz-adv-x="417" 
d="M278 311q0 -39 -26.5 -66.5t-63.5 -27.5q-39 0 -65.5 27.5t-26.5 64.5t26.5 65.5t63.5 28.5q39 0 65.5 -27.5t26.5 -64.5z" />
    <glyph glyph-name="uni201A" unicode="&#x201a;" horiz-adv-x="342" 
d="M195 -34q0 -27 -13 -52l-84 -161h-104l70 139q-54 49 -54 80q0 34 28 60.5t67 26.5q36 0 63 -27.5t27 -65.5z" />
    <glyph glyph-name="uni201E" unicode="&#x201e;" horiz-adv-x="589" 
d="M383 -4q0 -24 -12 -51l-76 -162h-96l65 140q-49 51 -49 77q0 37 24.5 63.5t59.5 26.5t59.5 -28.5t24.5 -65.5zM174 -4q0 -26 -10 -51l-76 -162h-96l63 140q-47 47 -47 77q0 37 23.5 63.5t60.5 26.5q35 0 58.5 -27.5t23.5 -66.5z" />
    <glyph glyph-name="uni2030" unicode="&#x2030;" horiz-adv-x="2537" 
d="M2478 154q0 -154 -224 -154h-190q-221 0 -221 152v344q0 153 221 153h193q221 0 221 -153v-342zM2320 178v291q0 41 -21.5 54.5t-72.5 13.5h-131q-51 0 -72.5 -13.5t-21.5 -54.5v-291q0 -39 21.5 -52t72.5 -13h131q51 0 72.5 13t21.5 52zM1722 154q0 -154 -221 -154h-191
q-223 0 -223 152v344q0 153 223 153h191q221 0 221 -153v-342zM1566 178v291q0 41 -21.5 54.5t-72.5 13.5h-133q-51 0 -72.5 -13.5t-21.5 -54.5v-291q0 -39 21.5 -52t72.5 -13h133q94 0 94 65zM1374 1065l-780 -1065h-183l781 1065h182zM696 569q0 -153 -223 -153h-191
q-223 0 -223 151v342q0 156 223 156h191q223 0 223 -156v-340zM538 594v291q0 39 -21.5 53t-72.5 14h-133q-51 0 -72.5 -14t-21.5 -53v-291q0 -39 21.5 -53.5t72.5 -14.5h133q51 0 72.5 14.5t21.5 53.5z" />
    <glyph glyph-name="uni00C2" unicode="&#xc2;" horiz-adv-x="1196" 
d="M1200 0h-213l-119 246h-540l-119 -246h-213l444 911q45 92 158 92t158 -92zM805 385l-217 444l-197 -444h414zM805 1059h-75l-132 114l-131 -114h-75l132 180h149z" />
    <glyph glyph-name="uni00CA" unicode="&#xca;" horiz-adv-x="1087" 
d="M878 1082l-143 -2l-123 125l-109 -123h-141l149 164h205zM995 0h-568q-147 0 -229 52q-90 57 -90 161v566q0 105 80 164t221 59h586v-145h-516q-172 0 -172 -113v-172h688v-144h-688v-169q0 -114 174 -114h514v-145z" />
    <glyph glyph-name="Aacute" unicode="&#xc1;" horiz-adv-x="1196" 
d="M748 1247l-152 -177h-147l133 177h166zM1200 0h-213l-119 246h-540l-119 -246h-213l444 910q45 91 158 91t158 -91zM805 384l-217 444l-197 -444h414z" />
    <glyph glyph-name="uni00CB" unicode="&#xcb;" horiz-adv-x="1087" 
d="M845 1150q0 -31 -30.5 -54t-73.5 -23t-73 22.5t-30 52.5q0 33 30 56t73 23t73.5 -23t30.5 -54zM548 1152q0 -31 -28.5 -55t-67.5 -24q-41 0 -68.5 23t-27.5 54q0 35 27.5 58t68.5 23q39 0 67.5 -23t28.5 -56zM995 0h-568q-147 0 -229 52q-90 56 -90 159v564
q0 103 80 162.5t221 59.5h586v-147h-516q-172 0 -172 -111v-171h688v-141h-688v-168q0 -115 174 -115h514v-144z" />
    <glyph glyph-name="uni00C8" unicode="&#xc8;" horiz-adv-x="1087" 
d="M770 1080h-148l-152 179h166zM995 0h-568q-147 0 -229 52q-90 56 -90 160v566q0 103 80 163t221 60h586v-148h-516q-172 0 -172 -112v-169h688v-145h-688v-169q0 -113 174 -113h514v-145z" />
    <glyph glyph-name="Iacute" unicode="&#xcd;" horiz-adv-x="537" 
d="M360 0h-184v998h184v-998zM475 1250l-249 -149h-90l158 149h181z" />
    <glyph glyph-name="uni00CE" unicode="&#xce;" horiz-adv-x="518" 
d="M355 0h-184v1004h184v-1004zM434 1129h-65l-115 70l-114 -70h-65l115 110h129z" />
    <glyph glyph-name="uni00CF" unicode="&#xcf;" horiz-adv-x="524" 
d="M359 0h-184v997h184v-997zM429 1238q30 0 50 -21.5t20 -53.5q0 -30 -20.5 -52t-49.5 -22q-30 0 -51 22t-21 52q0 32 20.5 53.5t51.5 21.5zM102 1239q32 0 53 -21.5t21 -53.5q0 -30 -21.5 -52t-52.5 -22t-53.5 22.5t-22.5 51.5q0 32 22.5 53.5t53.5 21.5z" />
    <glyph glyph-name="uni00CC" unicode="&#xcc;" horiz-adv-x="537" 
d="M360 0h-184v1237h184v-1237zM473 1365h-113l-311 285h225z" />
    <glyph glyph-name="Oacute" unicode="&#xd3;" horiz-adv-x="1177" 
d="M737 1242l-152 -179h-147l133 179h166zM1066 227q0 -227 -327 -227h-301q-158 0 -236 50q-94 60 -94 175v546q0 112 96 178q76 50 234 50h303q325 0 325 -228v-544zM870 262v467q0 68 -41 96.5t-135 28.5h-209q-96 0 -137 -27.5t-41 -97.5v-461q0 -62 45 -95
q37 -26 133 -26h209q92 0 134 25.5t42 89.5z" />
    <glyph glyph-name="uni00D4" unicode="&#xd4;" horiz-adv-x="1177" 
d="M845 1074h-143l-123 125l-109 -125h-141l150 165h204zM1066 226q0 -226 -327 -226h-301q-158 0 -236 49q-94 60 -94 176v544q0 113 96 178q76 51 234 51h303q325 0 325 -229v-543zM870 263v465q0 66 -41 95t-135 29h-209q-96 0 -137 -28t-41 -96v-462q0 -61 45 -95
q37 -26 133 -26h209q92 0 134 26.5t42 91.5z" />
    <glyph glyph-name="uni00D2" unicode="&#xd2;" horiz-adv-x="1177" 
d="M737 1060h-148l-151 180h166zM1066 227q0 -227 -327 -227h-301q-158 0 -236 49q-94 59 -94 176v545q0 113 96 178q76 51 234 51h303q325 0 325 -229v-543zM870 263v466q0 68 -41 96.5t-135 28.5h-209q-96 0 -137 -28.5t-41 -96.5v-462q0 -61 45 -96q37 -26 133 -26h209
q92 0 134 26.5t42 91.5z" />
    <glyph glyph-name="Uacute" unicode="&#xda;" horiz-adv-x="1200" 
d="M749 1239l-152 -180h-147l133 180h166zM1091 253q0 -69 -14 -106q-19 -48 -73 -88t-114 -51q-41 -8 -135 -8h-311q-90 0 -133 9q-64 13 -115 50q-57 40 -76 88q-12 33 -12 106v745h199v-719q0 -78 41 -105.5t149 -27.5h205q106 0 148 26.5t42 102.5v723h199v-745z" />
    <glyph glyph-name="uni00DB" unicode="&#xdb;" horiz-adv-x="1200" 
d="M858 1077l-144 -2l-123 126l-108 -124h-142l150 164h205zM1091 252q0 -67 -14 -105q-19 -49 -73 -88.5t-114 -50.5q-41 -8 -135 -8h-311q-90 0 -133 9q-64 13 -115 48q-57 43 -76 90q-12 32 -12 105v746h199v-720q0 -78 41 -105.5t149 -27.5h205q106 0 148 27t42 104v722
h199v-746z" />
    <glyph glyph-name="uni00D9" unicode="&#xd9;" horiz-adv-x="1200" 
d="M753 1060h-147l-152 180h166zM1091 252q0 -67 -14 -104q-19 -50 -73 -89.5t-114 -50.5q-41 -8 -135 -8h-311q-90 0 -133 9q-64 13 -115 49q-57 42 -76 90q-12 32 -12 104v749h199v-722q0 -77 41 -105t149 -28h205q106 0 148 27t42 102v726h199v-749z" />
    <glyph glyph-name="uni0131" unicode="&#x131;" horiz-adv-x="494" 
d="M334 0h-174v750h174v-750z" />
    <glyph glyph-name="uni02C6" unicode="&#x2c6;" horiz-adv-x="921" 
d="M704 1071l-121 -2l-102 172l-92 -170h-119l125 225h174z" />
    <glyph glyph-name="uni02DC" unicode="&#x2dc;" horiz-adv-x="1024" 
d="M839 1112l-65 -16q-8 -2 -66 -25q-37 -12 -69 -12q-43 0 -126 27.5t-128 27.5q-41 0 -201 -51v106q27 7 78 21q108 33 127 33q39 0 123 -27t121 -27q24 0 114 27q27 10 92 25v-109z" />
    <glyph glyph-name="uni02C9" unicode="&#x2c9;" horiz-adv-x="1024" 
d="M766 1028h-504v94h504v-94z" />
    <glyph glyph-name="uni02D8" unicode="&#x2d8;" horiz-adv-x="1024" 
d="M763 1298q-163 -233 -243 -233t-244 233h131q76 -139 113 -139t112 139h131z" />
    <glyph glyph-name="uni02D9" unicode="&#x2d9;" horiz-adv-x="937" 
d="M577 965q0 -41 -30 -72t-69 -31q-41 0 -70.5 30t-29.5 71q0 43 27.5 73.5t70.5 30.5q41 0 71 -29.5t30 -72.5z" />
    <glyph glyph-name="uni02DA" unicode="&#x2da;" 
d="M614 1536q78 0 134.5 -56.5t56.5 -133.5q0 -78 -56.5 -134.5t-134.5 -56.5t-134 56.5t-56 134.5q0 77 56 133.5t134 56.5zM614 1233q46 0 79.5 33.5t33.5 79.5q0 45 -33.5 78.5t-79.5 33.5q-45 0 -78.5 -33.5t-33.5 -78.5q0 -47 33 -80t79 -33z" />
    <glyph glyph-name="uni00B8" unicode="&#xb8;" horiz-adv-x="929" 
d="M610 -172q0 -53 -53 -86q-45 -28 -105 -28q-61 0 -145 33l20 43q68 -25 113 -25q84 0 84 59q0 56 -72 56q-22 0 -61 -15l-25 25l80 110h56l-60 -83q29 6 51 6q50 0 83.5 -24.5t33.5 -70.5z" />
    <glyph glyph-name="uni02DD" unicode="&#x2dd;" horiz-adv-x="1024" 
d="M810 1141l-151 -246h-148l135 246h164zM544 1141l-154 -246h-145l133 246h166z" />
    <glyph glyph-name="uni02DB" unicode="&#x2db;" horiz-adv-x="987" 
d="M596 -266q-43 -20 -90 -20q-62 0 -106 38t-44 97q0 96 117 151h92q-123 -67 -123 -139q0 -69 78 -69q37 0 76 16v-74z" />
    <glyph glyph-name="uni02C7" unicode="&#x2c7;" horiz-adv-x="919" 
d="M677 1288l-135 -227h-172l-125 225l119 2l90 -170l102 170h121z" />
    <glyph glyph-name="uni0141" unicode="&#x141;" horiz-adv-x="1009" 
d="M997 0h-528q-174 0 -267.5 52.5t-93.5 186.5v157l-96 -55v133l96 53v469h199v-352l283 159v-132l-283 -159v-238q0 -79 49 -108q39 -20 158 -20h483v-146z" />
    <glyph glyph-name="uni0142" unicode="&#x142;" horiz-adv-x="393" 
d="M393 621l-109 -65v-556h-176v448l-98 -61v103l98 62v444h176v-337l109 63v-101z" />
    <glyph glyph-name="uni0160" unicode="&#x160;" horiz-adv-x="1038" 
d="M825 1319l-162 -176h-205l-150 174l142 2l108 -131l123 131h144zM960 907h-510q-125 0 -156 -49q-18 -29 -18 -135q0 -57 47 -86q39 -25 127 -25h211q135 0 216 -57t81 -160v-170q0 -108 -83 -166.5t-227 -58.5h-569v154h510q127 0 158 55q14 24 14 141q0 109 -166 109
h-211q-131 0 -215 53q-92 59 -92 160v166q0 112 100 178q70 45 203 45h580v-154z" />
    <glyph glyph-name="uni0161" unicode="&#x161;" horiz-adv-x="935" 
d="M759 977l-162 -158h-205l-149 156l141 2l109 -119l123 119h143zM855 594h-465q-63 0 -94 -14q-43 -21 -43 -56v-28q0 -74 141 -74h230q100 0 164.5 -47t64.5 -117v-90q0 -68 -65 -119q-39 -33 -82 -43q-35 -6 -103 -6h-526v123h479q74 0 99 29q18 20 18 73q0 74 -115 74
h-217q-110 0 -182 41q-80 45 -80 119v96q0 80 92 129q56 31 172 31h512v-121z" />
    <glyph glyph-name="uni017D" unicode="&#x17d;" horiz-adv-x="1028" 
d="M772 1327l-162 -178h-205l-149 176l141 2l109 -133l123 133h143zM977 965q0 -37 -23 -62l-653 -747h651v-156h-710q-58 0 -98 8t-67.5 36t-27.5 60q0 33 35 74l639 735h-651v154h761q144 0 144 -102z" />
    <glyph glyph-name="uni017E" unicode="&#x17e;" horiz-adv-x="1003" 
d="M739 991l-143 -160h-182l-134 158l125 2l97 -121l110 121h127zM948 635q0 -39 -37 -66l-620 -444h632v-125h-716q-64 0 -111 23.5t-47 66.5q0 33 49 70l604 442h-633v123h719q160 0 160 -90z" />
    <glyph glyph-name="uni00A6" unicode="&#xa6;" horiz-adv-x="983" 
d="M542 502h-119v573h119v-573zM542 -382h-119v579h119v-579z" />
    <glyph glyph-name="uni00D0" unicode="&#xd0;" horiz-adv-x="1206" 
d="M1098 229q0 -104 -77 -166.5t-218 -62.5h-694v427h-109v144h109v429h690q299 0 299 -225v-546zM901 275v461q0 118 -164 118h-430v-283h365v-144h-365v-281h430q164 0 164 129z" />
    <glyph glyph-name="uni00F0" unicode="&#xf0;" horiz-adv-x="1079" 
d="M1130 906l-174 -36q14 -40 14 -64v-599q0 -109 -83 -158t-201 -49h-310q-268 0 -268 203v352q0 90 71.5 144t194.5 54h420v23q0 30 -10 66l-203 -39l-24 87l190 38q-41 48 -119 153l203 16q51 -106 80 -142l192 38zM794 225v370q0 28 -43 28h-324q-143 0 -143 -104v-286
q0 -54 27 -74q37 -30 116 -30h213q154 0 154 96z" />
    <glyph glyph-name="uni00DD" unicode="&#xdd;" horiz-adv-x="1077" 
d="M692 1240l-152 -180h-147l133 180h166zM1096 996l-459 -590v-406h-198v406l-457 590h227l324 -430l336 430h227z" />
    <glyph glyph-name="uni00FD" unicode="&#xfd;" horiz-adv-x="1067" 
d="M704 1003l-152 -188h-147l133 188h166zM284 749v-459q0 -127 137 -127h316q45 0 45 49v537h176v-829q0 -113 -69.5 -182.5t-190.5 -69.5h-590v164h541q88 0 116 49q17 33 17 123h-400q-124 0 -194 59q-80 71 -80 182v504h176z" />
    <glyph glyph-name="uni00DE" unicode="&#xde;" horiz-adv-x="1185" 
d="M1089 440q0 -100 -79 -157.5t-216 -57.5h-487v-225h-199v1000h199v-151h477q131 0 213 -49q88 -53 90 -147q2 -100 2 -213zM890 486v118q0 101 -159 101h-424v-332h419q164 0 164 113z" />
    <glyph glyph-name="uni00FE" unicode="&#xfe;" horiz-adv-x="1071" 
d="M130 -95v1195h176v-223q47 27 123 27h276q277 0 277 -209v-387q0 -90 -72.5 -145.5t-185.5 -55.5h-418v-202h-176zM808 347v321q0 99 -141 99h-215q-146 0 -146 -107v-383q0 -33 47 -33h324q131 0 131 103z" />
    <glyph glyph-name="uni2212" unicode="&#x2212;" horiz-adv-x="1024" 
d="M960 358h-889v138h889v-138z" />
    <glyph glyph-name="uni00D7" unicode="&#xd7;" horiz-adv-x="1024" 
d="M927 342l-114 -72l-301 187l-301 -187l-115 72l301 186l-301 185l115 71l301 -186l301 186l114 -71l-301 -185z" />
    <glyph glyph-name="uni00B9" unicode="&#xb9;" horiz-adv-x="686" 
d="M403 532h-104v533h104v-533z" />
    <glyph glyph-name="uni00B2" unicode="&#xb2;" horiz-adv-x="755" 
d="M673 911q0 17 -2 -80q-2 -49 -59.5 -75.5t-145.5 -26.5h-137q-90 0 -90 -41v-72h432v-84h-590v173q0 51 57.5 79.5t147.5 28.5h133q92 0 94 41q2 49 2 41q0 41 -90 41h-344v86h375q96 0 156.5 -27.5t60.5 -83.5z" />
    <glyph glyph-name="uni00B3" unicode="&#xb3;" horiz-adv-x="755" 
d="M657 641q0 -47 -57.5 -78t-155.5 -31h-379v86h350q66 0 80 25q4 6 4 59q0 37 -80 37h-168v86h168q64 0 76 25q4 6 4 55q0 27 -17.5 33t-66.5 6h-350v86h379q213 0 213 -102v-66q0 -51 -80 -80q80 -24 80 -77v-64z" />
    <glyph glyph-name="uni00BD" unicode="&#xbd;" horiz-adv-x="1636" 
d="M1544 473q0 19 -2 -101q-2 -59 -59.5 -93t-145.5 -34h-137q-90 0 -90 -52v-88h432v-105h-590v214q0 64 57.5 101t147.5 37h133q92 0 94 50q2 59 2 51q0 51 -90 51h-344v106h377q96 0 153 -33q62 -37 62 -104zM1134 1000l-780 -1000h-182l780 1000h182zM299 390h-158v610
h158v-610z" />
    <glyph glyph-name="uni00BC" unicode="&#xbc;" horiz-adv-x="1636" 
d="M1523 0h-157v167h-326q-129 0 -129 71q0 14 12 31l246 340h150l-226 -336h273v336h157v-609zM1216 1000l-780 -1000h-182l780 1000h182zM299 391h-158v609h158v-609z" />
    <glyph glyph-name="uni00BE" unicode="&#xbe;" horiz-adv-x="1783" 
d="M1681 0h-158v168h-325q-129 0 -129 68q0 20 10 35l248 341h149l-225 -338h272v338h158v-612zM1390 1004l-782 -1004h-181l781 1004h182zM657 523q0 -55 -57.5 -93t-155.5 -38h-379v104h350q66 0 80 31q4 9 4 74q0 46 -80 46h-168v106h168q64 0 76 29q4 8 4 67
q0 33 -17.5 40.5t-66.5 7.5h-350v107h379q213 0 213 -125v-81q0 -65 -80 -98q80 -30 80 -96v-81z" />
    <glyph glyph-name="uni20A3" unicode="&#x20a3;" horiz-adv-x="981" 
d="M872 893h-518v-352h496v-111h-496v-134h295v-107h-295v-189h-184v189h-150v107h150v708h702v-111z" />
    <glyph glyph-name="uni011E" unicode="&#x11e;" horiz-adv-x="1204" 
d="M872 1418q-20 -81 -98 -127t-180 -46q-104 0 -183.5 46t-98.5 127h116q13 -39 60.5 -61t107.5 -22q57 0 101.5 21.5t56.5 61.5h118zM1086 242q0 -116 -76 -175q-82 -67 -221 -67h-346q-162 0 -246 57q-57 38 -76 92q-10 31 -10 108v507q0 70 16 107q23 47 86 83
q80 46 230 46h571v-144h-530q-94 0 -131 -23q-43 -26 -43 -92v-478q0 -67 47 -96q37 -22 123 -22h258q151 0 151 112v296h197v-311z" />
    <glyph glyph-name="uni011F" unicode="&#x11f;" horiz-adv-x="1059" 
d="M944 -64q0 -206 -299 -206h-559v131h537q94 0 125 38q20 29 20 101h-387q-145 0 -218 50.5t-73 139.5v356q0 108 63.5 160t211.5 52h292q150 0 218.5 -45t68.5 -152v-625zM770 144v368q0 58 -29 79q-45 36 -118 36h-220q-139 0 -139 -107v-304q0 -102 154 -102h313
q39 0 39 30zM731 1236q-163 -233 -243 -233t-244 233h131q76 -139 113 -139t112 139h131z" />
    <glyph glyph-name="uni015E" unicode="&#x15e;" horiz-adv-x="1109" 
d="M603 0l-19 -27q129 -28 129 -114q0 -75 -68.5 -117.5t-167.5 -42.5q-40 0 -81 6v82q34 -5 55 -5q60 0 100.5 18t40.5 45q0 63 -137 63l35 92h-373v146h510q127 0 158 50q14 26 14 135q0 102 -166 102h-211q-131 0 -215 50q-92 55 -92 150v156q0 105 100 167q70 44 203 44
h580v-146h-510q-125 0 -156 -46q-18 -28 -18 -127q0 -52 47 -81q39 -23 127 -23h211q135 0 216 -54t81 -152v-158q0 -103 -83 -158t-227 -55h-83z" />
    <glyph glyph-name="uni015F" unicode="&#x15f;" horiz-adv-x="991" 
d="M500 0l-3 -9q129 -28 129 -119q0 -79 -68.5 -123.5t-167.5 -44.5q-40 0 -81 6v86q34 -5 55 -5q60 0 100.5 18.5t40.5 47.5q0 67 -137 67l30 76h-293v128h479q74 0 99 29q18 22 18 80q0 77 -115 77h-217q-110 0 -182 43q-80 48 -80 125v101q0 84 92 135q56 33 172 33h512
v-129h-465q-63 0 -94 -15q-43 -20 -43 -55v-31q0 -78 141 -78h230q100 0 164.5 -49t64.5 -125v-92q0 -72 -65 -127q-39 -35 -82 -43q-35 -7 -103 -7h-131z" />
    <glyph glyph-name="uni0106" unicode="&#x106;" horiz-adv-x="1097" 
d="M808 1246l-312 -162h-112l198 162h226zM996 855h-524q-86 0 -123 -23q-45 -31 -45 -86v-473q0 -71 40 -99t138 -28h512v-146h-586q-145 0 -224 59.5t-79 165.5v553q0 124 84 177q72 46 235 46h572v-146z" />
    <glyph glyph-name="uni0107" unicode="&#x107;" horiz-adv-x="896" 
d="M788 0h-399q-287 0 -287 199v364q0 191 242 191h440v-129h-367q-77 0 -108 -20.5t-31 -76.5v-299q0 -100 148 -100h362v-129zM673 999l-288 -158h-103l183 158h208z" />
    <glyph glyph-name="uni010C" unicode="&#x10c;" horiz-adv-x="1103" 
d="M903 1230l-199 -157h-225l-199 157h113l198 -100l199 100h113zM996 855h-524q-86 0 -123 -23q-45 -31 -45 -86v-473q0 -71 40 -99t138 -28h512v-146h-586q-145 0 -224 59.5t-79 165.5v553q0 124 84 177q72 46 235 46h572v-146z" />
    <glyph glyph-name="uni010D" unicode="&#x10d;" horiz-adv-x="946" 
d="M788 0h-399q-287 0 -287 199v364q0 191 242 191h440v-129h-367q-77 0 -108 -20.5t-31 -76.5v-299q0 -100 148 -100h362v-129zM588 1288l-135 -227h-172l-125 225l119 2l90 -170l102 170h121z" />
    <glyph glyph-name="uni00AD" unicode="&#xad;" horiz-adv-x="715" 
d="M655 446h-594v172h594v-172z" />
    <glyph glyph-name="uni00AF" unicode="&#xaf;" 
d="M1237 1518h-1249v132h1249v-132z" />
    <glyph glyph-name="uni00B7" unicode="&#xb7;" horiz-adv-x="463" 
d="M229 831q51 0 86 -34t35 -84t-35 -84.5t-86 -34.5q-50 0 -84 34t-34 85q0 50 34 84t84 34z" />
    <glyph glyph-name="uni0100" unicode="&#x100;" horiz-adv-x="1203" 
d="M897 1157h-678v84h678v-84zM1200 0h-213l-119 245h-540l-119 -245h-213l444 909q45 90 158 90t158 -90zM805 382l-217 445l-197 -445h414z" />
    <glyph glyph-name="uni0101" unicode="&#x101;" horiz-adv-x="985" 
d="M954 188q0 -84 -66.5 -136t-181.5 -52h-336q-120 0 -192 45q-78 49 -78 137v133q0 91 69.5 140t190.5 49h420q-2 63 -25 90q-28 31 -110 31h-541v129h565q285 0 285 -191v-375zM778 213v145q0 25 -41 25h-336q-125 0 -125 -94v-74q0 -41 37 -62.5t90 -21.5h252
q123 0 123 82zM734 907h-504v94h504v-94z" />
    <glyph glyph-name="uni0102" unicode="&#x102;" horiz-adv-x="1199" 
d="M778 1233q-13 -54 -64 -84t-117 -30q-67 0 -118.5 30t-64.5 84h75q9 -26 39.5 -40.5t69.5 -14.5q38 0 66.5 14.5t36.5 40.5h77zM1198 0h-213l-119 246h-540l-119 -246h-213l444 911q45 92 158 92t158 -92zM803 385l-217 444l-197 -444h414z" />
    <glyph glyph-name="uni0103" unicode="&#x103;" horiz-adv-x="985" 
d="M954 188q0 -84 -66.5 -136t-181.5 -52h-336q-120 0 -192 45q-78 49 -78 137v133q0 91 69.5 140t190.5 49h420q-2 63 -25 90q-28 31 -110 31h-541v129h565q285 0 285 -191v-375zM778 213v145q0 25 -41 25h-336q-125 0 -125 -94v-74q0 -41 37 -62.5t90 -21.5h252
q123 0 123 82zM676 996q-13 -54 -64 -84t-117 -30q-67 0 -118.5 30t-64.5 84h75q9 -26 39.5 -40.5t69.5 -14.5q38 0 66.5 14.5t36.5 40.5h77z" />
    <glyph glyph-name="uni0104" unicode="&#x104;" horiz-adv-x="1221" 
d="M1080 0q-48 -59 -48 -92q0 -84 85 -84q25 0 103 33v-52q-75 -46 -128 -46q-63 0 -103 34t-40 88q0 58 58 119h73zM1220 0h-213l-119 245h-540l-119 -245h-213l444 909q45 90 158 90t158 -90zM825 382l-217 445l-197 -445h414z" />
    <glyph glyph-name="uni0105" unicode="&#x105;" horiz-adv-x="1066" 
d="M731 0q-48 -59 -48 -92q0 -84 85 -84q25 0 103 33v-52q-75 -46 -128 -46q-63 0 -103 34t-40 88q0 58 58 119h73zM960 188q0 -84 -66.5 -136t-162.5 -52h-355q-120 0 -192 45q-78 49 -78 137v133q0 91 69.5 140t190.5 49h420q-2 63 -25 90q-28 31 -110 31h-541v129h565
q285 0 285 -191v-375zM784 213v145q0 25 -41 25h-336q-125 0 -125 -94v-74q0 -41 37 -62.5t90 -21.5h252q123 0 123 82z" />
    <glyph glyph-name="uni0108" unicode="&#x108;" horiz-adv-x="1105" 
d="M862 1115h-113l-199 76l-198 -76h-113l199 120h225zM999 855h-524q-86 0 -123 -23q-45 -31 -45 -86v-473q0 -71 40 -99t138 -28h512v-146h-586q-145 0 -224 59.5t-79 165.5v553q0 124 84 177q72 46 235 46h572v-146z" />
    <glyph glyph-name="uni0109" unicode="&#x109;" horiz-adv-x="889" 
d="M788 0h-399q-287 0 -287 199v364q0 191 242 191h440v-129h-367q-77 0 -108 -20.5t-31 -76.5v-299q0 -100 148 -100h362v-129zM696 881l-121 -1l-102 89l-92 -88h-119l125 117h174z" />
    <glyph glyph-name="uni010A" unicode="&#x10a;" horiz-adv-x="1098" 
d="M570 1241q36 0 59.5 -23t23.5 -58q0 -34 -24 -58t-59 -24q-33 0 -57.5 24.5t-24.5 57.5q0 34 24 57.5t58 23.5zM999 855h-524q-86 0 -123 -23q-45 -31 -45 -86v-473q0 -71 40 -99t138 -28h512v-146h-586q-145 0 -224 59.5t-79 165.5v553q0 124 84 177q72 46 235 46h572
v-146z" />
    <glyph glyph-name="uni010B" unicode="&#x10b;" horiz-adv-x="946" 
d="M788 0h-399q-287 0 -287 199v364q0 191 242 191h440v-129h-367q-77 0 -108 -20.5t-31 -76.5v-299q0 -100 148 -100h362v-129zM532 965q0 -41 -30 -72t-69 -31q-41 0 -70.5 30t-29.5 71q0 43 27.5 73.5t70.5 30.5q41 0 71 -29.5t30 -72.5z" />
    <glyph glyph-name="uni010E" unicode="&#x10e;" horiz-adv-x="1203" 
d="M857 1234l-199 -134h-225l-199 134h113l198 -85l199 85h113zM1097 229q0 -105 -76.5 -167t-218.5 -62h-694v1001h690q299 0 299 -224v-548zM901 277v460q0 120 -164 120h-430v-712h430q164 0 164 132z" />
    <glyph glyph-name="uni010F" unicode="&#x10f;" horiz-adv-x="1307" 
d="M964 1001v-790q0 -113 -83 -162t-201 -49h-310q-268 0 -268 205v360q0 92 71.5 146.5t194.5 54.5h420v235h176zM788 229v375q0 31 -43 31h-324q-143 0 -143 -107v-290q0 -56 27 -78q37 -29 116 -29h213q154 0 154 98zM1046 1153q-36 4 -59.5 29.5t-23.5 57.5
q0 34 23.5 58t56.5 24q40 0 68 -31.5t28 -75.5q0 -131 -151 -207l-27 50q85 40 85 95z" />
    <glyph glyph-name="uni0110" unicode="&#x110;" horiz-adv-x="1210" 
d="M307 561h95v-103l-22 1h-73v-314h430q164 0 164 132v460q0 120 -164 120h-430v-296zM108 459h-104v103h104v439h690q299 0 299 -224v-548q0 -105 -76.5 -167t-218.5 -62h-694v459z" />
    <glyph glyph-name="uni0111" unicode="&#x111;" horiz-adv-x="1153" 
d="M1157 834h-162v-841h-174v80q-95 -98 -291 -98q-188 0 -308 110t-120 295q0 171 118.5 272.5t297.5 101.5q200 0 303 -107v187h-239v87h239v77h174v-77h162v-87zM821 210v317q-38 54 -105.5 87t-150.5 33q-136 0 -207 -71t-71 -207q0 -135 73.5 -209.5t210.5 -74.5
q55 0 109.5 18.5t97.5 55t43 51.5z" />
    <glyph glyph-name="uni0112" unicode="&#x112;" horiz-adv-x="1098" 
d="M899 1163h-678v72h678v-72zM956 427h-649v-169q0 -112 174 -112h514v-146h-568q-147 0 -229 51q-90 57 -90 161v563q0 104 80 163.5t221 59.5h586v-146h-516q-172 0 -172 -110v-171h649v-144z" />
    <glyph glyph-name="uni0113" unicode="&#x113;" horiz-adv-x="1042" 
d="M954 455l-674 -199v-25q0 -59 45 -86q31 -16 107 -16h520v-129h-553q-143 0 -211 43q-86 51 -86 162v356q0 191 281 191h309q262 0 262 -203v-94zM774 528v11q0 86 -140 86h-194q-162 0 -162 -97v-147zM754 910h-504v94h504v-94z" />
    <glyph glyph-name="uni0114" unicode="&#x114;" horiz-adv-x="1098" 
d="M897 1241q-24 -75 -116 -117t-212 -42q-123 0 -216.5 42t-116.5 117h137q15 -36 71 -56t127 -20q68 0 120 19.5t67 56.5h139zM956 427h-649v-169q0 -112 174 -112h514v-146h-568q-147 0 -229 51q-90 57 -90 161v563q0 104 80 163.5t221 59.5h586v-146h-516
q-172 0 -172 -110v-171h649v-144z" />
    <glyph glyph-name="uni0115" unicode="&#x115;" horiz-adv-x="1042" 
d="M954 455l-674 -199v-25q0 -59 45 -86q31 -16 107 -16h520v-129h-553q-143 0 -211 43q-86 51 -86 162v356q0 191 281 191h309q262 0 262 -203v-94zM774 528v11q0 86 -140 86h-194q-162 0 -162 -97v-147zM761 998q-163 -177 -243 -177t-244 177h131q76 -106 113 -106
t112 106h131z" />
    <glyph glyph-name="uni0116" unicode="&#x116;" horiz-adv-x="1102" 
d="M590 1248q40 0 66.5 -21t26.5 -53q0 -30 -27 -52t-66 -22q-38 0 -65.5 22.5t-27.5 51.5q0 31 27 52.5t66 21.5zM956 427h-649v-169q0 -112 174 -112h514v-146h-568q-147 0 -229 51q-90 57 -90 161v563q0 104 80 163.5t221 59.5h586v-146h-516q-172 0 -172 -110v-171h649
v-144z" />
    <glyph glyph-name="uni0117" unicode="&#x117;" horiz-adv-x="1042" 
d="M954 455l-674 -199v-25q0 -59 45 -86q31 -16 107 -16h520v-129h-553q-143 0 -211 43q-86 51 -86 162v356q0 191 281 191h309q262 0 262 -203v-94zM774 528v11q0 86 -140 86h-194q-162 0 -162 -97v-147zM602 917q0 -32 -26 -56t-59 -24q-35 0 -60.5 23.5t-25.5 54.5
q0 34 23.5 57.5t60.5 23.5q35 0 61 -23t26 -56z" />
    <glyph glyph-name="uni0118" unicode="&#x118;" horiz-adv-x="1062" 
d="M916 0q-48 -59 -48 -92q0 -84 85 -84q25 0 103 33v-52q-75 -46 -128 -46q-63 0 -103 34t-40 88q0 58 58 119h-415q-147 0 -229 51q-90 57 -90 161v563q0 104 80 163.5t221 59.5h586v-146h-516q-172 0 -172 -110v-171h649v-144h-649v-169q0 -112 174 -112h514v-146h-80z
" />
    <glyph glyph-name="uni0119" unicode="&#x119;" horiz-adv-x="1042" 
d="M774 528v11q0 86 -140 86h-194q-162 0 -162 -97v-147zM902 0q-48 -59 -48 -92q0 -84 85 -84q25 0 103 33v-52q-75 -46 -128 -46q-63 0 -103 34t-40 88q0 58 58 119h-430q-143 0 -211 43q-86 51 -86 162v356q0 191 281 191h309q262 0 262 -203v-94l-674 -199v-25
q0 -59 45 -86q31 -16 107 -16h520v-129h-50z" />
    <glyph glyph-name="uni011A" unicode="&#x11a;" horiz-adv-x="1095" 
d="M869 1238l-199 -149h-225l-199 149h113l198 -95l199 95h113zM956 427h-649v-169q0 -112 174 -112h514v-146h-568q-147 0 -229 51q-90 57 -90 161v563q0 104 80 163.5t221 59.5h586v-146h-516q-172 0 -172 -110v-171h649v-144z" />
    <glyph glyph-name="uni011B" unicode="&#x11b;" horiz-adv-x="1042" 
d="M954 455l-674 -199v-25q0 -59 45 -86q31 -16 107 -16h520v-129h-553q-143 0 -211 43q-86 51 -86 162v356q0 191 281 191h309q262 0 262 -203v-94zM774 528v11q0 86 -140 86h-194q-162 0 -162 -97v-147zM612 1288l-135 -227h-172l-125 225l119 2l90 -170l102 170h121z" />
    <glyph glyph-name="uni011C" unicode="&#x11c;" horiz-adv-x="1187" 
d="M905 1099h-113l-199 90l-198 -90h-113l199 142h225zM1083 242q0 -116 -76 -175q-82 -67 -221 -67h-346q-162 0 -246 57q-57 38 -76 92q-10 31 -10 108v507q0 70 16 107q23 47 86 83q80 46 230 46h571v-144h-530q-94 0 -131 -23q-43 -26 -43 -92v-478q0 -67 47 -96
q37 -22 123 -22h258q151 0 151 112v296h197v-311z" />
    <glyph glyph-name="uni011D" unicode="&#x11d;" horiz-adv-x="1032" 
d="M940 -85q0 -211 -299 -211h-559v134h537q94 0 125 39q20 30 20 104h-387q-145 0 -218 51.5t-73 143.5v365q0 110 63.5 163.5t211.5 53.5h292q150 0 218.5 -46t68.5 -156v-641zM766 144v368q0 58 -29 79q-45 36 -118 36h-220q-139 0 -139 -107v-304q0 -102 154 -102h313
q39 0 39 30zM737 876l-121 -1l-102 93l-92 -92h-119l125 122h174z" />
    <glyph glyph-name="uni0120" unicode="&#x120;" horiz-adv-x="1190" 
d="M589 1244q41 0 68 -21.5t27 -53.5q0 -30 -27.5 -52.5t-67.5 -22.5q-38 0 -66 22.5t-28 52.5q0 32 27.5 53.5t66.5 21.5zM1083 242q0 -116 -76 -175q-82 -67 -221 -67h-346q-162 0 -246 57q-57 38 -76 92q-10 31 -10 108v507q0 70 16 107q23 47 86 83q80 46 230 46h571
v-144h-530q-94 0 -131 -23q-43 -26 -43 -92v-478q0 -67 47 -96q37 -22 123 -22h258q151 0 151 112v296h197v-311z" />
    <glyph glyph-name="uni0121" unicode="&#x121;" horiz-adv-x="1032" 
d="M940 -85q0 -211 -299 -211h-559v134h537q94 0 125 39q20 30 20 104h-387q-145 0 -218 51.5t-73 143.5v365q0 110 63.5 163.5t211.5 53.5h292q150 0 218.5 -46t68.5 -156v-641zM766 144v368q0 58 -29 79q-45 36 -118 36h-220q-139 0 -139 -107v-304q0 -102 154 -102h313
q39 0 39 30zM567 929q0 -28 -26.5 -49t-61.5 -21q-37 0 -63 20.5t-26 47.5q0 30 24.5 50.5t62.5 20.5q37 0 63.5 -20t26.5 -49z" />
    <glyph glyph-name="uni0122" unicode="&#x122;" horiz-adv-x="1190" 
d="M1086 242q0 -116 -76 -175q-82 -67 -221 -67h-346q-162 0 -246 57q-57 38 -76 92q-10 31 -10 108v507q0 70 16 107q23 47 86 83q80 46 230 46h571v-144h-530q-94 0 -131 -23q-43 -26 -43 -92v-478q0 -67 47 -96q37 -22 123 -22h258q151 0 151 112v296h197v-311zM710 -164
q-10 -10 -28 -10q-19 0 -33 13.5t-14 44.5q0 28 21 49t57 21q34 0 55.5 -26.5t21.5 -67.5q0 -96 -129 -127l-26 37q39 12 57 28t18 38z" />
    <glyph glyph-name="uni0123" unicode="&#x123;" horiz-adv-x="1059" 
d="M590 1007q-79 -29 -79 -69q34 -3 55.5 -22t21.5 -43t-21.5 -41.5t-52.5 -17.5q-37 0 -63.5 23t-26.5 56q0 95 141 151zM966 -85q0 -211 -299 -211h-559v134h537q94 0 125 39q20 30 20 104h-387q-145 0 -218 51.5t-73 143.5v365q0 110 63.5 163.5t211.5 53.5h292
q150 0 218.5 -46t68.5 -156v-641zM792 144v368q0 58 -29 79q-45 36 -118 36h-220q-139 0 -139 -107v-304q0 -102 154 -102h313q39 0 39 30z" />
    <glyph glyph-name="uni0124" unicode="&#x124;" horiz-adv-x="1207" 
d="M904 1098h-113l-199 87l-198 -87h-113l199 137h225zM1103 0h-198v427h-598v-427h-199v1000h199v-429h598v429h198v-1000z" />
    <glyph glyph-name="uni0125" unicode="&#x125;" horiz-adv-x="1075" 
d="M847 1107h-133l-179 76l-178 -76h-133l179 131h265zM284 1000v-251h393q281 0 281 -239v-506h-174v450q0 75 -31 105t-110 30h-316q-43 0 -43 -40v-547h-176v998h176z" />
    <glyph glyph-name="uni0126" unicode="&#x126;" horiz-adv-x="1366" 
d="M1321 739h-125v-739h-184v488h-658v-488h-184v739h-125v102h125v160h184v-160h658v160h184v-160h125v-102zM1012 599v140h-658v-140h658z" />
    <glyph glyph-name="uni0127" unicode="&#x127;" horiz-adv-x="1130" 
d="M108 948v52h176v-52h91v-81h-91v-118h393q281 0 281 -239v-506h-174v450q0 75 -31 105t-110 30h-316q-43 0 -43 -40v-547h-176v865h-76v81h76z" />
    <glyph glyph-name="uni0128" unicode="&#x128;" horiz-adv-x="414" 
d="M424 1231q-21 -142 -119 -142q-34 0 -106 31q-62 28 -93 28q-45 0 -54 -59h-58q21 142 119 142q34 0 106 -31q62 -28 93 -28q45 0 54 59h58zM307 0h-199v1003h199v-1003z" />
    <glyph glyph-name="uni0129" unicode="&#x129;" horiz-adv-x="494" 
d="M318 6h-174v750h174v-750zM497 923l-49 -11q-6 -1 -50 -16q-28 -8 -53 -8q-32 0 -95 18t-97 18q-32 0 -153 -33v69q20 4 59 13q82 22 97 22q29 0 93 -17.5t92 -17.5q18 0 86 17q21 7 70 17v-71z" />
    <glyph glyph-name="uni012A" unicode="&#x12a;" horiz-adv-x="437" 
d="M433 1130h-442v105h442v-105zM307 0h-199v1003h199v-1003z" />
    <glyph glyph-name="uni012B" unicode="&#x12b;" horiz-adv-x="494" 
d="M348 0h-174v761h174v-761zM497 913h-504v94h504v-94z" />
    <glyph glyph-name="uni012C" unicode="&#x12c;" horiz-adv-x="447" 
d="M452 1231q-16 -76 -78 -119t-143 -43q-83 0 -146 43t-78 119h92q10 -37 48 -57.5t86 -20.5q45 0 80 20.5t45 57.5h94zM307 0h-199v1003h199v-1003z" />
    <glyph glyph-name="uni012D" unicode="&#x12d;" horiz-adv-x="494" 
d="M492 991q-163 -156 -243 -156t-244 156h131q76 -93 113 -93t112 93h131zM348 0h-174v761h174v-761z" />
    <glyph glyph-name="uni012E" unicode="&#x12e;" horiz-adv-x="419" 
d="M226 0q-52 -61 -52 -98q0 -88 90 -88q26 0 81 15v-61q-52 -24 -108 -24q-67 0 -109 36t-42 94q0 63 65 126h-43v1003h199v-1003h-81z" />
    <glyph glyph-name="uni012F" unicode="&#x12f;" horiz-adv-x="404" 
d="M287 1005v-130h-187v130h187zM204 0q-50 -60 -50 -95q0 -86 86 -86q25 0 79 15v-59q-51 -23 -105 -23q-64 0 -104 35t-40 90q0 61 63 123h-29v762h184v-762h-84z" />
    <glyph glyph-name="uni0130" unicode="&#x130;" horiz-adv-x="392" 
d="M288 0h-184v762h184v-762zM287 1005v-130h-187v130h187z" />
    <glyph glyph-name="uni0132" unicode="&#x132;" horiz-adv-x="1049" 
d="M306 -3h-199v1003h199v-1003zM984 246q0 -69 -13 -101q-16 -46 -69 -86q-82 -62 -238 -62h-133v146h115q67 4 103 30.5t36 112.5v712h199v-752z" />
    <glyph glyph-name="uni0133" unicode="&#x133;" horiz-adv-x="977" 
d="M317 0h-176v752h176v-752zM317 998v-131h-168v131h168zM826 -89q0 -99 -71.5 -153t-202.5 -54h-127v132h91q59 0 96.5 26.5t37.5 70.5v817h176v-839zM826 1002v-131h-168v131h168z" />
    <glyph glyph-name="uni0134" unicode="&#x134;" horiz-adv-x="607" 
d="M603 1071h-91l-161 107l-160 -107h-91l161 168h181zM473 249q0 -69 -13 -101q-16 -46 -69 -86q-82 -62 -238 -62h-133v146h115q67 4 103 30.5t36 112.5v712h199v-752z" />
    <glyph glyph-name="uni0135" unicode="&#x135;" horiz-adv-x="625" 
d="M636 1049h-98l-172 116l-173 -116h-98l173 182h195zM473 249q0 -69 -13 -101q-16 -46 -69 -86q-82 -62 -238 -62h-133v146h115q67 4 103 30.5t36 112.5v712h199v-752z" />
    <glyph glyph-name="uni0136" unicode="&#x136;" horiz-adv-x="1069" 
d="M600 -164q-13 -9 -33 -9q-22 0 -38 13.5t-16 43.5q0 29 24 50t65 21q40 0 64.5 -27t24.5 -67q0 -97 -149 -128l-29 37q45 12 66 28.5t21 37.5zM1062 0h-235l-453 421q-61 55 -61 84q0 26 59 82l438 413h238l-520 -493zM307 0h-199v1000h199v-1000z" />
    <glyph glyph-name="uni0137" unicode="&#x137;" horiz-adv-x="944" 
d="M507 -151q-10 -11 -27 -11q-18 0 -31 14.5t-13 47.5q0 30 20 52.5t53 22.5t53 -28.5t20 -71.5q0 -103 -122 -136l-24 39q37 13 54 30.5t17 40.5zM917 0h-217l-375 333q-31 26 -31 50q0 26 35 58l354 309h211l-411 -367zM284 0h-176v1003h176v-1003z" />
    <glyph glyph-name="uni0138" unicode="&#x138;" horiz-adv-x="1069" 
d="M1062 0h-235l-453 421q-61 55 -61 84q0 26 59 82l438 413h238l-520 -493zM307 0h-199v1000h199v-1000z" />
    <glyph glyph-name="uni0139" unicode="&#x139;" horiz-adv-x="983" 
d="M726 1245l-312 -133h-112l198 133h226zM983 0h-529q-174 0 -267 53.5t-93 186.5v761h199v-726q0 -77 49 -107q37 -23 158 -23h483v-145z" />
    <glyph glyph-name="uni013A" unicode="&#x13a;" horiz-adv-x="514" 
d="M463 -11q-48 -16 -101 -16q-202 0 -202 191v837h174v-816q0 -49 22.5 -77t61.5 -28q6 0 16 2zM522 1241l-322 -101h-122l178 101h266z" />
    <glyph glyph-name="uni013B" unicode="&#x13b;" horiz-adv-x="986" 
d="M983 0h-529q-174 0 -267 53.5t-93 186.5v761h199v-726q0 -77 49 -107q37 -23 158 -23h483v-145zM545 -161q-12 -10 -32 -10q-22 0 -37.5 14.5t-15.5 47.5q0 31 23.5 53.5t64.5 22.5q39 0 63 -29t24 -72q0 -104 -146 -137l-29 40q44 12 64.5 30t20.5 40z" />
    <glyph glyph-name="uni013C" unicode="&#x13c;" horiz-adv-x="514" 
d="M336 0h-176v1000h176v-1000zM255 -145q-10 -10 -27 -10q-18 0 -31.5 14t-13.5 46q0 30 20 51.5t55 21.5q33 0 53.5 -27.5t20.5 -69.5q0 -100 -124 -132l-25 38q38 12 55 29t17 39z" />
    <glyph glyph-name="uni013D" unicode="&#x13d;" horiz-adv-x="1065" 
d="M1059 0h-529q-174 0 -267 53.5t-93 186.5v761h199v-726q0 -77 49 -107q37 -23 158 -23h483v-145zM625 1125q-31 4 -51.5 23.5t-20.5 45.5t20.5 45t48.5 19q34 0 58 -24.5t24 -59.5q0 -103 -129 -162l-23 39q73 31 73 74z" />
    <glyph glyph-name="uni013E" unicode="&#x13e;" horiz-adv-x="503" 
d="M336 0h-176v1000h176v-1000zM263 1150q-30 4 -49.5 21.5t-19.5 39.5q0 23 19.5 40t46.5 17q33 0 56 -22t23 -53q0 -91 -124 -143l-22 35q70 27 70 65z" />
    <glyph glyph-name="uni013F" unicode="&#x13f;" horiz-adv-x="993" 
d="M610 758q32 0 54.5 -23t22.5 -56q0 -35 -22.5 -60t-54.5 -25t-53.5 24.5t-21.5 60.5q0 33 21.5 56t53.5 23zM983 0h-529q-174 0 -267 53.5t-93 186.5v761h199v-726q0 -77 49 -107q37 -23 158 -23h483v-145z" />
    <glyph glyph-name="uni0140" unicode="&#x140;" horiz-adv-x="743" 
d="M463 -12q-48 -15 -101 -15q-202 0 -202 190v835h174v-813q0 -49 22.5 -77t61.5 -28q6 0 16 1zM550 551q34 0 57.5 -22t23.5 -53q0 -33 -24 -57t-57 -24t-56 23.5t-23 57.5q0 32 22.5 53.5t56.5 21.5z" />
    <glyph glyph-name="uni0143" unicode="&#x143;" horiz-adv-x="1208" 
d="M817 1243l-312 -177h-112l198 177h226zM1097 120q0 -57 -41 -94q-45 -42 -121 -42q-71 0 -110 32q-17 14 -60 81l-463 705v-804h-190v856q0 146 162 146q74 0 112 -31q21 -17 62 -81l459 -704v807h190v-871z" />
    <glyph glyph-name="uni0144" unicode="&#x144;" horiz-adv-x="1051" 
d="M769 1v477q0 115 -148 115h-196q-150 0 -150 -115v-477h-176v522q0 230 268 230h310q266 0 266 -230v-522h-174zM734 999l-312 -184h-112l198 184h226z" />
    <glyph glyph-name="uni0145" unicode="&#x145;" horiz-adv-x="1298" 
d="M1155 120q0 -57 -41 -94q-45 -42 -121 -42q-71 0 -110 32q-17 14 -60 81l-463 705v-804h-190v856q0 146 162 146q74 0 112 -31q21 -17 62 -81l459 -704v807h190v-871zM666 -150q-9 -10 -24 -10q-17 0 -29 14t-12 46q0 29 18 50.5t49 21.5q30 0 48.5 -27.5t18.5 -69.5
q0 -99 -112 -131l-22 38q34 12 49.5 29t15.5 39z" />
    <glyph glyph-name="uni0146" unicode="&#x146;" horiz-adv-x="1085" 
d="M775 -1v477q0 115 -148 115h-196q-150 0 -150 -115v-477h-176v522q0 230 268 230h310q266 0 266 -230v-522h-174zM579 -160q-10 -9 -26 -9t-28.5 12.5t-12.5 40.5q0 26 18.5 45t50.5 19q30 0 49 -24.5t19 -61.5q0 -88 -114 -116l-23 34q35 10 51 25t16 35z" />
    <glyph glyph-name="uni0147" unicode="&#x147;" horiz-adv-x="1285" 
d="M979 1238l-199 -148h-225l-199 148h113l198 -94l199 94h113zM1155 120q0 -57 -41 -94q-45 -42 -121 -42q-71 0 -110 32q-17 14 -60 81l-463 705v-804h-190v856q0 146 162 146q74 0 112 -31q21 -17 62 -81l459 -704v807h190v-871z" />
    <glyph glyph-name="uni0148" unicode="&#x148;" horiz-adv-x="1079" 
d="M775 -1v477q0 115 -148 115h-196q-150 0 -150 -115v-477h-176v522q0 230 268 230h310q266 0 266 -230v-522h-174zM729 1001l-135 -144h-172l-125 143l119 1l90 -108l102 108h121z" />
    <glyph glyph-name="uni0149" unicode="&#x149;" horiz-adv-x="1079" 
d="M772 2v477q0 115 -148 115h-196q-150 0 -150 -115v-477h-176v522q0 230 268 230h310q266 0 266 -230v-522h-174zM518 896q-32 3 -52.5 19.5t-20.5 38.5t20.5 38t49.5 16q35 0 59.5 -21t24.5 -50q0 -87 -132 -137l-23 33q74 27 74 63z" />
    <glyph glyph-name="uni014A" unicode="&#x14a;" horiz-adv-x="1279" 
d="M1152 89v-21q0 -196 -67.5 -275.5t-217.5 -79.5q-57 0 -122 31l39 135q46 -16 81 -16q88 0 105 122q-55 5 -87 31q-17 14 -60 81l-463 705v-804h-190v856q0 146 162 146q74 0 112 -31q21 -17 62 -81l459 -704v807h190v-871q0 -16 -3 -31z" />
    <glyph glyph-name="uni014B" unicode="&#x14b;" horiz-adv-x="1068" 
d="M948 -1v-20q0 -189 -62.5 -272.5t-218.5 -83.5q-57 0 -123 31l39 135q47 -16 82 -16q109 0 109 190v36h1v477q0 115 -148 115h-196q-150 0 -150 -115v-477h-176v522q0 230 268 230h310q266 0 266 -230v-522h-1z" />
    <glyph glyph-name="uni014C" unicode="&#x14c;" horiz-adv-x="1177" 
d="M876 1160h-602v75h602v-75zM1066 227q0 -227 -327 -227h-301q-158 0 -236 50q-94 60 -94 175v546q0 114 96 177q76 52 234 52h303q325 0 325 -229v-544zM870 263v466q0 70 -41 97.5t-135 27.5h-209q-96 0 -137 -27.5t-41 -97.5v-462q0 -62 45 -95q37 -26 133 -26h209
q92 0 134 26t42 91z" />
    <glyph glyph-name="uni014D" unicode="&#x14d;" horiz-adv-x="1065" 
d="M956 186q0 -96 -86 -147q-61 -39 -184 -39h-305q-140 0 -209.5 50t-69.5 136v375q0 98 88 152q64 39 191 39h305q127 0 186 -39q84 -51 84 -152v-375zM780 221v305q0 52 -41 76q-33 23 -102 23h-209q-72 0 -107 -23q-43 -24 -43 -76v-303q0 -49 43 -73q33 -21 94 -21h234
q59 0 90 21q41 24 41 71zM793 903h-504v94h504v-94z" />
    <glyph glyph-name="uni014E" unicode="&#x14e;" horiz-adv-x="1180" 
d="M881 1235q-22 -60 -106 -93.5t-193 -33.5q-112 0 -197.5 33.5t-106.5 93.5h125q14 -29 65 -45t116 -16q62 0 109.5 16t60.5 45h127zM1066 227q0 -227 -327 -227h-301q-158 0 -236 50q-94 60 -94 175v546q0 114 96 177q76 52 234 52h303q325 0 325 -229v-544zM870 263v466
q0 70 -41 97.5t-135 27.5h-209q-96 0 -137 -27.5t-41 -97.5v-462q0 -62 45 -95q37 -26 133 -26h209q92 0 134 26t42 91z" />
    <glyph glyph-name="uni014F" unicode="&#x14f;" horiz-adv-x="1075" 
d="M956 186q0 -96 -86 -147q-61 -39 -184 -39h-305q-140 0 -209.5 50t-69.5 136v375q0 98 88 152q64 39 191 39h305q127 0 186 -39q84 -51 84 -152v-375zM780 221v305q0 52 -41 76q-33 23 -102 23h-209q-72 0 -107 -23q-43 -24 -43 -76v-303q0 -49 43 -73q33 -21 94 -21h234
q59 0 90 21q41 24 41 71zM762 1001q-163 -143 -243 -143t-244 143h131q76 -85 113 -85t112 85h131z" />
    <glyph glyph-name="uni0150" unicode="&#x150;" horiz-adv-x="1194" 
d="M921 1238l-244 -176h-112l184 176h172zM628 1238l-244 -176h-112l184 176h172zM1066 227q0 -227 -327 -227h-301q-158 0 -236 50q-94 60 -94 175v546q0 114 96 177q76 52 234 52h303q325 0 325 -229v-544zM870 263v466q0 70 -41 97.5t-135 27.5h-209q-96 0 -137 -27.5
t-41 -97.5v-462q0 -62 45 -95q37 -26 133 -26h209q92 0 134 26t42 91z" />
    <glyph glyph-name="uni0151" unicode="&#x151;" horiz-adv-x="1069" 
d="M956 186q0 -96 -86 -147q-61 -39 -184 -39h-305q-140 0 -209.5 50t-69.5 136v375q0 98 88 152q64 39 191 39h305q127 0 186 -39q84 -51 84 -152v-375zM780 221v305q0 52 -41 76q-33 23 -102 23h-209q-72 0 -107 -23q-43 -24 -43 -76v-303q0 -49 43 -73q33 -21 94 -21h234
q59 0 90 21q41 24 41 71zM827 998l-151 -103h-148l135 103h164zM561 998l-154 -103h-145l133 103h166z" />
    <glyph glyph-name="uni0154" unicode="&#x154;" horiz-adv-x="1165" 
d="M792 1248l-312 -179h-112l198 179h226zM1083 0h-248l-487 384q-25 19 -25 63q0 84 123 84l291 2q145 0 145 100v115q0 105 -164 105h-411v-853h-199v999h668q305 0 305 -213v-173q0 -93 -79 -150t-208 -57h-229z" />
    <glyph glyph-name="uni0155" unicode="&#x155;" horiz-adv-x="707" 
d="M647 633q-204 0 -237 -8q-70 -21 -70 -101v-520h-182v555q0 203 285 203h204v-129zM595 998l-271 -150h-97l172 150h196z" />
    <glyph glyph-name="uni0156" unicode="&#x156;" horiz-adv-x="1165" 
d="M1076 7h-248l-487 384q-25 19 -25 63q0 84 123 84l291 2q145 0 145 100v115q0 105 -164 105h-411v-853h-199v999h668q305 0 305 -213v-173q0 -93 -79 -150t-208 -57h-229zM605 -166q-10 -9 -27 -9q-18 0 -31 12.5t-13 41.5q0 26 20 45.5t53 19.5t53 -25t20 -62
q0 -90 -122 -119l-24 34q37 11 54 26.5t17 35.5z" />
    <glyph glyph-name="uni0157" unicode="&#x157;" horiz-adv-x="679" 
d="M597 627q-204 0 -237 -8q-70 -21 -70 -101v-520h-182v555q0 203 285 203h204v-129zM208 -180q-10 -10 -28 -10q-19 0 -33 13.5t-14 44.5q0 28 21 49t57 21q34 0 55.5 -26.5t21.5 -67.5q0 -96 -129 -127l-26 37q39 12 57 28t18 38z" />
    <glyph glyph-name="uni0158" unicode="&#x158;" horiz-adv-x="1165" 
d="M823 1237l-183 -138h-207l-183 138h104l182 -88l183 88h104zM1083 0h-248l-487 384q-25 19 -25 63q0 84 123 84l291 2q145 0 145 100v115q0 105 -164 105h-411v-853h-199v999h668q305 0 305 -213v-173q0 -93 -79 -150t-208 -57h-229z" />
    <glyph glyph-name="uni0159" unicode="&#x159;" horiz-adv-x="682" 
d="M606 633q-204 0 -237 -8q-70 -21 -70 -101v-520h-182v555q0 203 285 203h204v-129zM548 996l-116 -122h-148l-107 121l102 1l77 -91l88 91h104z" />
    <glyph glyph-name="uni015A" unicode="&#x15a;" horiz-adv-x="1109" 
d="M789 1239l-312 -162h-112l198 162h226zM989 854h-510q-125 0 -156 -46q-18 -28 -18 -127q0 -52 47 -81q39 -23 127 -23h211q135 0 216 -54t81 -152v-158q0 -103 -83 -158t-227 -55h-569v146h510q127 0 158 50q14 26 14 135q0 102 -166 102h-211q-131 0 -215 50
q-92 55 -92 150v156q0 105 100 167q70 44 203 44h580v-146z" />
    <glyph glyph-name="uni015B" unicode="&#x15b;" horiz-adv-x="961" 
d="M866 623h-465q-63 0 -94 -15q-43 -20 -43 -55v-31q0 -78 141 -78h230q100 0 164.5 -49t64.5 -125v-92q0 -72 -65 -127q-39 -35 -82 -43q-35 -8 -103 -8h-526v129h479q74 0 99 29q18 22 18 80q0 77 -115 77h-217q-110 0 -182 43q-80 48 -80 125v101q0 84 92 135
q56 33 172 33h512v-129zM700 997l-312 -162h-112l198 162h226z" />
    <glyph glyph-name="uni015C" unicode="&#x15c;" horiz-adv-x="1001" 
d="M825 1125h-113l-199 72l-198 -72h-113l199 113h225zM989 854h-510q-125 0 -156 -46q-18 -28 -18 -127q0 -52 47 -81q39 -23 127 -23h211q135 0 216 -54t81 -152v-158q0 -103 -83 -158t-227 -55h-569v146h510q127 0 158 50q14 26 14 135q0 102 -166 102h-211
q-131 0 -215 50q-92 55 -92 150v156q0 105 100 167q70 44 203 44h580v-146z" />
    <glyph glyph-name="uni015D" unicode="&#x15d;" horiz-adv-x="973" 
d="M888 623h-465q-63 0 -94 -15q-43 -20 -43 -55v-31q0 -78 141 -78h230q100 0 164.5 -49t64.5 -125v-92q0 -72 -65 -127q-39 -35 -82 -43q-35 -8 -103 -8h-526v129h479q74 0 99 29q18 22 18 80q0 77 -115 77h-217q-110 0 -182 43q-80 48 -80 125v101q0 84 92 135
q56 33 172 33h512v-129zM716 899l-121 -1l-102 78l-92 -77h-119l125 102h174z" />
    <glyph glyph-name="uni0162" unicode="&#x162;" horiz-adv-x="880" 
d="M890 857h-340v-857h-199v857h-338v146h877v-146zM558 -86l-150 -191h-145l132 191h163z" />
    <glyph glyph-name="uni0163" unicode="&#x163;" horiz-adv-x="603" 
d="M501 615h-223v-615h-176v1003h176v-262h223v-126zM286 -79l-148 -160h-143l129 160h162z" />
    <glyph glyph-name="uni0164" unicode="&#x164;" horiz-adv-x="914" 
d="M684 1238l-168 -152h-190l-168 152h95l168 -97l168 97h95zM890 857h-340v-857h-199v857h-338v146h877v-146z" />
    <glyph glyph-name="uni0165" unicode="&#x165;" horiz-adv-x="569" 
d="M439 903q-33 4 -54.5 23t-21.5 43q0 25 21.5 43.5t51.5 18.5q36 0 61.5 -23.5t25.5 -57.5q0 -99 -137 -156l-24 38q77 30 77 71zM501 615h-223v-615h-176v1003h176v-262h223v-126z" />
    <glyph glyph-name="uni0166" unicode="&#x166;" horiz-adv-x="911" 
d="M351 645h-154v109h154v103h-338v146h877v-146h-340v-103h154v-109h-154v-645h-199v645z" />
    <glyph glyph-name="uni0167" unicode="&#x167;" horiz-adv-x="562" 
d="M102 440h-92v94h92v469h176v-262h223v-126h-223v-81h225v-94h-225v-440h-176v440z" />
    <glyph glyph-name="uni0168" unicode="&#x168;" horiz-adv-x="1203" 
d="M898 1231q-30 -99 -172 -99q-50 0 -154 22q-90 19 -135 19q-65 0 -78 -41h-84q30 99 172 99q50 0 154 -22q90 -19 135 -19q65 0 78 41h84zM1091 252q0 -68 -14 -104q-19 -49 -73 -89t-114 -52q-41 -7 -135 -7h-311q-90 0 -133 9q-64 12 -115 50q-57 43 -76 89
q-12 32 -12 104v748h199v-721q0 -78 41 -105.5t149 -27.5h205q106 0 148 26.5t42 102.5v725h199v-748z" />
    <glyph glyph-name="uni0169" unicode="&#x169;" horiz-adv-x="1130" 
d="M332 752v-467q0 -58 39 -95q31 -28 119 -28h188q156 0 156 119v471h176v-514q0 -238 -276 -238h-302q-276 0 -276 238v514h176zM876 934l-65 -11q-8 -2 -66 -17q-37 -8 -69 -8q-43 0 -126 18.5t-128 18.5q-41 0 -201 -34v71q27 4 78 14q108 22 127 22q39 0 123 -18
t121 -18q24 0 114 18q27 7 92 17v-73z" />
    <glyph glyph-name="uni016A" unicode="&#x16a;" horiz-adv-x="1197" 
d="M908 1146h-640v89h640v-89zM1091 252q0 -68 -14 -104q-19 -49 -73 -89t-114 -52q-41 -7 -135 -7h-311q-90 0 -133 9q-64 12 -115 50q-57 43 -76 89q-12 32 -12 104v748h199v-721q0 -78 41 -105.5t149 -27.5h205q106 0 148 26.5t42 102.5v725h199v-748z" />
    <glyph glyph-name="uni016B" unicode="&#x16b;" horiz-adv-x="1079" 
d="M282 752v-467q0 -58 39 -95q31 -28 119 -28h188q156 0 156 119v471h176v-514q0 -238 -276 -238h-302q-276 0 -276 238v514h176zM774 906h-504v94h504v-94z" />
    <glyph glyph-name="uni016C" unicode="&#x16c;" horiz-adv-x="1200" 
d="M911 1234q-22 -86 -107.5 -135t-196.5 -49q-114 0 -201 49t-108 135h127q14 -42 66 -65.5t118 -23.5q63 0 111 23t62 66h129zM1091 252q0 -68 -14 -104q-19 -49 -73 -89t-114 -52q-41 -7 -135 -7h-311q-90 0 -133 9q-64 12 -115 50q-57 43 -76 89q-12 32 -12 104v748h199
v-721q0 -78 41 -105.5t149 -27.5h205q106 0 148 26.5t42 102.5v725h199v-748z" />
    <glyph glyph-name="uni016D" unicode="&#x16d;" horiz-adv-x="1075" 
d="M282 759v-467q0 -58 39 -95q31 -28 119 -28h188q156 0 156 119v471h176v-514q0 -238 -276 -238h-302q-276 0 -276 238v514h176zM762 1002q-163 -167 -243 -167t-244 167h131q76 -100 113 -100t112 100h131z" />
    <glyph glyph-name="uni016E" unicode="&#x16e;" horiz-adv-x="1203" 
d="M594 1267q61 0 105.5 -44.5t44.5 -105.5t-44.5 -105.5t-105.5 -44.5t-105 44.5t-44 105.5t44 105.5t105 44.5zM594 1028q36 0 62.5 26.5t26.5 62.5t-26.5 62.5t-62.5 26.5q-35 0 -61.5 -26.5t-26.5 -62.5q0 -37 26 -63t62 -26zM1091 252q0 -68 -14 -104q-19 -49 -73 -89
t-114 -52q-41 -7 -135 -7h-311q-90 0 -133 9q-64 12 -115 50q-57 43 -76 89q-12 32 -12 104v748h199v-721q0 -78 41 -105.5t149 -27.5h205q106 0 148 26.5t42 102.5v725h199v-748z" />
    <glyph glyph-name="uni016F" unicode="&#x16f;" horiz-adv-x="1069" 
d="M285 755v-467q0 -58 39 -95q31 -28 119 -28h188q156 0 156 119v471h176v-514q0 -238 -276 -238h-302q-276 0 -276 238v514h176zM538 1011q58 0 99.5 -38t41.5 -90t-41.5 -90t-99.5 -38q-57 0 -98.5 38t-41.5 90t41.5 90t98.5 38zM538 807q34 0 58.5 22.5t24.5 53.5
t-24.5 53.5t-58.5 22.5q-33 0 -57.5 -22.5t-24.5 -53.5t24 -53.5t58 -22.5z" />
    <glyph glyph-name="uni0170" unicode="&#x170;" horiz-adv-x="1197" 
d="M901 1235l-226 -149h-104l171 149h159zM629 1235l-227 -149h-103l170 149h160zM1091 252q0 -68 -14 -104q-19 -49 -73 -89t-114 -52q-41 -7 -135 -7h-311q-90 0 -133 9q-64 12 -115 50q-57 43 -76 89q-12 32 -12 104v748h199v-721q0 -78 41 -105.5t149 -27.5h205
q106 0 148 26.5t42 102.5v725h199v-748z" />
    <glyph glyph-name="uni0171" unicode="&#x171;" horiz-adv-x="1062" 
d="M279 755v-467q0 -58 39 -95q31 -28 119 -28h188q156 0 156 119v471h176v-514q0 -238 -276 -238h-302q-276 0 -276 238v514h176zM809 1001l-141 -158h-138l126 158h153zM561 1001l-144 -158h-135l124 158h155z" />
    <glyph glyph-name="uni0172" unicode="&#x172;" horiz-adv-x="1200" 
d="M671 0q-35 -53 -35 -90q0 -127 123 -127q36 0 112 22v-88q-72 -33 -149 -33q-92 0 -149.5 51.5t-57.5 133.5q0 66 47 131h-118q-90 0 -133 9q-64 12 -115 50q-57 43 -76 89q-12 32 -12 104v748h199v-721q0 -78 41 -105.5t149 -27.5h205q106 0 148 26.5t42 102.5v725h199
v-748q0 -68 -14 -104q-19 -49 -73 -89t-114 -52q-41 -7 -135 -7h-84z" />
    <glyph glyph-name="uni0173" unicode="&#x173;" horiz-adv-x="1088" 
d="M769 10q-25 -48 -25 -81q0 -129 106 -129q31 0 97 22v-89q-63 -34 -129 -34q-78 0 -127.5 52.5t-49.5 135.5q0 58 31 116h-293q-276 0 -276 238v514h176v-467q0 -58 39 -95q31 -28 119 -28h188q156 0 156 119v471h176v-514q0 -197 -188 -231z" />
    <glyph glyph-name="uni0174" unicode="&#x174;" horiz-adv-x="1608" 
d="M1124 1069h-113l-199 103l-198 -103h-113l199 162h225zM1581 999l-275 -911q-33 -106 -156 -106q-127 0 -155 105l-197 707l-190 -707q-29 -105 -156 -105q-123 0 -156 106l-274 911h195l241 -794l191 693q30 112 151 112q123 0 154 -112l190 -693l242 794h195z" />
    <glyph glyph-name="uni0175" unicode="&#x175;" horiz-adv-x="1381" 
d="M1344 764l-219 -672q-35 -106 -146 -106q-106 0 -139 100l-158 492l-151 -492q-31 -100 -144 -100q-108 0 -143 106l-217 672h172l197 -600l163 508q31 98 127 98q97 0 127 -98l162 -508l197 600h172zM912 846l-121 -1l-102 124l-92 -123h-119l125 162h174z" />
    <glyph glyph-name="uni0176" unicode="&#x176;" horiz-adv-x="1075" 
d="M802 1093h-99l-174 84l-173 -84h-99l174 132h197zM1096 1000l-459 -593v-407h-198v407l-457 593h227l324 -434l336 434h227z" />
    <glyph glyph-name="uni0177" unicode="&#x177;" horiz-adv-x="1019" 
d="M683 11h-324q-124 0 -194 62q-80 70 -80 182l1 506h175v-461q0 -128 137 -128h316q45 0 45 49v538h176v-828q0 -112 -69.5 -183t-190.5 -71h-553v167h504q88 0 116 47q17 31 17 120v21zM725 879l-121 -1l-102 93l-92 -92h-119l125 122h174z" />
    <glyph glyph-name="uni0179" unicode="&#x179;" horiz-adv-x="1033" 
d="M742 1240l-312 -173h-112l198 173h226zM978 904q0 -34 -23 -58l-653 -700h651v-146h-710q-58 0 -98 7.5t-67.5 33.5t-27.5 56q0 31 35 70l639 687h-651v146h761q144 0 144 -96z" />
    <glyph glyph-name="uni017A" unicode="&#x17a;" horiz-adv-x="1058" 
d="M969 664q0 -41 -37 -68l-620 -465h632v-131h-716q-64 0 -111 24.5t-47 69.5q0 35 49 74l604 461h-633v129h719q160 0 160 -94zM736 1000l-312 -153h-112l198 153h226z" />
    <glyph glyph-name="uni017B" unicode="&#x17b;" horiz-adv-x="1078" 
d="M514 1237q35 0 59 -23.5t24 -59.5q0 -34 -24 -58.5t-59 -24.5q-34 0 -58.5 25t-24.5 58q0 35 24 59t59 24zM978 904q0 -34 -23 -58l-653 -700h651v-146h-710q-58 0 -98 7.5t-67.5 33.5t-27.5 56q0 31 35 70l639 687h-651v146h761q144 0 144 -96z" />
    <glyph glyph-name="uni017C" unicode="&#x17c;" horiz-adv-x="1045" 
d="M969 664q0 -41 -37 -68l-620 -465h632v-131h-716q-64 0 -111 24.5t-47 69.5q0 35 49 74l604 461h-633v129h719q160 0 160 -94zM585 929q0 -26 -21.5 -46.5t-49.5 -20.5q-30 0 -51 19.5t-21 46.5q0 28 20 48t50 20t51.5 -19.5t21.5 -47.5z" />
    <glyph glyph-name="uni017F" unicode="&#x17f;" horiz-adv-x="680" 
d="M717 965l-41 -93q-95 23 -168 23q-61 0 -85 -34.5t-24 -109.5v-751h-174v617h-182v106h182v45q0 125 68 177.5t213 52.5q93 0 211 -33z" />
    <glyph glyph-name="uni01FA" unicode="&#x1fa;" horiz-adv-x="1223" 
d="M611 1018q37 0 63.5 29t26.5 70q0 39 -26.5 68.5t-63.5 29.5q-36 0 -63 -29.5t-27 -68.5q0 -41 26.5 -70t63.5 -29zM825 382l-217 446l-197 -446h414zM780 1394l-257 -110h-98l142 110h213zM525 979h-1q-11 9 -20 19q-45 50 -45 119q0 68 45 117.5t107 49.5t107.5 -49.5
t45.5 -117.5q0 -69 -46 -119l-15 -15q47 -22 73 -73l444 -910h-213l-119 246h-540l-119 -246h-213l444 910q23 47 65 69z" />
    <glyph glyph-name="uni01FB" unicode="&#x1fb;" horiz-adv-x="985" 
d="M514 1089q49 0 84.5 -35t35.5 -82q0 -48 -35.5 -83t-84.5 -35q-50 0 -85 35t-35 83q0 47 35 82t85 35zM514 902q28 0 49.5 20.5t21.5 49.5q0 27 -21.5 48t-49.5 21q-29 0 -50 -21t-21 -48q0 -29 21 -49.5t50 -20.5zM728 1234l-203 -108h-76l112 108h167zM962 188
q0 -84 -66.5 -136t-181.5 -52h-336q-120 0 -192 45q-78 49 -78 137v133q0 91 69.5 140t190.5 49h420q-2 63 -25 90q-28 31 -110 31h-541v129h565q285 0 285 -191v-375zM786 213v145q0 25 -41 25h-336q-125 0 -125 -94v-74q0 -41 37 -62.5t90 -21.5h252q123 0 123 82z" />
    <glyph glyph-name="uni01FC" unicode="&#x1fc;" horiz-adv-x="1728" 
d="M1224 1234l-312 -148h-112l198 148h226zM1690 431h-668v-175q0 -111 143 -111h523v-145h-564q-127 0 -212 58t-85 149v38h-421l-187 -245h-223l690 880q39 47 62 65q34 27 93.5 39t139.5 12h707v-144h-543q-123 0 -123 -91v-186h668v-144zM825 382l-2 428l-323 -428h325z
" />
    <glyph glyph-name="uni01FD" unicode="&#x1fd;" horiz-adv-x="1618" 
d="M1630 0h-537q-145 0 -223 89q-82 -89 -221 -89h-260q-289 0 -289 194v353q0 203 299 203h229q93 0 136 -14q57 -17 102 -69q27 32 45 44q57 39 176 39h264q273 0 277 -199l2 -98l-674 -202v-29q0 -39 44 -66t99 -27h531v-129zM1454 518l-2 20q-4 38 -43 61.5t-88 23.5
h-224q-143 0 -143 -97v-158zM776 229v294q0 100 -158 100h-188q-158 0 -158 -100v-294q0 -100 158 -100h188q158 0 158 100zM1078 1065l-312 -166h-112l198 166h226z" />
    <glyph glyph-name="uni01FE" unicode="&#x1fe;" horiz-adv-x="1187" 
d="M813 1238l-312 -143h-112l198 143h226zM1144 1064l-137 -136q62 -61 62 -156v-545q0 -227 -328 -227h-303q-135 0 -217 38l-133 -135l-40 43l126 127q-64 68 -64 152v547q0 115 94 177q76 52 234 52h303q133 0 219 -42l145 144zM835 818q-35 37 -139 37h-209
q-96 0 -137 -28t-41 -97v-433q0 -40 16 -53zM870 264v431q0 31 -17 56l-507 -568q36 -37 141 -37h209q90 0 132 25t42 93z" />
    <glyph glyph-name="uni01FF" unicode="&#x1ff;" horiz-adv-x="1161" 
d="M1021 774l-84 -85q55 -49 55 -131v-372q0 -98 -84 -149q-61 -37 -186 -37h-305q-113 0 -179 31l-130 -131l-34 34l123 126q-57 47 -57 126v372q0 98 86 150q64 39 191 39h305q114 0 174 -30l85 85zM771 601q-33 19 -86 19h-232q-137 0 -137 -98v-291q0 -32 15 -48z
M818 221v294q0 33 -16 49l-441 -418q35 -18 92 -18h232q63 0 98 25t35 68zM781 1008l-312 -166h-112l198 166h226z" />
    <glyph glyph-name="glyph374" 
d="M837 1222l-312 -166h-112l198 166h226z" />
    <glyph glyph-name="uni037E" unicode="&#x37e;" horiz-adv-x="479" 
d="M271 559q0 -32 -23.5 -55t-56.5 -23q-34 0 -57 23t-23 53q0 32 22.5 56t57.5 24q33 0 56.5 -23t23.5 -55zM273 156q0 -20 -10 -47l-58 -146h-74l49 126q-38 40 -38 72t19 55.5t47 23.5q27 0 46 -26t19 -58z" />
    <glyph glyph-name="uni0384" unicode="&#x384;" horiz-adv-x="614" 
d="M419 1271l-56 -301h-86l-55 301h197z" />
    <glyph glyph-name="uni0385" unicode="&#x385;" horiz-adv-x="1159" 
d="M668 1241l-44 -211h-69l-44 211h157zM779 1100q36 0 60 -21.5t24 -54.5q0 -31 -24.5 -53.5t-59.5 -22.5q-36 0 -61.5 22.5t-25.5 53.5q0 33 25 54.5t62 21.5zM404 1100q37 0 61 -21.5t24 -54.5q0 -31 -25 -53.5t-60 -22.5q-36 0 -62 23t-26 53q0 33 25.5 54.5t62.5 21.5z
" />
    <glyph glyph-name="uni0386" unicode="&#x386;" horiz-adv-x="1221" 
d="M1220 0h-213l-119 245h-540l-119 -245h-213l444 909q45 90 158 90t158 -90zM825 382l-217 445l-197 -445h414zM347 1321l-56 -282h-86l-55 282h197z" />
    <glyph glyph-name="uni0387" unicode="&#x387;" horiz-adv-x="374" 
d="M284 402q0 -39 -24.5 -66.5t-61.5 -27.5t-62.5 27.5t-25.5 64.5q0 39 24.5 67.5t61.5 28.5t62.5 -27.5t25.5 -66.5z" />
    <glyph glyph-name="uni0388" unicode="&#x388;" horiz-adv-x="1096" 
d="M957 428h-649v-169q0 -113 174 -113h514v-146h-568q-147 0 -229 52q-90 56 -90 161v564q0 104 80 163.5t221 59.5h586v-146h-516q-172 0 -172 -111v-171h649v-144zM98 1322l-56 -282h-86l-55 282h197z" />
    <glyph glyph-name="uni0389" unicode="&#x389;" horiz-adv-x="1207" 
d="M1107 0h-198v427h-598v-427h-199v1000h199v-429h598v429h198v-1000zM101 1313l-56 -280h-86l-55 280h197z" />
    <glyph glyph-name="uni038A" unicode="&#x38a;" horiz-adv-x="408" 
d="M308 0h-199v1000h199v-1000zM98 1318l-56 -281h-86l-55 281h197z" />
    <glyph glyph-name="uni038C" unicode="&#x38c;" horiz-adv-x="1167" 
d="M1067 226q0 -226 -327 -226h-301q-158 0 -236 50q-94 59 -94 174v545q0 113 96 176q76 52 234 52h303q325 0 325 -228v-543zM871 262v465q0 69 -41 96.5t-135 27.5h-209q-96 0 -137 -27.5t-41 -96.5v-461q0 -61 45 -94q37 -26 133 -26h209q92 0 134 25.5t42 90.5z
M150 1318l-56 -281h-86l-55 281h197z" />
    <glyph glyph-name="uni038E" unicode="&#x38e;" horiz-adv-x="1340" 
d="M1240 999l-459 -593v-406h-198v406l-457 593h227l324 -434l336 434h227zM94 1321l-56 -282h-86l-55 282h197z" />
    <glyph glyph-name="uni038F" unicode="&#x38f;" horiz-adv-x="1482" 
d="M352 108q-102 76 -171.5 194t-69.5 232q0 201 186 332.5t448 131.5q264 0 450.5 -131t186.5 -333q0 -114 -69.5 -232t-171.5 -194h229v-108h-455v89q273 189 273 445q0 157 -133.5 257t-311.5 100q-175 0 -306.5 -102t-131.5 -255q0 -256 273 -445v-89h-455v108h229z
M150 1199l-56 -256h-86l-55 256h197z" />
    <glyph glyph-name="uni0390" unicode="&#x390;" horiz-adv-x="880" 
d="M754 5q-85 -32 -150 -32q-247 0 -247 291v737h174v-715q0 -169 96 -169q41 0 90 16zM538 1574l-55 -289h-86l-55 289h196zM676 1382q44 0 74 -30t30 -75q0 -42 -30.5 -73t-73.5 -31q-45 0 -77 31t-32 73q0 45 31 75t78 30zM209 1382q46 0 76 -30t30 -75q0 -42 -31 -73
t-75 -31t-76.5 31.5t-32.5 72.5q0 45 31.5 75t77.5 30z" />
    <glyph glyph-name="uni0391" unicode="&#x391;" horiz-adv-x="1221" 
d="M1220 0h-213l-119 246h-540l-119 -246h-213l444 910q45 90 158 90t158 -90zM825 382l-217 446l-197 -446h414z" />
    <glyph glyph-name="uni0392" unicode="&#x392;" horiz-adv-x="1179" 
d="M1079 228q0 -106 -72 -165q-78 -63 -221 -63h-686v998h686q291 0 291 -227v-81q0 -74 -23 -110q-26 -46 -110 -81q22 -11 65 -29q54 -35 66 -114q4 -22 4 -128zM882 673v74q0 107 -164 107h-417v-284h424q157 0 157 103zM880 254v67q0 105 -153 105h-428v-281h428
q153 0 153 109z" />
    <glyph glyph-name="uni0393" unicode="&#x393;" horiz-adv-x="909" 
d="M809 891h-525v-891h-184v1001h709v-110z" />
    <glyph glyph-name="uni0394" unicode="&#x394;" horiz-adv-x="1295" 
d="M1282 0h-1266l545 999h176zM1032 112l-383 732l-379 -732h762z" />
    <glyph glyph-name="uni0395" unicode="&#x395;" horiz-adv-x="1087" 
d="M948 428h-649v-170q0 -112 174 -112h514v-146h-568q-147 0 -229 51q-90 57 -90 162v563q0 104 80 163.5t221 59.5h586v-146h-516q-172 0 -172 -111v-171h649v-143z" />
    <glyph glyph-name="uni0396" unicode="&#x396;" horiz-adv-x="998" 
d="M963 904q0 -34 -23 -58l-653 -700h651v-146h-710q-58 0 -98 7.5t-67.5 33.5t-27.5 56q0 31 35 70l639 687h-651v146h761q144 0 144 -96z" />
    <glyph glyph-name="uni0397" unicode="&#x397;" horiz-adv-x="1195" 
d="M1095 0h-198v427h-598v-427h-199v999h199v-428h598v428h198v-999z" />
    <glyph glyph-name="uni0398" unicode="&#x398;" horiz-adv-x="1473" 
d="M737 1000q290 0 463 -141.5t173 -371.5q0 -220 -172.5 -367t-463.5 -147q-285 0 -461 145.5t-176 368.5q0 230 173 371.5t464 141.5zM737 83q211 0 326.5 105.5t115.5 298.5q0 182 -120 292.5t-322 110.5q-203 0 -323 -110.5t-120 -292.5q0 -185 117 -294.5t326 -109.5z
M974 436h-475v108h475v-108z" />
    <glyph glyph-name="uni0399" unicode="&#x399;" horiz-adv-x="399" 
d="M299 0h-199v1001h199v-1001z" />
    <glyph glyph-name="uni039A" unicode="&#x39a;" horiz-adv-x="1097" 
d="M1054 0h-235l-453 422q-61 55 -61 84q0 26 59 82l438 413h238l-520 -493zM299 0h-199v1001h199v-1001z" />
    <glyph glyph-name="uni039B" unicode="&#x39b;" horiz-adv-x="1282" 
d="M1274 0h-195l-438 845l-436 -845h-197l545 999h176z" />
    <glyph glyph-name="uni039C" unicode="&#x39c;" horiz-adv-x="1568" 
d="M1468 -5h-190v789l-351 -703q-51 -103 -143 -103q-55 0 -90 30q-21 20 -45 67l-359 709v-789h-190v873q0 57 45 94.5t125 37.5q121 0 166 -94l346 -710l352 712q47 94 164 94q82 0 126 -38.5t44 -99.5v-869z" />
    <glyph glyph-name="uni039D" unicode="&#x39d;" horiz-adv-x="1185" 
d="M1085 121q0 -58 -41 -94q-45 -43 -121 -43q-71 0 -110 32q-17 14 -60 81l-463 711v-810h-190v862q0 148 162 148q74 0 112 -31q21 -17 62 -82l459 -710v814h190v-878z" />
    <glyph glyph-name="uni039E" unicode="&#x39e;" horiz-adv-x="1140" 
d="M995 888h-848v111h848v-111zM923 480h-704v111h704v-111zM1040 0h-940v111h940v-111z" />
    <glyph glyph-name="uni039F" unicode="&#x39f;" horiz-adv-x="1158" 
d="M1058 227q0 -227 -327 -227h-301q-158 0 -236 50q-94 60 -94 175v546q0 113 96 177q76 51 234 51h303q325 0 325 -228v-544zM862 263v465q0 70 -41 97.5t-135 27.5h-209q-96 0 -137 -27.5t-41 -97.5v-461q0 -62 45 -95q37 -26 133 -26h209q92 0 134 26t42 91z" />
    <glyph glyph-name="uni03A0" unicode="&#x3a0;" horiz-adv-x="1226" 
d="M1126 0h-182v890h-660v-890h-184v1000h1026v-1000z" />
    <glyph glyph-name="uni03A1" unicode="&#x3a1;" horiz-adv-x="1181" 
d="M1081 589q0 -100 -79 -157t-216 -57h-487v-375h-199v1000h676q131 0 213 -49q88 -53 90 -147q2 -101 2 -215zM882 636v118q0 102 -159 102h-424v-332h419q164 0 164 112z" />
    <glyph glyph-name="uni03A3" unicode="&#x3a3;" horiz-adv-x="1233" 
d="M1133 0h-1033v93l488 435l-463 374v98h969v-110h-727l440 -359l-471 -421h797v-110z" />
    <glyph glyph-name="uni03A4" unicode="&#x3a4;" horiz-adv-x="917" 
d="M906 853h-340v-853h-199v853h-338v146h877v-146z" />
    <glyph glyph-name="uni03A5" unicode="&#x3a5;" horiz-adv-x="1133" 
d="M1124 1000l-459 -593v-407h-198v407l-457 593h227l324 -434l336 434h227z" />
    <glyph glyph-name="uni03A6" unicode="&#x3a6;" horiz-adv-x="1487" 
d="M840 872q264 -19 405.5 -116t141.5 -256t-141.5 -255.5t-405.5 -115.5v-129h-185v129q-267 16 -411 113.5t-144 257.5t144.5 258t410.5 114v129h185v-129zM840 237q171 16 262.5 84.5t91.5 178.5q0 108 -92 177t-262 87v-527zM655 236v528q-176 -13 -269 -82.5
t-93 -181.5q0 -113 92.5 -181.5t269.5 -82.5z" />
    <glyph glyph-name="uni03A7" unicode="&#x3a7;" horiz-adv-x="1160" 
d="M1144 0h-233l-336 373l-323 -373h-236l455 508l-437 492h236l307 -352l313 352h236l-436 -490z" />
    <glyph glyph-name="uni03A8" unicode="&#x3a8;" horiz-adv-x="1443" 
d="M1431 891h-10q-80 0 -120 -37t-50 -122q-13 -108 -29.5 -151t-55.5 -81t-92.5 -61t-118 -34.5t-138.5 -11.5v-393h-184v393q-77 0 -144.5 12t-122.5 39t-93.5 69.5t-50.5 84t-23 134.5q-10 85 -50 122t-120 37h-11v112h17q178 0 248 -56.5t85 -187.5q13 -104 25 -140
t43 -63.5t79 -39.5t118 -12v496h184v-496q72 0 121 13t80 42.5t41.5 66t21.5 133.5q15 131 85.5 187.5t248.5 56.5h16v-112z" />
    <glyph glyph-name="uni03A9" unicode="&#x3a9;" horiz-adv-x="1471" 
d="M341 108q-102 76 -171.5 194t-69.5 232q0 201 186 333t448 132q264 0 450.5 -131.5t186.5 -333.5q0 -114 -69.5 -232t-171.5 -194h229v-108h-455v89q273 189 273 445q0 157 -133.5 257t-311.5 100q-175 0 -306.5 -101.5t-131.5 -255.5q0 -256 273 -445v-89h-455v108h229z
" />
    <glyph glyph-name="uni03AA" unicode="&#x3aa;" horiz-adv-x="762" 
d="M474 0h-184v999h184v-999zM568 1302q40 0 67 -24.5t27 -62.5q0 -34 -27.5 -59.5t-66.5 -25.5q-40 0 -68 25.5t-28 59.5q0 38 27.5 62.5t68.5 24.5zM197 1303q41 0 67.5 -24.5t26.5 -62.5q0 -35 -27.5 -60.5t-66.5 -25.5t-68 26t-29 60q0 38 28.5 62.5t68.5 24.5z" />
    <glyph glyph-name="uni03AB" unicode="&#x3ab;" horiz-adv-x="1073" 
d="M1067 999l-436 -599v-400h-185v400l-436 599h210l319 -451l330 451h198zM727 1303q42 0 70 -24.5t28 -62.5q0 -35 -29 -60.5t-69 -25.5q-42 0 -71.5 25.5t-29.5 60.5q0 38 29 62.5t72 24.5zM344 1306q44 0 72.5 -25t28.5 -64q0 -35 -29.5 -61t-71.5 -26q-41 0 -72 26.5
t-31 60.5q0 39 30.5 64t72.5 25z" />
    <glyph glyph-name="uni03AC" unicode="&#x3ac;" horiz-adv-x="1292" 
d="M1192 749q-152 -276 -248 -433q84 -234 170 -323h-184q-41 41 -94 171q-145 -191 -377 -191q-160 0 -259.5 96.5t-99.5 253.5q0 190 119 311t305 121q118 0 216 -70.5t143 -196.5l129 261h180zM780 311q-54 179 -119 256t-157 77q-88 0 -153.5 -88.5t-65.5 -220.5
q0 -103 62 -171.5t132 -68.5q177 0 301 216zM628 1061l-56 -215h-86l-55 215h197z" />
    <glyph glyph-name="uni03AD" unicode="&#x3ad;" horiz-adv-x="964" 
d="M864 25q-135 -52 -284 -52q-224 0 -352 104t-128 285q0 186 130 286.5t346 100.5q140 0 276 -41l-41 -99q-113 34 -233 34q-243 0 -287 -206h428v-110h-432q10 -120 86.5 -184t206.5 -64q122 0 245 44zM628 1052l-56 -213h-86l-55 213h197z" />
    <glyph glyph-name="uni03AE" unicode="&#x3ae;" horiz-adv-x="1052" 
d="M952 -301h-174v759q0 97 -42 140t-132 43q-132 0 -299 -124v-542h-174v578q0 110 -31 180h178q27 -47 27 -107q163 125 346 125q301 0 301 -260v-792zM663 1063l-56 -219h-86l-55 219h197z" />
    <glyph glyph-name="uni03AF" unicode="&#x3af;" horiz-adv-x="604" 
d="M504 -3q-85 -24 -150 -24q-247 0 -247 220v556h174v-539q0 -128 96 -128q41 0 90 12zM297 1078l-56 -219h-86l-55 219h197z" />
    <glyph glyph-name="uni03B0" unicode="&#x3b0;" horiz-adv-x="1086" 
d="M878 746q45 -72 76.5 -179t31.5 -194q0 -181 -121.5 -290.5t-336.5 -109.5q-207 0 -317.5 89t-110.5 252v432h174v-432q0 -109 65 -169.5t189 -60.5q274 0 274 289q0 90 -35.5 201t-77.5 172h189zM581 1177l-55 -218h-86l-55 218h196zM706 1034q38 0 64.5 -22.5
t26.5 -56.5q0 -33 -27 -56.5t-64 -23.5q-40 0 -68 23.5t-28 56.5q0 34 27 56.5t69 22.5zM269 1031q39 0 64 -22t25 -56q0 -32 -26 -55t-63 -23t-64 23.5t-27 54.5q0 34 26.5 56t64.5 22z" />
    <glyph glyph-name="uni03B1" unicode="&#x3b1;" horiz-adv-x="1292" 
d="M1192 743q-152 -274 -248 -430q84 -231 170 -320h-184q-41 40 -94 169q-145 -189 -377 -189q-160 0 -259.5 96t-99.5 252q0 188 119 308t305 120q118 0 216 -70t143 -195l129 259h180zM780 309q-54 177 -119 253t-157 76q-88 0 -153.5 -87.5t-65.5 -218.5q0 -102 62 -170
t132 -68q177 0 301 215z" />
    <glyph glyph-name="uni03B2" unicode="&#x3b2;" horiz-adv-x="1076" 
d="M599 653q167 -23 272 -106.5t105 -201.5q0 -149 -118.5 -252t-301.5 -103q-115 0 -217 31l31 124q85 -27 184 -27q109 0 180.5 61t71.5 161q0 219 -440 246v121h18q131 0 225.5 63.5t94.5 152.5q0 72 -50.5 115.5t-148.5 43.5q-231 0 -231 -249v-1134h-174v1158
q0 174 111.5 258.5t299.5 84.5q161 0 261 -70.5t100 -190.5q0 -107 -76.5 -187t-196.5 -95v-4z" />
    <glyph glyph-name="uni03B3" unicode="&#x3b3;" horiz-adv-x="1114" 
d="M1014 749l-371 -757v-291h-174v296l-369 752h179l278 -603l279 603h178z" />
    <glyph glyph-name="uni03B4" unicode="&#x3b4;" horiz-adv-x="1157" 
d="M907 1027q-163 46 -334 46q-105 0 -173 -22t-68 -55q0 -25 61 -66t283 -143q221 -102 301 -199.5t80 -209.5q0 -182 -132 -293.5t-345 -111.5q-216 0 -348 111.5t-132 293.5q0 242 349 375q-177 87 -239 141t-62 104q0 81 119.5 141t305.5 60q192 0 377 -58zM872 380
q0 89 -65.5 160.5t-224.5 143.5q-297 -109 -297 -304q0 -122 79.5 -200t215.5 -78q133 0 212.5 78.5t79.5 199.5z" />
    <glyph glyph-name="uni03B5" unicode="&#x3b5;" horiz-adv-x="964" 
d="M864 25q-135 -52 -284 -52q-224 0 -352 104t-128 285q0 186 130 286.5t346 100.5q140 0 276 -40l-41 -100q-113 34 -233 34q-243 0 -287 -206h428v-109h-432q10 -121 86.5 -185t206.5 -64q122 0 245 44z" />
    </font>
</defs>
</svg>
