<?xml version="1.0" encoding="iso-8859-1"?>
<!-- Generator: Adobe Illustrator 21.1.0, SVG Export Plug-In . SVG Version: 6.00 Build 0)  -->
<svg version="1.1" xmlns="http://www.w3.org/2000/svg" xmlns:xlink="http://www.w3.org/1999/xlink" x="0px" y="0px"
	 viewBox="0 0 1000 1000" style="enable-background:new 0 0 1000 1000;" xml:space="preserve">
<g id="description">
	<g>
		<path d="M918,77c6.6,0,12,5.4,12,12v823c0,6.6-5.4,12-12,12H95c-6.6,0-12-5.4-12-12V89c0-6.6,5.4-12,12-12H918 M918,47H95
			c-23.159,0-42,18.841-42,42v823c0,23.159,18.841,42,42,42h823c23.159,0,42-18.841,42-42V89C960,65.841,941.159,47,918,47L918,47z"
			/>
	</g>
	<g>
		<path d="M834,476H213c-14.3,0-26-11.7-26-26v0c0-14.3,11.7-26,26-26h621c14.3,0,26,11.7,26,26v0C860,464.3,848.3,476,834,476z"/>
	</g>
	<g>
		<path d="M834,334H414c-14.3,0-26-11.7-26-26v0c0-14.3,11.7-26,26-26h420c14.3,0,26,11.7,26,26v0C860,322.3,848.3,334,834,334z"/>
	</g>
	<g>
		<path d="M834,618H213c-14.3,0-26-11.7-26-26l0,0c0-14.3,11.7-26,26-26h621c14.3,0,26,11.7,26,26l0,0C860,606.3,848.3,618,834,618z
			"/>
	</g>
	<g>
		<path d="M669,760H213c-14.3,0-26-11.7-26-26l0,0c0-14.3,11.7-26,26-26h456c14.3,0,26,11.7,26,26l0,0C695,748.3,683.3,760,669,760z
			"/>
	</g>
</g>
<g id="specs">
	<g>
		<path d="M912,77c6.6,0,12,5.4,12,12v823c0,6.6-5.4,12-12,12H89c-6.6,0-12-5.4-12-12V89c0-6.6,5.4-12,12-12H912 M912,47H89
			c-23.159,0-42,18.841-42,42v823c0,23.159,18.841,42,42,42h823c23.159,0,42-18.841,42-42V89C954,65.841,935.159,47,912,47L912,47z"
			/>
	</g>
	<g>
		<circle cx="235" cy="279" r="33"/>
	</g>
	<path d="M765,312H348c-18.15,0-33-14.85-33-33v0c0-18.15,14.85-33,33-33h417c18.15,0,33,14.85,33,33v0
		C798,297.15,783.15,312,765,312z"/>
	<g>
		<circle cx="235" cy="422" r="33"/>
	</g>
	<path d="M765,455H348c-18.15,0-33-14.85-33-33v0c0-18.15,14.85-33,33-33h417c18.15,0,33,14.85,33,33v0
		C798,440.15,783.15,455,765,455z"/>
	<g>
		<circle cx="235" cy="571" r="33"/>
	</g>
	<path d="M765,604H348c-18.15,0-33-14.85-33-33v0c0-18.15,14.85-33,33-33h417c18.15,0,33,14.85,33,33v0
		C798,589.15,783.15,604,765,604z"/>
	<g>
		<circle cx="235" cy="720" r="33"/>
	</g>
	<path d="M765,753H348c-18.15,0-33-14.85-33-33v0c0-18.15,14.85-33,33-33h417c18.15,0,33,14.85,33,33v0
		C798,738.15,783.15,753,765,753z"/>
</g>



<g id="downloads">
	<g>
		<polygon points="132.19,436.125 377.397,436.125 377.397,56 622.603,56 622.603,436.125 867.81,436.125 507.006,866.933 		"/>
	</g>
	<path d="M834.583,944H165.417c-18.425,0-33.5-15.075-33.5-33.5v-10.067c0-18.425,15.075-33.5,33.5-33.5h669.166
		c18.425,0,33.5,15.075,33.5,33.5V910.5C868.083,928.925,853.008,944,834.583,944z"/>
</g>




<g id="video">
	<path style="stroke-miterlimit:10;" d="M317.159,817.339C207.685,754.201,134,635.955,134,500.5
		c0-135.457,73.687-253.703,183.162-316.841 M317.159,817.339C370.827,848.291,433.095,866,499.5,866
		C701.36,866,865,702.36,865,500.5 M865,500.5C865,298.64,701.36,135,499.5,135c-66.403,0-128.671,17.708-182.338,48.659"/>
	<g>
		<path d="M499.5,135C701.36,135,865,298.64,865,500.5S701.36,866,499.5,866S134,702.36,134,500.5S297.64,135,499.5,135 M499.5,35
			c-62.798,0-123.771,12.322-181.224,36.622c-55.443,23.451-105.215,57.001-147.934,99.719
			c-42.718,42.719-76.269,92.491-99.719,147.934C46.322,376.729,34,437.702,34,500.5s12.322,123.771,36.622,181.224
			c23.451,55.443,57.001,105.215,99.719,147.934c42.719,42.718,92.491,76.269,147.934,99.719C375.729,953.678,436.702,966,499.5,966
			s123.771-12.322,181.224-36.622c55.443-23.451,105.215-57.001,147.934-99.719c42.718-42.719,76.269-92.491,99.719-147.934
			C952.678,624.271,965,563.298,965,500.5s-12.322-123.771-36.622-181.224c-23.451-55.443-57.001-105.215-99.719-147.934
			c-42.719-42.718-92.491-76.269-147.934-99.719C623.271,47.322,562.298,35,499.5,35L499.5,35z"/>
	</g>
</g>



<g id="devtools">
	
		<ellipse transform="matrix(0.9296 -0.3687 0.3687 0.9296 -114.3908 159.4438)" style="fill:none;stroke-width:100;stroke-miterlimit:10;" cx="360.064" cy="379.079" rx="201.022" ry="201.022"/>
	<path d="M311.027,138.158l-80.38,31.879l-31.879-80.38l80.38-31.879L311.027,138.158z M489.482,588.121L409.102,620l31.879,80.38
		l80.38-31.879L489.482,588.121z"/>
	<path d="M600.985,330.042l-31.879-80.38l80.38-31.879l31.879,80.38L600.985,330.042z M151.022,508.496l-31.879-80.38l-80.38,31.879
		l31.879,80.38L151.022,508.496z"/>
	<path d="M495.746,174.048l-79.379-34.296l34.296-79.379l79.379,34.296L495.746,174.048z M303.761,618.406l-79.379-34.296
		l-34.296,79.379l79.379,34.296L303.761,618.406z"/>
	<path d="M565.096,514.761l34.296-79.379l79.379,34.296l-34.296,79.379L565.096,514.761z M120.737,322.776l34.296-79.379
		l-79.379-34.296L41.359,288.48L120.737,322.776z"/>
	<g>
		<path d="M723.711,649.171c11.423,0,22.729,2.026,33.604,6.022c24.445,8.982,43.93,26.945,54.865,50.581
			c10.935,23.636,12.01,50.116,3.029,74.562c-7.022,19.112-19.563,35.268-36.269,46.724c-16.401,11.247-35.511,17.191-55.264,17.191
			c-11.427,0-22.735-2.026-33.61-6.022c-24.445-8.982-43.93-26.945-54.865-50.581c-10.935-23.636-12.01-50.116-3.029-74.562
			c7.022-19.111,19.563-35.267,36.269-46.722c16.402-11.247,35.513-17.192,55.267-17.193H723.711 M723.705,599.171
			c-60.082,0.003-116.538,36.99-138.466,96.672c-28.094,76.464,11.118,161.226,87.582,189.319
			c16.783,6.166,33.959,9.089,50.854,9.089c60.082,0,116.538-36.99,138.466-96.672c28.094-76.464-11.118-161.226-87.582-189.319
			C757.777,602.094,740.6,599.17,723.705,599.171L723.705,599.171z"/>
	</g>
	<path d="M798.273,619.091l-48.798-17.929l17.929-48.798l48.798,17.929L798.273,619.091z M697.907,892.261l-48.798-17.929
		l-17.929,48.798l48.798,17.929L697.907,892.261z"/>
	<path d="M851.311,821.293l17.929-48.798l48.798,17.929l-17.929,48.798L851.311,821.293z M578.141,720.927l17.929-48.798
		L547.272,654.2l-17.929,48.798L578.141,720.927z"/>
	<path d="M866.67,709.207l-21.828-47.183l47.183-21.828l21.828,47.183L866.67,709.207z M602.54,831.398l-21.828-47.183
		l-47.183,21.828l21.828,47.183L602.54,831.398z"/>
	<path d="M761.194,889.69l47.183-21.828l21.828,47.183l-47.183,21.828L761.194,889.69z M639.003,625.56l47.183-21.828
		l-21.828-47.183l-47.183,21.828L639.003,625.56z"/>
</g>
<g id="cart">
	<g>
		<line style="fill:none;stroke-width:40;stroke-miterlimit:10;" x1="91" y1="251.963" x2="908" y2="84.429"/>
	</g>
	
		<line style="fill:none;stroke-width:40;stroke-miterlimit:10;" x1="110.879" y1="247.787" x2="196.822" y2="727.543"/>
	
		<line style="fill:none;stroke-width:40;stroke-miterlimit:10;" x1="178.031" y1="711.839" x2="643.644" y2="717.278"/>
	
		<line style="fill:none;stroke-width:40;stroke-miterlimit:10;" x1="178.031" y1="777.41" x2="643.644" y2="782.85"/>
	
		<line style="fill:none;stroke-width:40;stroke-miterlimit:10;" x1="745.784" y1="114.889" x2="622.854" y2="734.983"/>
	
		<line style="fill:none;stroke-width:40;stroke-miterlimit:10;" x1="623.766" y1="723.016" x2="623.766" y2="779.586"/>
	<circle cx="260.166" cy="862.809" r="52.762"/>
	<circle cx="562.597" cy="862.809" r="52.762"/>
	
		<line style="fill:none;stroke-width:40;stroke-miterlimit:10;" x1="259.622" y1="210.623" x2="312.928" y2="721.928"/>
	
		<line style="fill:none;stroke-width:40;stroke-miterlimit:10;" x1="410.838" y1="186.69" x2="410.838" y2="723.016"/>
	
		<line style="fill:none;stroke-width:40;stroke-miterlimit:10;" x1="562.053" y1="155.141" x2="509.835" y2="723.016"/>
	
		<line style="fill:none;stroke-width:40;stroke-miterlimit:10;" x1="133.427" y1="385.772" x2="694.775" y2="385.772"/>
	
		<line style="fill:none;stroke-width:40;stroke-miterlimit:10;" x1="161.712" y1="547.867" x2="665.402" y2="547.867"/>
</g>
</svg>
